<svg xmlns="http://www.w3.org/2000/svg" xmlns:xlink="http://www.w3.org/1999/xlink" width="376.48" height="251.196" viewBox="0 0 376.48 251.196"><defs><style>.a{fill:#f4f9fc;}.b{fill:#dce3e6;}.c{fill:#efab14;}.d,.k,.l{fill:#fff;}.d{font-size:17px;}.d,.e,.f,.g,.l{font-family:QuicksandBold-Regular, Quicksand;letter-spacing:-0.05em;}.e,.f,.g{fill:#829198;}.e{font-size:13px;}.f{font-size:10px;}.g{font-size:12px;}.h,.p,.q{fill:none;}.h,.p{stroke:#fff;}.h{stroke-width:5px;}.i{fill:#007bd2;}.j{fill:#0fb4ff;}.l{font-size:7px;}.m{font-family:LucidaGrande-Bold, Lucida Grande;font-weight:700;}.n{fill:rgba(255,255,255,0.35);}.o{fill:#f01458;}.p{stroke-linejoin:round;stroke-miterlimit:10;stroke-width:2px;}.q{stroke:#0fb4ff;stroke-width:3px;}.r{fill:rgba(0,0,0,0);}.s{filter:url(#g);}.t{filter:url(#e);}.u{filter:url(#c);}.v{filter:url(#a);}</style><filter id="a" x="0" y="0" width="344.438" height="251.196" filterUnits="userSpaceOnUse"><feOffset dx="6" dy="6" input="SourceAlpha"/><feGaussianBlur stdDeviation="3" result="b"/><feFlood flood-opacity="0.161"/><feComposite operator="in" in2="b"/><feComposite in="SourceGraphic"/></filter><filter id="c" x="312.798" y="25.451" width="63.682" height="225.653" filterUnits="userSpaceOnUse"><feOffset dx="6" dy="6" input="SourceAlpha"/><feGaussianBlur stdDeviation="3" result="d"/><feFlood flood-opacity="0.161"/><feComposite operator="in" in2="d"/><feComposite in="SourceGraphic"/></filter><filter id="e" x="236.115" y="177.277" width="56.773" height="56.773" filterUnits="userSpaceOnUse"><feOffset dy="3" input="SourceAlpha"/><feGaussianBlur stdDeviation="3" result="f"/><feFlood flood-opacity="0.161"/><feComposite operator="in" in2="f"/><feComposite in="SourceGraphic"/></filter><filter id="g" x="189.886" y="177.277" width="56.773" height="56.773" filterUnits="userSpaceOnUse"><feOffset dy="3" input="SourceAlpha"/><feGaussianBlur stdDeviation="3" result="h"/><feFlood flood-opacity="0.161"/><feComposite operator="in" in2="h"/><feComposite in="SourceGraphic"/></filter></defs><g transform="translate(3 1.659)"><g class="v" transform="matrix(1, 0, 0, 1, -3, -1.66)"><path class="a" d="M2.477,0H323.961a2.477,2.477,0,0,1,2.477,2.477V233.2H2.477A2.477,2.477,0,0,1,0,230.719V2.477A2.477,2.477,0,0,1,2.477,0Z" transform="translate(3 3)"/></g><g class="u" transform="matrix(1, 0, 0, 1, -3, -1.66)"><path class="b" d="M6,0H39.682a6,6,0,0,1,6,6V201.653a6,6,0,0,1-6,6H0a0,0,0,0,1,0,0V6A6,6,0,0,1,6,0Z" transform="translate(315.8 28.45)"/></g><path class="c" d="M5,0H326.438a0,0,0,0,1,0,0V62.739a9,9,0,0,1-9,9H0a0,0,0,0,1,0,0V5A5,5,0,0,1,5,0Z"/><text class="d" transform="translate(40.736 39.731)"><tspan x="0" y="0">16002</tspan></text><text class="d" transform="translate(246.253 39.731)"><tspan x="0" y="0">0/9</tspan></text><text class="e" transform="translate(21.029 81.237)"><tspan x="0" y="10">Lorem ipsum dolor sit amet, consectetur </tspan><tspan x="0" y="29">adipiscing elit, sed do eiusmod tempor </tspan><tspan x="0" y="48">incididunt ut labore et dolore magna aliqua. </tspan></text><text class="f" transform="translate(25.956 146.113)"><tspan x="0" y="8">Delivery date: 11-02-2018</tspan></text><text class="g" transform="translate(66.778 178.339)"><tspan x="0" y="0">Label</tspan></text><text class="g" transform="translate(192.058 178.339)"><tspan x="0" y="0">Work</tspan></text><line class="h" y1="2.817" x2="264.729" transform="translate(21.145 164.049)"/><g class="t" transform="matrix(1, 0, 0, 1, -3, -1.66)"><ellipse class="i" cx="19.387" cy="19.387" rx="19.387" ry="19.387" transform="translate(245.12 183.28)"/></g><g class="s" transform="matrix(1, 0, 0, 1, -3, -1.66)"><ellipse class="j" cx="19.387" cy="19.387" rx="19.387" ry="19.387" transform="translate(198.89 183.28)"/></g><g transform="translate(254.046 189.135)"><path class="k" d="M14.53,14.533a4.569,4.569,0,1,0,0-9.133A4.7,4.7,0,0,0,9.8,9.966,4.7,4.7,0,0,0,14.53,14.533ZM11.757,9.966A2.858,2.858,0,0,1,14.53,7.194,2.858,2.858,0,0,1,17.3,9.966a2.858,2.858,0,0,1-2.773,2.773A2.858,2.858,0,0,1,11.757,9.966Z" transform="translate(-6.864 -5.4)"/><path class="k" d="M15.339,11.408A7.556,7.556,0,0,0,8,18.91V19.4a4.414,4.414,0,0,0,2.936,4.24,11.7,11.7,0,0,0,4.73.979,12.286,12.286,0,0,0,4.73-.979A4.571,4.571,0,0,0,23.33,19.4v-.652a7.035,7.035,0,0,0-2.283-5.219A7.591,7.591,0,0,0,15.339,11.408Zm6.034,7.5a3.143,3.143,0,0,1-2.446,3.1,11.3,11.3,0,0,1-3.262.489,12.415,12.415,0,0,1-3.425-.489,3.505,3.505,0,0,1-2.283-3.1v-.163a5.839,5.839,0,0,1,1.794-4.077,5.418,5.418,0,0,1,4.4-1.468A5.813,5.813,0,0,1,21.373,18.91Z" transform="translate(-8 -1.623)"/></g><g transform="translate(207.817 189.135)"><path class="k" d="M14.53,14.533a4.569,4.569,0,1,0,0-9.133A4.7,4.7,0,0,0,9.8,9.966,4.7,4.7,0,0,0,14.53,14.533ZM11.757,9.966A2.858,2.858,0,0,1,14.53,7.194,2.858,2.858,0,0,1,17.3,9.966a2.858,2.858,0,0,1-2.773,2.773A2.858,2.858,0,0,1,11.757,9.966Z" transform="translate(-6.864 -5.4)"/><path class="k" d="M15.339,11.408A7.556,7.556,0,0,0,8,18.91V19.4a4.414,4.414,0,0,0,2.936,4.24,11.7,11.7,0,0,0,4.73.979,12.286,12.286,0,0,0,4.73-.979A4.571,4.571,0,0,0,23.33,19.4v-.652a7.035,7.035,0,0,0-2.283-5.219A7.591,7.591,0,0,0,15.339,11.408Zm6.034,7.5a3.143,3.143,0,0,1-2.446,3.1,11.3,11.3,0,0,1-3.262.489,12.415,12.415,0,0,1-3.425-.489,3.505,3.505,0,0,1-2.283-3.1v-.163a5.839,5.839,0,0,1,1.794-4.077,5.418,5.418,0,0,1,4.4-1.468A5.813,5.813,0,0,1,21.373,18.91Z" transform="translate(-8 -1.623)"/></g><g transform="translate(286.767)"><ellipse class="c" cx="35.869" cy="35.87" rx="35.869" ry="35.87" transform="translate(0)"/><text class="l" transform="translate(25.507 32.764)"><tspan x="0" y="0">75</tspan><tspan class="m" y="0">%</tspan></text><path class="n" d="M25.507,51.015A25.508,25.508,0,0,1,7.471,7.471,25.507,25.507,0,0,1,43.542,43.544,25.338,25.338,0,0,1,25.507,51.015Zm0-41.449A15.942,15.942,0,1,0,41.449,25.508,15.961,15.961,0,0,0,25.507,9.566Z" transform="translate(11.158 9.564)"/><path class="k" d="M25.506,51.015A25.508,25.508,0,0,1,7.47,7.471,25.339,25.339,0,0,1,25.506,0c.276,0,.559,0,.839.014V9.587c-.27-.014-.552-.022-.839-.022a15.934,15.934,0,1,0,15.73,18.547h9.646a25.512,25.512,0,0,1-25.376,22.9Z" transform="translate(11.16 9.564)"/></g><line class="h" y2="42.229" transform="translate(147.174 166.864)"/><ellipse class="o" cx="15.94" cy="15.94" rx="15.94" ry="15.94" transform="translate(102.048 184.792)"/><path class="p" d="M9.915,5.161H5.161L7.642.2H2.681L.2,7.642H2.887L.2,14.256Z" transform="translate(113.163 195.913)"/><path class="q" d="M19.909,8.581H18.021a10.5,10.5,0,0,0-.858-2.06l1.373-1.373a1.044,1.044,0,0,0,0-1.373L16.991,2.231a1.044,1.044,0,0,0-1.373,0L14.417,3.6a7.429,7.429,0,0,0-2.06-.858V.858A.785.785,0,0,0,11.671,0H9.44C9.1,0,8.581.343,8.581.687v2.06a10.5,10.5,0,0,0-2.06.858L5.149,2.231a1.044,1.044,0,0,0-1.373,0L2.231,3.776a1.044,1.044,0,0,0,0,1.373L3.6,6.522a10.5,10.5,0,0,0-.858,2.06H.858A.785.785,0,0,0,0,9.268V11.5a.785.785,0,0,0,.687.858h2.06a10.5,10.5,0,0,0,.858,2.06L2.231,15.79a1.044,1.044,0,0,0,0,1.373l1.545,1.545a1.044,1.044,0,0,0,1.373,0l1.373-1.373a10.5,10.5,0,0,0,2.06.858v1.888a.785.785,0,0,0,.687.858H11.5a.785.785,0,0,0,.858-.687v-2.06a10.5,10.5,0,0,0,2.06-.858l1.373,1.373a1.044,1.044,0,0,0,1.373,0l1.545-1.545a1.044,1.044,0,0,0,0-1.373l-1.373-1.373a10.5,10.5,0,0,0,.858-2.06h1.888a.785.785,0,0,0,.858-.687V9.44C20.939,8.925,20.6,8.581,19.909,8.581ZM10.3,15.618a4.977,4.977,0,1,1,4.977-4.977A4.981,4.981,0,0,1,10.3,15.618Z" transform="matrix(0.998, -0.07, 0.07, 0.998, 322.321, 87.235)"/><g transform="translate(14.549 26.451)"><g transform="translate(0 0)"><g transform="translate(3.1)"><path class="r" d="M18.222,23.794H1.408A1.408,1.408,0,0,1,0,22.387V1.408A1.408,1.408,0,0,1,1.408,0H11.523L19.63,7.953V22.382a1.408,1.408,0,0,1-1.408,1.413Z" transform="translate(0 0)"/><path class="k" d="M18.222,22.386h0V8.546L10.948,1.408H1.41l0,0V22.385H18.222m0,1.408H1.408A1.409,1.409,0,0,1,0,22.386V1.408A1.409,1.409,0,0,1,1.408,0H11.523L19.63,7.955V22.386A1.409,1.409,0,0,1,18.222,23.794Z" transform="translate(0 0)"/></g><path class="c" d="M-233.531,339.631a47.7,47.7,0,0,0-3.544,3.941s-.793,1.288.391,1.83,3.549,1.824,3.549,1.824.087,3.113,1.27,3.935,2.217,0,3.773-2.193,2.85-4.022,2.85-4.022.122-2.207-1.962-2.077-2.422.525-3.555-.833S-232.81,339.119-233.531,339.631Z" transform="translate(238.252 -337.71)"/><path class="k" d="M17.7,14.941a2.7,2.7,0,0,0-.954-1.589c-.795-.795-2.544-2.066-3.656-3.02A16.736,16.736,0,0,1,11.665,9.06l1.747-2.066a2.406,2.406,0,0,0-.318-3.02C12.3,3.34,11.663,3.34,9.12,3.5H8.961a.555.555,0,0,1-.318-.159S6.9,1.272,6.421.795A2.278,2.278,0,0,0,4.672,0,2.553,2.553,0,0,0,2.925.795L.539,3.656A3.343,3.343,0,0,0-.106,5.4,2.437,2.437,0,0,0,.858,6.994c.159,0,1.748.954,2.385,1.272.318.159.477.318.795.477a.826.826,0,0,1,.318.633,4.891,4.891,0,0,0,.954,3.02c1.272,1.272,2.7,1.113,3.5.318l1.748-2.066c.795.633,3.815,3.02,5.4,4.293a2.259,2.259,0,0,0,.954.318h.954Zm-5.88-8.9-4.293,5.4h0c-.318.318-.633.159-.954-.159a3.5,3.5,0,0,1-.633-2.066A1.928,1.928,0,0,0,4.832,7.312l-2.7-1.59A.68.68,0,0,1,1.97,4.609L4.2,2.066a.794.794,0,0,1,1.272,0C6.1,2.861,6.9,3.656,7.533,4.451s3.02.3,3.02.3,1.431-.3,1.431.653C11.984,5.722,11.984,5.881,11.825,6.04Z" transform="translate(0.106 1.189)"/></g></g></g></svg>