<svg xmlns="http://www.w3.org/2000/svg" xmlns:xlink="http://www.w3.org/1999/xlink" width="365.094" height="133.555" viewBox="0 0 365.094 133.555"><defs><style>.a,.c{fill:#fff;}.a{stroke:#e4e4e4;}.b{fill:#006ec6;}.d{fill:#0fb4ff;}.e{fill:#e4e4e4;}.f{fill:#829198;font-size:13px;font-family:QuicksandBold-Regular, Quicksand;letter-spacing:-0.02em;}.g{stroke:none;}.h{fill:none;}.i{filter:url(#g);}.j{filter:url(#e);}.k{filter:url(#c);}.l{filter:url(#a);}</style><filter id="a" x="11.734" y="14.733" width="63.073" height="63.073" filterUnits="userSpaceOnUse"><feOffset dy="3" input="SourceAlpha"/><feGaussianBlur stdDeviation="3" result="b"/><feFlood flood-opacity="0.161"/><feComposite operator="in" in2="b"/><feComposite in="SourceGraphic"/></filter><filter id="c" x="102.782" y="14.733" width="63.073" height="63.073" filterUnits="userSpaceOnUse"><feOffset dy="3" input="SourceAlpha"/><feGaussianBlur stdDeviation="3" result="d"/><feFlood flood-opacity="0.161"/><feComposite operator="in" in2="d"/><feComposite in="SourceGraphic"/></filter><filter id="e" x="199.239" y="14.733" width="63.073" height="63.073" filterUnits="userSpaceOnUse"><feOffset dy="3" input="SourceAlpha"/><feGaussianBlur stdDeviation="3" result="f"/><feFlood flood-opacity="0.161"/><feComposite operator="in" in2="f"/><feComposite in="SourceGraphic"/></filter><filter id="g" x="285.78" y="14.733" width="63.073" height="63.073" filterUnits="userSpaceOnUse"><feOffset dy="3" input="SourceAlpha"/><feGaussianBlur stdDeviation="3" result="h"/><feFlood flood-opacity="0.161"/><feComposite operator="in" in2="h"/><feComposite in="SourceGraphic"/></filter></defs><g transform="translate(0)"><g class="a"><rect class="g" width="365.094" height="133.554" rx="29"/><rect class="h" x="0.5" y="0.5" width="364.094" height="132.554" rx="28.5"/></g><g transform="translate(20.734 20.733)"><g class="l" transform="matrix(1, 0, 0, 1, -20.73, -20.73)"><rect class="b" width="45.073" height="45.073" rx="22.537" transform="translate(20.73 20.73)"/></g><path class="c" d="M15.641,16.679a5.643,5.643,0,1,0,0-11.279A5.806,5.806,0,0,0,9.8,11.039,5.806,5.806,0,0,0,15.641,16.679Zm-3.424-5.639a3.529,3.529,0,0,1,3.424-3.424,3.529,3.529,0,0,1,3.424,3.424,3.529,3.529,0,0,1-3.424,3.424A3.529,3.529,0,0,1,12.217,11.039Z" transform="translate(6.446 2.713)"/><path class="c" d="M17.063,11.413A9.331,9.331,0,0,0,8,20.677v.6a5.45,5.45,0,0,0,3.625,5.237,14.447,14.447,0,0,0,5.841,1.208,15.173,15.173,0,0,0,5.841-1.208,5.644,5.644,0,0,0,3.625-5.237v-.806a8.688,8.688,0,0,0-2.82-6.445A9.374,9.374,0,0,0,17.063,11.413Zm7.452,9.265A3.881,3.881,0,0,1,21.494,24.5a13.956,13.956,0,0,1-4.028.6,15.332,15.332,0,0,1-4.23-.6,4.329,4.329,0,0,1-2.82-3.827v-.2a7.211,7.211,0,0,1,2.215-5.035,6.691,6.691,0,0,1,5.438-1.813A7.179,7.179,0,0,1,24.515,20.677Z" transform="translate(4.621 8.785)"/></g><g transform="translate(111.782 20.733)"><g class="k" transform="matrix(1, 0, 0, 1, -111.78, -20.73)"><rect class="d" width="45.073" height="45.073" rx="22.537" transform="translate(111.78 20.73)"/></g><path class="c" d="M15.641,16.679a5.643,5.643,0,1,0,0-11.279A5.806,5.806,0,0,0,9.8,11.039,5.806,5.806,0,0,0,15.641,16.679Zm-3.424-5.639a3.529,3.529,0,0,1,3.424-3.424,3.529,3.529,0,0,1,3.424,3.424,3.529,3.529,0,0,1-3.424,3.424A3.529,3.529,0,0,1,12.217,11.039Z" transform="translate(6.446 2.713)"/><path class="c" d="M17.063,11.413A9.331,9.331,0,0,0,8,20.677v.6a5.45,5.45,0,0,0,3.625,5.237,14.447,14.447,0,0,0,5.841,1.208,15.173,15.173,0,0,0,5.841-1.208,5.644,5.644,0,0,0,3.625-5.237v-.806a8.688,8.688,0,0,0-2.82-6.445A9.374,9.374,0,0,0,17.063,11.413Zm7.452,9.265A3.881,3.881,0,0,1,21.494,24.5a13.956,13.956,0,0,1-4.028.6,15.332,15.332,0,0,1-4.23-.6,4.329,4.329,0,0,1-2.82-3.827v-.2a7.211,7.211,0,0,1,2.215-5.035,6.691,6.691,0,0,1,5.438-1.813A7.179,7.179,0,0,1,24.515,20.677Z" transform="translate(4.621 8.785)"/></g><g transform="translate(208.239 20.733)"><g class="j" transform="matrix(1, 0, 0, 1, -208.24, -20.73)"><rect class="d" width="45.073" height="45.073" rx="22.537" transform="translate(208.24 20.73)"/></g><path class="c" d="M15.641,16.679a5.643,5.643,0,1,0,0-11.279A5.806,5.806,0,0,0,9.8,11.039,5.806,5.806,0,0,0,15.641,16.679Zm-3.424-5.639a3.529,3.529,0,0,1,3.424-3.424,3.529,3.529,0,0,1,3.424,3.424,3.529,3.529,0,0,1-3.424,3.424A3.529,3.529,0,0,1,12.217,11.039Z" transform="translate(6.446 2.713)"/><path class="c" d="M17.063,11.413A9.331,9.331,0,0,0,8,20.677v.6a5.45,5.45,0,0,0,3.625,5.237,14.447,14.447,0,0,0,5.841,1.208,15.173,15.173,0,0,0,5.841-1.208,5.644,5.644,0,0,0,3.625-5.237v-.806a8.688,8.688,0,0,0-2.82-6.445A9.374,9.374,0,0,0,17.063,11.413Zm7.452,9.265A3.881,3.881,0,0,1,21.494,24.5a13.956,13.956,0,0,1-4.028.6,15.332,15.332,0,0,1-4.23-.6,4.329,4.329,0,0,1-2.82-3.827v-.2a7.211,7.211,0,0,1,2.215-5.035,6.691,6.691,0,0,1,5.438-1.813A7.179,7.179,0,0,1,24.515,20.677Z" transform="translate(4.621 8.785)"/></g><g transform="translate(294.779 20.733)"><g class="i" transform="matrix(1, 0, 0, 1, -294.78, -20.73)"><rect class="d" width="45.073" height="45.073" rx="22.537" transform="translate(294.78 20.73)"/></g><path class="c" d="M15.641,16.679a5.643,5.643,0,1,0,0-11.279A5.806,5.806,0,0,0,9.8,11.039,5.806,5.806,0,0,0,15.641,16.679Zm-3.424-5.639a3.529,3.529,0,0,1,3.424-3.424,3.529,3.529,0,0,1,3.424,3.424,3.529,3.529,0,0,1-3.424,3.424A3.529,3.529,0,0,1,12.217,11.039Z" transform="translate(6.446 2.713)"/><path class="c" d="M17.063,11.413A9.331,9.331,0,0,0,8,20.677v.6a5.45,5.45,0,0,0,3.625,5.237,14.447,14.447,0,0,0,5.841,1.208,15.173,15.173,0,0,0,5.841-1.208,5.644,5.644,0,0,0,3.625-5.237v-.806a8.688,8.688,0,0,0-2.82-6.445A9.374,9.374,0,0,0,17.063,11.413Zm7.452,9.265A3.881,3.881,0,0,1,21.494,24.5a13.956,13.956,0,0,1-4.028.6,15.332,15.332,0,0,1-4.23-.6,4.329,4.329,0,0,1-2.82-3.827v-.2a7.211,7.211,0,0,1,2.215-5.035,6.691,6.691,0,0,1,5.438-1.813A7.179,7.179,0,0,1,24.515,20.677Z" transform="translate(4.621 8.785)"/></g><rect class="e" width="320.922" height="6.31" transform="translate(18.931 73.92)"/><rect class="b" width="38.763" height="6.31" transform="translate(18.931 73.92)"/><text class="f" transform="translate(20.734 97.442)"><tspan x="0" y="0">Jhon Doe </tspan><tspan x="0" y="11">Senior Design Department</tspan></text></g></svg>