<svg xmlns="http://www.w3.org/2000/svg" xmlns:xlink="http://www.w3.org/1999/xlink" width="389.583" height="227.562" viewBox="0 0 389.583 227.562"><defs><style>.a,.m{fill:#fff;}.b,.r{fill:#006ec6;}.c,.d,.f,.h,.j,.l,.q,.s{fill:none;}.c,.l,.q,.s{stroke:#006ec6;}.c{stroke-width:2px;}.d{stroke:#ebebeb;}.d,.h,.j,.l,.q{stroke-width:3px;}.e{opacity:0.231;}.f{stroke:#707070;}.g{fill:#69e2e6;}.h{stroke:#69e2e6;}.i,.p{fill:#707070;}.i{font-size:3px;font-family:QuicksandBook-Regular, Quicksand;}.i,.n,.p,.r{letter-spacing:-0.05em;}.j{stroke:#b11212;}.k{fill:#b11212;}.m{opacity:0.15;}.n{fill:#bababa;font-size:4px;}.n,.p,.r{font-family:QuicksandBold-Regular, Quicksand;}.o{fill:#ecf2f7;}.p,.r{font-size:5px;}.q,.s{stroke-linecap:round;stroke-linejoin:round;stroke-miterlimit:10;}.t{filter:url(#e);}.u{filter:url(#c);}.v{filter:url(#a);}</style><filter id="a" x="0" y="0" width="389.583" height="227.562" filterUnits="userSpaceOnUse"><feOffset dy="3" input="SourceAlpha"/><feGaussianBlur stdDeviation="3" result="b"/><feFlood flood-opacity="0.161"/><feComposite operator="in" in2="b"/><feComposite in="SourceGraphic"/></filter><filter id="c" x="336.83" y="54.67" width="19" height="137.453" filterUnits="userSpaceOnUse"><feOffset dy="3" input="SourceAlpha"/><feGaussianBlur stdDeviation="3" result="d"/><feFlood flood-color="#fff" flood-opacity="0.161"/><feComposite operator="in" in2="d"/><feComposite in="SourceGraphic"/></filter><filter id="e" x="229.081" y="8.285" width="134.405" height="31.67" filterUnits="userSpaceOnUse"><feOffset dy="3" input="SourceAlpha"/><feGaussianBlur stdDeviation="3" result="f"/><feFlood flood-opacity="0.161"/><feComposite operator="in" in2="f"/><feComposite in="SourceGraphic"/></filter></defs><g transform="translate(3531 -8373.308)"><g transform="translate(-3522 8379.308)"><g class="v" transform="matrix(1, 0, 0, 1, -9, -6)"><path class="a" d="M11,0H360.583a11,11,0,0,1,11,11V209.561a0,0,0,0,1,0,0H0a0,0,0,0,1,0,0V11A11,11,0,0,1,11,0Z" transform="translate(9 6)"/></g><rect class="b" width="12.214" height="12.214" rx="6.107" transform="translate(350.871 8.699)"/><path class="a" d="M2.713,6.166V4.193H.74a.74.74,0,0,1,0-1.48H2.713V.74a.74.74,0,0,1,1.48,0V2.713H6.166a.74.74,0,0,1,0,1.48H4.193V6.166a.74.74,0,0,1-1.48,0Z" transform="translate(353.525 11.599)"/><line class="c" x2="354.599" transform="translate(8.492 31.276)"/><path class="d" d="M375.5,461.229V580.667H671.8" transform="translate(-334.533 -406.699)"/><g class="e" transform="translate(41.155 54.53)"><line class="f" x2="296.175" transform="translate(0 102.508)"/><line class="f" x2="296.175" transform="translate(0 34.169)"/><line class="f" x2="296.175" transform="translate(0 68.339)"/><line class="f" x2="296.175"/><line class="f" x2="296.175" transform="translate(0 85.424)"/><line class="f" x2="296.175" transform="translate(0 17.085)"/><line class="f" x2="296.175" transform="translate(0 51.254)"/><g class="u" transform="matrix(1, 0, 0, 1, -50.16, -60.53)"><line class="f" y2="119.454" transform="translate(346.33 60.67)"/></g><line class="f" y2="119.454" transform="translate(118.794 0.139)"/><line class="f" y2="119.454" transform="translate(59.303 0.139)"/><line class="f" y2="119.454" transform="translate(178.285 0.139)"/><line class="f" y2="119.454" transform="translate(237.23 0.139)"/></g><g transform="translate(39.406 52.98)"><circle class="g" cx="1.553" cy="1.553" r="1.553"/><circle class="g" cx="1.553" cy="1.553" r="1.553" transform="translate(59.796 21.744)"/><circle class="g" cx="1.553" cy="1.553" r="1.553" transform="translate(119.205 50.089)"/><circle class="g" cx="1.553" cy="1.553" r="1.553" transform="translate(178.613 69.504)"/><circle class="g" cx="1.553" cy="1.553" r="1.553" transform="translate(237.633 95.519)"/></g><path class="h" d="M388.1,486.963l61.316,22.381,57.164,27.744,61.931,20.421L625.86,583.1l58.373,24.037" transform="translate(-347.1 -432.833)"/><text class="i" transform="translate(27.341 54.61)"><tspan x="0" y="0">35</tspan></text><text class="i" transform="translate(26.512 72.423)"><tspan x="0" y="0">30</tspan></text><text class="i" transform="translate(27.341 89.407)"><tspan x="0" y="0">25</tspan></text><text class="i" transform="translate(26.512 106.391)"><tspan x="0" y="0">20</tspan></text><text class="i" transform="translate(29.412 123.376)"><tspan x="0" y="0">15</tspan></text><text class="i" transform="translate(28.583 140.36)"><tspan x="0" y="0">10</tspan></text><text class="i" transform="translate(31.897 157.344)"><tspan x="0" y="0">5</tspan></text><text class="i" transform="translate(31.069 172.257)"><tspan x="0" y="0">0</tspan></text><text class="i" transform="translate(36.04 179.714)"><tspan x="0" y="0">5 feb</tspan></text><text class="i" transform="translate(94.035 179.714)"><tspan x="0" y="0">6 feb</tspan></text><text class="i" transform="translate(153.687 179.714)"><tspan x="0" y="0">7 feb</tspan></text><text class="i" transform="translate(211.268 179.714)"><tspan x="0" y="0">8 feb</tspan></text><text class="i" transform="translate(272.577 179.714)"><tspan x="0" y="0">9 feb</tspan></text><text class="i" transform="translate(329.744 179.714)"><tspan x="0" y="0">10 feb</tspan></text><path class="j" d="M388.1,486.963l58.083,29.29L509.1,532.841,567.229,560.5l59.495,20.762,57.509,25.88" transform="translate(-347.1 -432.833)"/><circle class="k" cx="1.553" cy="1.553" r="1.553" transform="translate(39.55 53.183)"/><circle class="k" cx="1.553" cy="1.553" r="1.553" transform="translate(97.959 81.766)"/><circle class="k" cx="1.553" cy="1.553" r="1.553" transform="translate(160.097 97.922)"/><circle class="k" cx="1.553" cy="1.553" r="1.553" transform="translate(218.507 126.091)"/><circle class="k" cx="1.553" cy="1.553" r="1.553" transform="translate(277.745 146.389)"/><circle class="k" cx="1.553" cy="1.553" r="1.553" transform="translate(335.325 172.487)"/><circle class="a" cx="1.553" cy="1.553" r="1.553" transform="translate(335.282 172.573)"/><line class="l" x2="295.876" y2="119.205" transform="translate(41.153 54.727)"/><g transform="translate(39.354 52.782)"><circle class="b" cx="1.716" cy="1.716" r="1.716"/><circle class="b" cx="1.716" cy="1.716" r="1.716" transform="translate(59.525 24.028)"/><circle class="b" cx="1.716" cy="1.716" r="1.716" transform="translate(119.049 47.668)"/><circle class="b" cx="1.716" cy="1.716" r="1.716" transform="translate(178.619 72.472)"/><circle class="b" cx="1.716" cy="1.716" r="1.716" transform="translate(237.024 95.769)"/><circle class="b" cx="1.716" cy="1.716" r="1.716" transform="translate(295.518 119.544)"/></g><rect class="m" width="371.583" height="19.884" transform="translate(0 189.727)"/><circle class="b" cx="3.296" cy="3.296" r="3.296" transform="translate(81.669 196.427)"/><circle class="g" cx="3.296" cy="3.296" r="3.296" transform="translate(140.629 196.427)"/><circle class="k" cx="3.296" cy="3.296" r="3.296" transform="translate(230.936 196.427)"/><text class="n" transform="translate(91.557 199.061)"><tspan x="0" y="0">Sprint</tspan></text><text class="n" transform="translate(150.516 199.061)"><tspan x="0" y="0">Carolina Vargas</tspan></text><text class="n" transform="translate(240.823 199.061)"><tspan x="0" y="0">Andrés Contreras</tspan></text><g class="t" transform="matrix(1, 0, 0, 1, -9, -6)"><rect class="o" width="116.405" height="13.67" rx="6.835" transform="translate(238.08 14.29)"/></g><text class="p" transform="translate(245.651 15.599)"><tspan x="0" y="0">DESIGN DEPARTMENT</tspan></text><path class="q" d="M2.415,4.792,0,2.415,2.415,0" transform="translate(335.026 16.652) rotate(-90)"/></g><text class="r" transform="translate(-3481.403 8395.734)"><tspan x="0" y="0">BURNDOWN</tspan></text><path class="s" d="M9.612,4.191A11.114,11.114,0,0,1,7.978,7.54,11.5,11.5,0,0,0,7.161.8c0,2.7-5.474,5.392-6.087,8.783a6.412,6.412,0,0,0,2.614,6.985,7.022,7.022,0,0,1-.49-2.574A11.922,11.922,0,0,1,5.527,7.949a7.579,7.579,0,0,1,.817,4.494A6.721,6.721,0,0,0,8.509,9.91a6.134,6.134,0,0,1-2.124,8.047C17.374,14.076,9.612,4.191,9.612,4.191Z" transform="translate(-3497.528 8384.438)"/></g></svg>