<svg xmlns="http://www.w3.org/2000/svg" xmlns:xlink="http://www.w3.org/1999/xlink" width="340.974" height="375.553" viewBox="0 0 340.974 375.553"><defs><style>.a,.o{fill:#fff;}.b,.d,.f,.n,.r{fill:none;}.b{stroke:#bfbfbf;}.b,.d{stroke-width:2px;}.c,.e,.i{fill:#707070;}.c{font-size:8px;letter-spacing:-0.05em;}.c,.i,.o{font-family:QuicksandBold-Regular, Quicksand;}.d{stroke:#707070;}.f{stroke:#0fb4ff;stroke-width:3px;}.f,.n{stroke-linecap:round;stroke-linejoin:round;stroke-miterlimit:10;}.g{fill:#ecf2f7;}.h{fill:#c7c7c7;}.i{font-size:6px;}.i,.o{letter-spacing:-0.1em;}.j{fill:#f01458;}.k{fill:#efab14;}.l{fill:#80ba54;}.m{fill:#0fb4ff;}.n{stroke:#fff;}.o{font-size:4px;}.p{fill:#ebebeb;}.q{stroke:none;}.s{filter:url(#a);}</style><filter id="a" x="0" y="0" width="340.974" height="375.553" filterUnits="userSpaceOnUse"><feOffset dy="3" input="SourceAlpha"/><feGaussianBlur stdDeviation="3" result="b"/><feFlood flood-opacity="0.161"/><feComposite operator="in" in2="b"/><feComposite in="SourceGraphic"/></filter></defs><g transform="translate(9 6)"><g class="s" transform="matrix(1, 0, 0, 1, -9, -6)"><rect class="a" width="322.974" height="357.553" rx="11" transform="translate(9 6)"/></g><line class="b" x2="284.258" transform="translate(21.141 41.518)"/><text class="c" transform="translate(51.463 24.339)"><tspan x="0" y="0">TO DO LIST</tspan></text><g transform="translate(23.433 13.245)"><g class="d" transform="translate(0 3.821)"><rect class="q" width="12.736" height="15.792" rx="3"/><rect class="r" x="1" y="1" width="10.736" height="13.792" rx="2"/></g><rect class="e" width="6.277" height="1.019" rx="0.509" transform="translate(4.075 7.387)"/><rect class="e" width="1.019" height="1.019" rx="0.509" transform="translate(2.547 7.387)"/><rect class="e" width="1.019" height="1.019" rx="0.509" transform="translate(2.547 9.934)"/><rect class="e" width="1.019" height="1.019" rx="0.509" transform="translate(2.547 12.481)"/><rect class="e" width="1.019" height="1.019" rx="0.509" transform="translate(2.547 15.028)"/><rect class="e" width="6.277" height="1.019" rx="0.509" transform="translate(4.075 15.028)"/><rect class="e" width="5.44" height="1.019" rx="0.509" transform="translate(4.075 9.934)"/><rect class="e" width="4.603" height="1.019" rx="0.509" transform="translate(4.075 12.481)"/><rect class="e" width="6.622" height="3.057" rx="1.528" transform="translate(3.057 3.311)"/><rect class="e" width="3.566" height="3.566" rx="1.783" transform="translate(8.151 0) rotate(90)"/></g><path class="f" d="M5.82,10.37,1.2,5.82,5.82,1.2" transform="translate(275.416 17.394)"/><path class="f" d="M4.62,9.17,0,4.62,4.62,0" transform="translate(303.651 27.764) rotate(180)"/><g transform="translate(21.395 55.527)"><rect class="g" width="284.003" height="19.349" transform="translate(0 0)"/><rect class="h" width="2.7" height="19.349" transform="translate(0 0)"/><g transform="translate(7.65 4.05)"><circle class="h" cx="1.125" cy="1.125" r="1.125"/><circle class="h" cx="1.125" cy="1.125" r="1.125" transform="translate(0 4.5)"/><circle class="h" cx="1.125" cy="1.125" r="1.125" transform="translate(0 9)"/><circle class="h" cx="1.125" cy="1.125" r="1.125" transform="translate(4.5)"/><circle class="h" cx="1.125" cy="1.125" r="1.125" transform="translate(4.5 4.5)"/><circle class="h" cx="1.125" cy="1.125" r="1.125" transform="translate(4.5 9)"/></g><rect class="h" width="7.641" height="7.641" rx="3" transform="translate(22.415 5.604)"/></g><g transform="translate(21.395 86.602)"><rect class="g" width="284.003" height="19.349" transform="translate(0 0)"/><rect class="h" width="2.7" height="19.349" transform="translate(0 0)"/><g transform="translate(7.65 4.05)"><circle class="h" cx="1.125" cy="1.125" r="1.125"/><circle class="h" cx="1.125" cy="1.125" r="1.125" transform="translate(0 4.5)"/><circle class="h" cx="1.125" cy="1.125" r="1.125" transform="translate(0 9)"/><circle class="h" cx="1.125" cy="1.125" r="1.125" transform="translate(4.5)"/><circle class="h" cx="1.125" cy="1.125" r="1.125" transform="translate(4.5 4.5)"/><circle class="h" cx="1.125" cy="1.125" r="1.125" transform="translate(4.5 9)"/></g><rect class="h" width="7.641" height="7.641" rx="3" transform="translate(22.415 5.604)"/></g><g transform="translate(21.395 117.677)"><rect class="g" width="284.003" height="19.349" transform="translate(0 0)"/><rect class="h" width="2.7" height="19.349" transform="translate(0 0)"/><g transform="translate(7.65 4.05)"><circle class="h" cx="1.125" cy="1.125" r="1.125"/><circle class="h" cx="1.125" cy="1.125" r="1.125" transform="translate(0 4.5)"/><circle class="h" cx="1.125" cy="1.125" r="1.125" transform="translate(0 9)"/><circle class="h" cx="1.125" cy="1.125" r="1.125" transform="translate(4.5)"/><circle class="h" cx="1.125" cy="1.125" r="1.125" transform="translate(4.5 4.5)"/><circle class="h" cx="1.125" cy="1.125" r="1.125" transform="translate(4.5 9)"/></g><rect class="h" width="7.641" height="7.641" rx="3" transform="translate(22.415 5.604)"/></g><g transform="translate(21.395 148.751)"><rect class="g" width="284.003" height="19.349" transform="translate(0 0)"/><rect class="h" width="2.7" height="19.349" transform="translate(0 0)"/><g transform="translate(7.65 4.05)"><circle class="h" cx="1.125" cy="1.125" r="1.125"/><circle class="h" cx="1.125" cy="1.125" r="1.125" transform="translate(0 4.5)"/><circle class="h" cx="1.125" cy="1.125" r="1.125" transform="translate(0 9)"/><circle class="h" cx="1.125" cy="1.125" r="1.125" transform="translate(4.5)"/><circle class="h" cx="1.125" cy="1.125" r="1.125" transform="translate(4.5 4.5)"/><circle class="h" cx="1.125" cy="1.125" r="1.125" transform="translate(4.5 9)"/></g><rect class="h" width="7.641" height="7.641" rx="3" transform="translate(22.415 5.604)"/></g><g transform="translate(21.395 179.826)"><rect class="g" width="284.003" height="19.349" transform="translate(0 0)"/><rect class="h" width="2.7" height="19.349" transform="translate(0 0)"/><g transform="translate(7.65 4.05)"><circle class="h" cx="1.125" cy="1.125" r="1.125"/><circle class="h" cx="1.125" cy="1.125" r="1.125" transform="translate(0 4.5)"/><circle class="h" cx="1.125" cy="1.125" r="1.125" transform="translate(0 9)"/><circle class="h" cx="1.125" cy="1.125" r="1.125" transform="translate(4.5)"/><circle class="h" cx="1.125" cy="1.125" r="1.125" transform="translate(4.5 4.5)"/><circle class="h" cx="1.125" cy="1.125" r="1.125" transform="translate(4.5 9)"/></g><rect class="h" width="7.641" height="7.641" rx="3" transform="translate(22.415 5.604)"/></g><g transform="translate(21.395 210.901)"><rect class="g" width="284.003" height="19.349" transform="translate(0 0)"/><rect class="h" width="2.7" height="19.349" transform="translate(0 0)"/><g transform="translate(7.65 4.05)"><circle class="h" cx="1.125" cy="1.125" r="1.125"/><circle class="h" cx="1.125" cy="1.125" r="1.125" transform="translate(0 4.5)"/><circle class="h" cx="1.125" cy="1.125" r="1.125" transform="translate(0 9)"/><circle class="h" cx="1.125" cy="1.125" r="1.125" transform="translate(4.5)"/><circle class="h" cx="1.125" cy="1.125" r="1.125" transform="translate(4.5 4.5)"/><circle class="h" cx="1.125" cy="1.125" r="1.125" transform="translate(4.5 9)"/></g><rect class="h" width="7.641" height="7.641" rx="3" transform="translate(22.415 5.604)"/></g><g transform="translate(21.395 241.976)"><rect class="g" width="284.003" height="19.349" transform="translate(0 0)"/><rect class="h" width="2.7" height="19.349" transform="translate(0 0)"/><g transform="translate(7.65 4.05)"><circle class="h" cx="1.125" cy="1.125" r="1.125"/><circle class="h" cx="1.125" cy="1.125" r="1.125" transform="translate(0 4.5)"/><circle class="h" cx="1.125" cy="1.125" r="1.125" transform="translate(0 9)"/><circle class="h" cx="1.125" cy="1.125" r="1.125" transform="translate(4.5)"/><circle class="h" cx="1.125" cy="1.125" r="1.125" transform="translate(4.5 4.5)"/><circle class="h" cx="1.125" cy="1.125" r="1.125" transform="translate(4.5 9)"/></g><rect class="h" width="7.641" height="7.641" rx="3" transform="translate(22.415 5.604)"/></g><g transform="translate(21.395 273.051)"><rect class="g" width="284.003" height="19.349" transform="translate(0 0)"/><rect class="h" width="2.7" height="19.349" transform="translate(0 0)"/><g transform="translate(7.65 4.05)"><circle class="h" cx="1.125" cy="1.125" r="1.125"/><circle class="h" cx="1.125" cy="1.125" r="1.125" transform="translate(0 4.5)"/><circle class="h" cx="1.125" cy="1.125" r="1.125" transform="translate(0 9)"/><circle class="h" cx="1.125" cy="1.125" r="1.125" transform="translate(4.5)"/><circle class="h" cx="1.125" cy="1.125" r="1.125" transform="translate(4.5 4.5)"/><circle class="h" cx="1.125" cy="1.125" r="1.125" transform="translate(4.5 9)"/></g><rect class="h" width="7.641" height="7.641" rx="3" transform="translate(22.415 5.604)"/></g><text class="i" transform="translate(60.112 67.659)"><tspan x="0" y="0">Create a new moon for the earth</tspan></text><text class="i" transform="translate(60.112 191.448)"><tspan x="0" y="0">Give wings to the cats</tspan></text><text class="i" transform="translate(60.112 98.224)"><tspan x="0" y="0">Build a coffee shop in the new moon</tspan></text><text class="i" transform="translate(60.112 128.79)"><tspan x="0" y="0">Write a song for the moon</tspan></text><text class="i" transform="translate(60.112 222.523)"><tspan x="0" y="0">Create rainbow cookies</tspan></text><text class="i" transform="translate(60.112 254.107)"><tspan x="0" y="0">Catch rainbow colors</tspan></text><text class="i" transform="translate(60.112 284.163)"><tspan x="0" y="0">Find the end of the rainbow</tspan></text><text class="i" transform="translate(60.112 160.374)"><tspan x="0" y="0">Take cats to the moon</tspan></text><path class="j" d="M7.782,10.7a4,4,0,0,1-4-3.852L0,5.823,3.782,4.408V4a4,4,0,0,1,4-4H36.969a4,4,0,0,1,4,4V6.7a4,4,0,0,1-4,4Z" transform="translate(168.912 61.131)"/><path class="k" d="M7.782,10.7a4,4,0,0,1-4-3.852L0,5.823,3.782,4.408V4a4,4,0,0,1,4-4h35.81a4,4,0,0,1,4,4V6.7a4,4,0,0,1-4,4Z" transform="translate(179.61 91.696)"/><path class="l" d="M7.782,10.7a4,4,0,0,1-4-3.852L0,5.823,3.782,4.408V4a4,4,0,0,1,4-4H46.139a4,4,0,0,1,4,4V6.7a4,4,0,0,1-4,4Z" transform="translate(151.082 122.261)"/><path class="l" d="M7.782,10.7a4,4,0,0,1-4-3.852L0,5.823,3.782,4.408V4a4,4,0,0,1,4-4H46.139a4,4,0,0,1,4,4V6.7a4,4,0,0,1-4,4Z" transform="translate(135.29 152.826)"/><path class="l" d="M7.782,10.7a4,4,0,0,1-4-3.852L0,5.823,3.782,4.408V4a4,4,0,0,1,4-4H46.139a4,4,0,0,1,4,4V6.7a4,4,0,0,1-4,4Z" transform="translate(132.234 184.411)"/><path class="l" d="M7.782,10.7a4,4,0,0,1-4-3.852L0,5.823,3.782,4.408V4a4,4,0,0,1,4-4H46.139a4,4,0,0,1,4,4V6.7a4,4,0,0,1-4,4Z" transform="translate(140.385 215.486)"/><path class="m" d="M7.782,10.7a4,4,0,0,1-4-3.852L0,5.823,3.782,4.408V4a4,4,0,0,1,4-4H39.517a4,4,0,0,1,4,4V6.7a4,4,0,0,1-4,4Z" transform="translate(140.385 247.07)"/><path class="m" d="M7.782,10.7a4,4,0,0,1-4-3.852L0,5.823,3.782,4.408V4a4,4,0,0,1,4-4H39.517a4,4,0,0,1,4,4V6.7a4,4,0,0,1-4,4Z" transform="translate(153.12 277.126)"/><g transform="translate(177.293 63.59)"><ellipse class="n" cx="2.584" cy="2.584" rx="2.584" ry="2.584" transform="translate(0 0)"/><line class="n" y2="2.129" transform="translate(2.584 1.024)"/><circle class="a" cx="0.341" cy="0.341" r="0.341" transform="translate(2.243 3.836)"/></g><text class="o" transform="translate(185.429 66.678)"><tspan x="0" y="0">Expiring</tspan></text><text class="o" transform="translate(196.637 97.243)"><tspan x="0" y="0">Improving</tspan></text><text class="o" transform="translate(169.128 127.809)"><tspan x="0" y="0">Developing</tspan></text><text class="o" transform="translate(153.336 158.374)"><tspan x="0" y="0">Developing</tspan></text><text class="o" transform="translate(150.279 189.958)"><tspan x="0" y="0">Developing</tspan></text><text class="o" transform="translate(158.431 221.033)"><tspan x="0" y="0">Developing</tspan></text><text class="o" transform="translate(158.431 252.617)"><tspan x="0" y="0">Pending</tspan></text><text class="o" transform="translate(171.166 282.673)"><tspan x="0" y="0">Pending</tspan></text><path class="n" d="M6.287,2.693,3.787,1.2,1.252,2.624,1.2,5.54,3.7,7.016,6.235,5.592Z" transform="translate(188.564 92.831)"/><ellipse class="n" cx="1.337" cy="1.337" rx="1.337" ry="1.337" transform="translate(190.979 95.611)"/><path class="n" d="M5.992,3.323H5.508A1.782,1.782,0,0,0,5.3,2.84l.352-.352a.248.248,0,0,0,0-.337l-.279-.279a.248.248,0,0,0-.337,0l-.352.352A1.782,1.782,0,0,0,4.2,2.018V1.535A.232.232,0,0,0,3.969,1.3h-.4a.232.232,0,0,0-.235.235v.5a1.782,1.782,0,0,0-.484.205l-.367-.367a.248.248,0,0,0-.337,0l-.279.279a.248.248,0,0,0,0,.337l.352.352a1.782,1.782,0,0,0-.205.484H1.535a.232.232,0,0,0-.235.235v.4a.232.232,0,0,0,.235.235h.5a1.782,1.782,0,0,0,.205.484l-.352.352a.248.248,0,0,0,0,.337l.264.293a.248.248,0,0,0,.337,0L2.84,5.3a1.782,1.782,0,0,0,.484.205v.5a.232.232,0,0,0,.235.235h.4a.232.232,0,0,0,.235-.235v-.5A1.782,1.782,0,0,0,4.672,5.3l.352.352a.248.248,0,0,0,.337,0l.279-.279a.248.248,0,0,0,0-.337l-.352-.352A1.782,1.782,0,0,0,5.494,4.2h.5a.232.232,0,0,0,.235-.235v-.4A.235.235,0,0,0,5.992,3.323ZM3.763,4.687a.924.924,0,1,1,.924-.924A.92.92,0,0,1,3.763,4.687Z" transform="translate(159.309 123.509)"/><path class="n" d="M5.992,3.323H5.508A1.782,1.782,0,0,0,5.3,2.84l.352-.352a.248.248,0,0,0,0-.337l-.279-.279a.248.248,0,0,0-.337,0l-.352.352A1.782,1.782,0,0,0,4.2,2.018V1.535A.232.232,0,0,0,3.969,1.3h-.4a.232.232,0,0,0-.235.235v.5a1.782,1.782,0,0,0-.484.205l-.367-.367a.248.248,0,0,0-.337,0l-.279.279a.248.248,0,0,0,0,.337l.352.352a1.782,1.782,0,0,0-.205.484H1.535a.232.232,0,0,0-.235.235v.4a.232.232,0,0,0,.235.235h.5a1.782,1.782,0,0,0,.205.484l-.352.352a.248.248,0,0,0,0,.337l.264.293a.248.248,0,0,0,.337,0L2.84,5.3a1.782,1.782,0,0,0,.484.205v.5a.232.232,0,0,0,.235.235h.4a.232.232,0,0,0,.235-.235v-.5A1.782,1.782,0,0,0,4.672,5.3l.352.352a.248.248,0,0,0,.337,0l.279-.279a.248.248,0,0,0,0-.337l-.352-.352A1.782,1.782,0,0,0,5.494,4.2h.5a.232.232,0,0,0,.235-.235v-.4A.235.235,0,0,0,5.992,3.323ZM3.763,4.687a.924.924,0,1,1,.924-.924A.92.92,0,0,1,3.763,4.687Z" transform="translate(143.517 154.074)"/><path class="n" d="M5.992,3.323H5.508A1.782,1.782,0,0,0,5.3,2.84l.352-.352a.248.248,0,0,0,0-.337l-.279-.279a.248.248,0,0,0-.337,0l-.352.352A1.782,1.782,0,0,0,4.2,2.018V1.535A.232.232,0,0,0,3.969,1.3h-.4a.232.232,0,0,0-.235.235v.5a1.782,1.782,0,0,0-.484.205l-.367-.367a.248.248,0,0,0-.337,0l-.279.279a.248.248,0,0,0,0,.337l.352.352a1.782,1.782,0,0,0-.205.484H1.535a.232.232,0,0,0-.235.235v.4a.232.232,0,0,0,.235.235h.5a1.782,1.782,0,0,0,.205.484l-.352.352a.248.248,0,0,0,0,.337l.264.293a.248.248,0,0,0,.337,0L2.84,5.3a1.782,1.782,0,0,0,.484.205v.5a.232.232,0,0,0,.235.235h.4a.232.232,0,0,0,.235-.235v-.5A1.782,1.782,0,0,0,4.672,5.3l.352.352a.248.248,0,0,0,.337,0l.279-.279a.248.248,0,0,0,0-.337l-.352-.352A1.782,1.782,0,0,0,5.494,4.2h.5a.232.232,0,0,0,.235-.235v-.4A.235.235,0,0,0,5.992,3.323ZM3.763,4.687a.924.924,0,1,1,.924-.924A.92.92,0,0,1,3.763,4.687Z" transform="translate(140.461 185.658)"/><path class="n" d="M5.992,3.323H5.508A1.782,1.782,0,0,0,5.3,2.84l.352-.352a.248.248,0,0,0,0-.337l-.279-.279a.248.248,0,0,0-.337,0l-.352.352A1.782,1.782,0,0,0,4.2,2.018V1.535A.232.232,0,0,0,3.969,1.3h-.4a.232.232,0,0,0-.235.235v.5a1.782,1.782,0,0,0-.484.205l-.367-.367a.248.248,0,0,0-.337,0l-.279.279a.248.248,0,0,0,0,.337l.352.352a1.782,1.782,0,0,0-.205.484H1.535a.232.232,0,0,0-.235.235v.4a.232.232,0,0,0,.235.235h.5a1.782,1.782,0,0,0,.205.484l-.352.352a.248.248,0,0,0,0,.337l.264.293a.248.248,0,0,0,.337,0L2.84,5.3a1.782,1.782,0,0,0,.484.205v.5a.232.232,0,0,0,.235.235h.4a.232.232,0,0,0,.235-.235v-.5A1.782,1.782,0,0,0,4.672,5.3l.352.352a.248.248,0,0,0,.337,0l.279-.279a.248.248,0,0,0,0-.337l-.352-.352A1.782,1.782,0,0,0,5.494,4.2h.5a.232.232,0,0,0,.235-.235v-.4A.235.235,0,0,0,5.992,3.323ZM3.763,4.687a.924.924,0,1,1,.924-.924A.92.92,0,0,1,3.763,4.687Z" transform="translate(148.612 216.733)"/><g transform="translate(149.279 249.107)"><ellipse class="n" cx="3.006" cy="3.006" rx="3.006" ry="3.006" transform="translate(0 0)"/><path class="n" d="M17.9,10.3v1.437h1.418" transform="translate(-14.743 -8.58)"/></g><g transform="translate(162.014 279.163)"><ellipse class="n" cx="3.006" cy="3.006" rx="3.006" ry="3.006" transform="translate(0 0)"/><path class="n" d="M17.9,10.3v1.437h1.418" transform="translate(-14.743 -8.58)"/></g><rect class="p" width="78.96" height="19.358" rx="9.679" transform="translate(126.846 314.823)"/><text class="c" transform="translate(145.695 325.917)"><tspan x="0" y="0">Add Item</tspan></text></g></svg>