<svg xmlns="http://www.w3.org/2000/svg" width="78.299" height="211.389" viewBox="0 0 78.299 211.389"><defs><style>.a{fill:#cfccdf;}.b{fill:#eebcc5;}.c{fill:#008de5;}.d{fill:#0a4e84;}.e{fill:#27c7ff;}.f{fill:#fff;}.g{fill:#efc260;}</style></defs><g transform="translate(57.194 31.112)"><path class="a" d="M153.872,272.773a5.449,5.449,0,0,1-3.375-9.73c.074-.058,8.969-7.286,8.064-15.666-1.194-11.034-5.43-24.733-5.473-24.871a5.451,5.451,0,0,1,10.409-3.239c.185.6,4.594,14.862,5.9,26.939,1.559,14.417-11.6,24.957-12.155,25.4A5.432,5.432,0,0,1,153.872,272.773Z" transform="translate(-148.419 -215.435)"/></g><g transform="translate(47.042 92.838)"><path class="b" d="M149.756,345.644l-5.775-47.03-1.15-41.9a8.44,8.44,0,0,1,9.47-7.226c4.609.621,4.262,6.155,3.644,10.765l1.649,38.365-1.237,46.618C156.866,349.855,150.23,349.953,149.756,345.644Z" transform="translate(-142.831 -249.413)"/></g><g transform="translate(26.536 96.997)"><path class="b" d="M144.341,351.975l-8.881-44.091-.042-49.143a8.422,8.422,0,0,1,16.615,2.769l-2.547,40.6.689,50c-6.825,13.592-17.381,9.644-18.628,7.49-.1-.171,1.833-.47,4.374-1.857C139.6,355.737,144.345,352.418,144.341,351.975Z" transform="translate(-131.543 -251.703)"/></g><path class="c" d="M152.087,306.874a7.73,7.73,0,0,0-5.428,2.714c-2.318,2.714-5.165,6.356-8.209,6.554s-4.3-2.383-1.986-3.245c0,0-5.363.133-6.422,1.457s2.229,5.566,6.885,5.693c4.832.132,7.083,0,7.879-.994.336-.421,3.8-5.864,4.1-5.826.412.053.926,7.813.926,7.813l.663-.067,1.455-6.885S155.53,309.455,152.087,306.874Z" transform="translate(-106.395 -109.652)"/><g transform="translate(52.492 185.993)"><path class="d" d="M151.01,300.715s-3.973-.133-4.9,2.647.728,4.634.926,6.356-1.126,2.516-.065,3.31,7.348.6,7.811.2-1.059-2.514-.53-3.575S157.432,302.171,151.01,300.715Z" transform="translate(-145.831 -300.675)"/><path class="c" d="M151.086,300.733h-.151s-6.489-.728-4.7,6.355c0,0,.663-2.516,2.318-2.449a1.5,1.5,0,0,1,1.522,1.655l.331,10.858h1.212l.331-10.858a1.5,1.5,0,0,1,1.522-1.655c1.655-.067,1.637,2.251,1.637,2.251C156.894,299.8,151.086,300.733,151.086,300.733Z" transform="translate(-145.756 -300.693)"/></g><path class="e" d="M132.946,251.953c-.574,12.415-.694,51.991,0,55.686.936,4.987,33.315,5.722,34.759,0,3.424-.518-1.237-35.891.412-38.777,1.813-3.174,2.113-5.659,2.358-9.3.24-3.579.187-7.962-1.055-10.783l-19.8-3.63C143.617,244.044,136.825,247.243,132.946,251.953Z" transform="translate(-104.25 -160.239)"/><path class="b" d="M132.769,214.611a15.122,15.122,0,1,0,15.123-15.123A15.122,15.122,0,0,0,132.769,214.611Z" transform="translate(-104.006 -197.345)"/><path class="f" d="M171.565,236.624s6.5-17.025-.429-21.81c-5.243-.572-11.67,2.461-11.67,2.461s-13.61,8.763-22.684,13.3c-4.571,2.285-1.363,13.263-1.214,24.237a89.843,89.843,0,0,1-2.8,21.634s14.1,6.048,21.656,5.544,16.635-4.033,15.627-7.561-5.544-16.635-3.528-21.171S171.565,236.624,171.565,236.624Z" transform="translate(-104.006 -184.888)"/><path class="b" d="M152.022,209.925l2.263,16.228h0a9.7,9.7,0,0,1-9.228,5.8l-1.864-.065-3.626-17.06Z" transform="translate(-98.454 -188.822)"/><path class="d" d="M137.29,219.98a3.145,3.145,0,0,1,4.79-2.461,4.077,4.077,0,0,1,1.092,4.367,11.95,11.95,0,0,1-2.512,4.035,70.068,70.068,0,0,0,15.385,7.768q3.384-4.9,6.767-9.806a15.9,15.9,0,0,0,2.527-4.725c1.068-3.938-.518-10.892-3.143-14.019-3.693-4.4-8.716-6.34-14.444-6.8-4.431-.358-9.8,2.7-12.669,6.155C131.3,209.046,135.521,215.088,137.29,219.98Z" transform="translate(-103.362 -198.308)"/><path class="d" d="M155.859,219.4a26.6,26.6,0,0,1,8.745,24.621,14.279,14.279,0,0,1-3.381,7.375,10.146,10.146,0,0,1-14.417-.4c-2.812-3.279-3.135-8-2.745-12.306.411-4.525,1.455-9,1.382-13.548-.04-2.452-.4-4.952.22-7.323.465-1.78,2.719-5.417,4.965-4.116.839.489,1.49,2.283,2.195,3.037A35.545,35.545,0,0,0,155.859,219.4Z" transform="translate(-94.894 -185.963)"/><path class="g" d="M146.351,216.643a5.458,5.458,0,0,0-2.193,2.151,1.125,1.125,0,0,0-.02,1.126,1.242,1.242,0,0,0,.718.387,8.186,8.186,0,0,0,6.887-1.373c1-.756,3.472-4.117,1.272-4.876C151.371,213.492,147.665,215.822,146.351,216.643Z" transform="translate(-94.838 -185.518)"/><ellipse class="b" cx="5.263" cy="5.263" rx="5.263" ry="5.263" transform="translate(27.817 88.202)"/><g transform="translate(0 45.051)"><path class="f" d="M143.257,276.578c-.22,0-.443-.011-.667-.033-2.663-.28-16.255-2.06-22.484-9.821a13.917,13.917,0,0,1-3.076-10.495c1.51-13.21,25.511-28.039,32.832-32.268a6.359,6.359,0,0,1,6.364,11.01c-13.67,7.909-26.083,18.517-26.561,22.7a1.251,1.251,0,0,0,.354,1.088c2.171,2.712,9.579,4.667,13.9,5.136a6.358,6.358,0,0,1-.667,12.68Z" transform="translate(-116.935 -223.108)"/></g></svg>