<svg xmlns="http://www.w3.org/2000/svg" xmlns:xlink="http://www.w3.org/1999/xlink" width="134.177" height="260.833" viewBox="0 0 134.177 260.833"><defs><style>.a{fill:#0a4e84;}.b{fill:#3e3577;}.c{fill:#008de5;}.d{fill:#27c7ff;}.e{fill:#eebcc5;}.f{fill:#efc260;}.g{clip-path:url(#a);}.h{clip-path:url(#b);}.i{clip-path:url(#c);}.j{clip-path:url(#d);}.k{clip-path:url(#e);}.l{fill:#fff;}.m{fill:#bce4f7;}.n{fill:#0c92e6;}</style><clipPath id="a"><path class="a" d="M224.905,221.722l-.685.4a.185.185,0,0,0,.048-.041l.687-.4A.156.156,0,0,1,224.905,221.722Z" transform="translate(-224.22 -221.679)"/></clipPath><clipPath id="b"><path class="a" d="M225.336,220.971l.687-.4a1.467,1.467,0,0,0-.421.37l-.687.4A1.484,1.484,0,0,1,225.336,220.971Z" transform="translate(-224.915 -220.572)"/></clipPath><clipPath id="c"><path class="a" d="M224.867,220.451l.687-.4a2.6,2.6,0,0,1,2.613.255l-.685.4A2.608,2.608,0,0,0,224.867,220.451Z" transform="translate(-224.867 -219.805)"/></clipPath><clipPath id="d"><path class="a" d="M232.5,226.264l-.685.4c.1-.06.133-.23.062-.429l.685-.4C232.635,226.034,232.605,226.2,232.5,226.264Z" transform="translate(-231.816 -225.835)"/></clipPath><clipPath id="e"><path class="a" d="M229.07,221.921l.687-.4A8.059,8.059,0,0,1,233,225.662l-.687.4A8.059,8.059,0,0,0,229.07,221.921Z" transform="translate(-229.07 -221.522)"/></clipPath></defs><g transform="translate(33.634 76.744)"><path class="b" d="M253.036,273.139c-.824.045-1.193,1.047-1.3,1.865a17.947,17.947,0,0,0-.143,3.109,3.6,3.6,0,0,0,.275,1.432,2.775,2.775,0,0,0,1.706,1.335,10.762,10.762,0,0,0,2.2.338c4.179.413,8.282,1.92,12.467,1.572a4.039,4.039,0,0,0,1.868-.512,1.7,1.7,0,0,0,.834-1.643c-.136-.738-.86-1.192-1.514-1.557a85.418,85.418,0,0,0-9.311-4.693,2.216,2.216,0,0,0-1.106-.233.786.786,0,0,0-.719.745,3.516,3.516,0,0,1-2.475.355,3.293,3.293,0,0,1-1.977-1.384C253.589,273.493,253.486,273.114,253.036,273.139Z" transform="translate(-203.056 -107.014)"/><path class="b" d="M242.548,275.728a.942.942,0,0,0-.859.463,2.589,2.589,0,0,0-.316.971,23.261,23.261,0,0,0-.338,3.334,1.862,1.862,0,0,0,.991,1.611,8.716,8.716,0,0,1,2.3,2.493,14.907,14.907,0,0,0,9.111,5.542,1.814,1.814,0,0,0,2.133-1.466,3.561,3.561,0,0,0-.009-1.125,6.573,6.573,0,0,0-1.2-2.635,13.747,13.747,0,0,0-3.257-3.274,10.1,10.1,0,0,0-6.658-6.166A2.091,2.091,0,0,0,242.548,275.728Z" transform="translate(-207.474 -106.081)"/><g transform="translate(47.746 71.709)"><path class="a" d="M256.715,304.074a5.753,5.753,0,0,1-.711-.044,5.677,5.677,0,0,1-4.928-6.336c.047-.365,4.567-36.552,5.455-46,.538-5.733.16-30.306-.03-39.291a5.676,5.676,0,0,1,11.35-.241c.028,1.347.691,33.041-.017,40.593-.9,9.623-5.306,44.852-5.493,46.348A5.677,5.677,0,0,1,256.715,304.074Z" transform="translate(-251.031 -206.606)"/></g><path class="c" d="M270.331,221.037s-8.222,4.582-14.618,4.828-9.839-1.23-9.839-1.23l-1.229-12.3,25-7.49Z" transform="translate(-205.961 -135.635)"/><g transform="translate(32.825 66.678)"><path class="c" d="M246.388,307.862a5.865,5.865,0,0,0,5.808-5.126c.21-1.656,5.139-40.684,5.139-51.685,0-10.8-1.747-41.178-1.822-42.465a5.863,5.863,0,0,0-11.706.675c.02.312,1.8,31.328,1.8,41.79,0,10.266-5,49.813-5.048,50.212a5.867,5.867,0,0,0,5.08,6.553A6.288,6.288,0,0,0,246.388,307.862Z" transform="translate(-240.516 -203.061)"/></g><path class="d" d="M238.548,183.676c4.357-6.4,22.459-8.908,26.858-9.708s5.193,5.6,5.953,12.941l3.636,25.568s3.833,8.98-1.855,11.025-28.846,6.179-31.112,2.046C241.471,224.534,236.967,186,238.548,183.676Z" transform="translate(-208.656 -148.604)"/><path class="e" d="M243.708,169.813a11.65,11.65,0,1,0,9.376-13.548A11.651,11.651,0,0,0,243.708,169.813Z" transform="translate(-206.433 -156.075)"/><path class="e" d="M258.157,166.282l-1.757,12.5h0a7.471,7.471,0,0,1-8.065,2.349l-1.367-.444.924-13.406Z" transform="translate(-204.987 -151.797)"/><path class="e" d="M242.793,167.7c.446,2.454,1.855,4.252,3.146,4.016s1.975-2.414,1.53-4.868-1.856-4.252-3.148-4.016S242.346,165.245,242.793,167.7Z" transform="translate(-206.794 -153.252)"/><path class="a" d="M253.038,156.265a11.648,11.648,0,0,1,11.984,5.33A16.728,16.728,0,0,1,258,164.558c-.9.175-9.3.536-9.207-.964a20.722,20.722,0,0,1-1.1,5.455,3.955,3.955,0,0,0-3.752-3.143c-.1,0-.2,0-.308,0A11.644,11.644,0,0,1,253.038,156.265Z" transform="translate(-206.387 -156.075)"/><g transform="translate(10.648 31.406)"><path class="d" d="M230.033,240.36a4.964,4.964,0,0,1-4.946-4.57,114.534,114.534,0,0,1,1.423-25.869c2.544-14.753,19.111-29.807,19.816-30.44a4.966,4.966,0,0,1,6.646,7.382c-4.088,3.69-15.048,15.326-16.672,24.745A105.542,105.542,0,0,0,234.989,235a4.965,4.965,0,0,1-4.554,5.347C230.3,240.356,230.165,240.36,230.033,240.36Z" transform="translate(-224.889 -178.206)"/></g><g transform="translate(10.65 67.666)"><path class="e" d="M230.031,229.65a4.964,4.964,0,0,1-4.944-4.568,110.443,110.443,0,0,1,.258-16.791,4.967,4.967,0,0,1,9.9.861,102.588,102.588,0,0,0-.253,15.14,4.969,4.969,0,0,1-4.56,5.342C230.3,229.644,230.163,229.65,230.031,229.65Z" transform="translate(-224.89 -203.757)"/></g><g transform="translate(52.482 25.494)"><path class="d" d="M281.457,204.4c-7.631,0-18.3-12.027-26.1-22.419a4.967,4.967,0,0,1,7.947-5.96c6.709,8.94,14.875,17.312,17.888,18.4,2.405-1.01,7.965-7.533,12.023-14.188A4.967,4.967,0,0,1,301.7,185.4c-3.183,5.229-11.411,17.536-19.068,18.9A6.6,6.6,0,0,1,281.457,204.4Z" transform="translate(-254.368 -174.04)"/></g><g transform="translate(74.909 29.305)"><path class="e" d="M275.133,203.255a4.967,4.967,0,0,1-.877-9.854c2.229-.532,8.109-7.341,12.339-14.29a4.966,4.966,0,1,1,8.485,5.164c-3.183,5.229-11.411,17.536-19.068,18.9A5.013,5.013,0,0,1,275.133,203.255Z" transform="translate(-270.172 -176.725)"/></g><g transform="translate(0 87.598)"><path class="c" d="M217.388,220.261l0,24.6,25.554,14.924,4.258-2.634V232.554L221.647,217.8Z" transform="translate(-217.385 -217.803)"/><path class="a" d="M217.4,230.105l25.551,14.752v-9.846l4.242-2.456L221.646,217.8l-4.259,2.458Z" transform="translate(-217.384 -217.803)"/><g transform="translate(10.092 17.205)"><path class="f" d="M226.426,230.19a4.229,4.229,0,0,1,1.917,3.321c0,1.22-.867,1.711-1.93,1.1a4.223,4.223,0,0,1-1.916-3.318C224.5,230.071,225.363,229.577,226.426,230.19Z" transform="translate(-224.497 -229.926)"/></g><g transform="translate(9.108 2.841)"><g transform="translate(0.591)"><g transform="translate(0 2.66)"><path class="a" d="M224.905,221.722l-.685.4a.185.185,0,0,0,.048-.041l.687-.4A.156.156,0,0,1,224.905,221.722Z" transform="translate(-224.22 -221.679)"/><g class="g"><path class="a" d="M224.268,222.079l.687-.4a.156.156,0,0,1-.05.043l-.685.4a.185.185,0,0,0,.048-.041" transform="translate(-224.22 -221.679)"/></g></g><g transform="translate(0.048 1.459)"><path class="a" d="M225.193,221.232l.686-.4-.939,1.2-.686.4Z" transform="translate(-224.254 -220.833)"/></g><g transform="translate(0.986 1.089)"><path class="a" d="M225.336,220.971l.687-.4a1.467,1.467,0,0,0-.421.37l-.687.4A1.484,1.484,0,0,1,225.336,220.971Z" transform="translate(-224.915 -220.572)"/><g class="h"><path class="a" d="M225.336,220.971l.687-.4a1.467,1.467,0,0,0-.421.37l-.687.4a1.484,1.484,0,0,1,.421-.37" transform="translate(-224.915 -220.572)"/></g></g><g transform="translate(0.918)"><path class="a" d="M224.867,220.451l.687-.4a2.6,2.6,0,0,1,2.613.255l-.685.4A2.608,2.608,0,0,0,224.867,220.451Z" transform="translate(-224.867 -219.805)"/><g class="i"><g transform="translate(0 0)"><path class="a" d="M224.867,220.419l.687-.4a1.751,1.751,0,0,1,.3-.139l-.687.4a1.853,1.853,0,0,0-.3.139" transform="translate(-224.867 -219.773)"/><path class="a" d="M225.079,220.3l.687-.4a2.113,2.113,0,0,1,.255-.07l-.685.4a2.2,2.2,0,0,0-.257.07" transform="translate(-224.778 -219.794)"/><path class="a" d="M225.26,220.24l.685-.4c.07-.013.139-.023.211-.03l-.687.4c-.072.007-.142.017-.21.03" transform="translate(-224.702 -219.802)"/><path class="a" d="M225.408,220.212l.687-.4c.061-.006.125-.009.189-.009l-.687.4c-.064,0-.126,0-.189.009" transform="translate(-224.64 -219.805)"/><path class="a" d="M225.541,220.2l.687-.4c.057,0,.115,0,.175.006l-.687.4c-.06,0-.118-.006-.174-.006" transform="translate(-224.585 -219.805)"/><path class="a" d="M225.664,220.208l.687-.4c.054,0,.109.01.165.017l-.687.4c-.055-.007-.111-.013-.165-.017" transform="translate(-224.533 -219.803)"/><path class="a" d="M225.78,220.22l.687-.4c.052.007.1.016.159.027l-.687.4c-.054-.011-.106-.02-.159-.027" transform="translate(-224.484 -219.798)"/><path class="a" d="M225.892,220.239l.687-.4c.05.009.1.021.153.034l-.687.4c-.051-.013-.1-.026-.153-.034" transform="translate(-224.437 -219.79)"/><path class="a" d="M226,220.263l.687-.4c.05.011.1.026.15.041l-.685.4c-.051-.016-.1-.03-.152-.041" transform="translate(-224.392 -219.78)"/><path class="a" d="M226.107,220.292l.685-.4c.05.014.1.031.149.048l-.685.4-.149-.048" transform="translate(-224.347 -219.768)"/><path class="a" d="M226.212,220.326l.685-.4c.05.017.1.035.148.055l-.685.4-.148-.057" transform="translate(-224.303 -219.754)"/><path class="a" d="M226.316,220.366l.685-.4c.05.02.1.041.148.062l-.687.4c-.05-.021-.1-.043-.146-.061" transform="translate(-224.26 -219.737)"/><path class="a" d="M226.419,220.409l.687-.4c.048.023.1.045.146.07l-.685.4-.148-.07" transform="translate(-224.217 -219.719)"/><path class="a" d="M226.523,220.458l.685-.4c.05.024.1.051.149.077l-.687.4c-.05-.027-.1-.054-.148-.078" transform="translate(-224.173 -219.699)"/><path class="a" d="M226.627,220.513l.687-.4.115.065-.685.4c-.038-.023-.078-.044-.116-.064" transform="translate(-224.129 -219.676)"/></g></g></g><g transform="translate(3.532 0.502)"><path class="a" d="M226.709,220.558l.686-.4,3.351,1.935-.686.4Z" transform="translate(-226.709 -220.159)"/></g><g transform="translate(10.779 8.557)"><path class="a" d="M232.5,226.264l-.685.4c.1-.06.133-.23.062-.429l.685-.4C232.635,226.034,232.605,226.2,232.5,226.264Z" transform="translate(-231.816 -225.835)"/><g class="j"><g transform="translate(0 -0.001)"><path class="a" d="M231.86,226.233l.686-.4.005.015-.686.4-.005-.015" transform="translate(-231.798 -225.835)"/><path class="a" d="M231.863,226.244l.687-.4.006.018-.687.4-.006-.018" transform="translate(-231.796 -225.83)"/><path class="a" d="M231.867,226.257l.687-.4.006.018-.687.4-.006-.018" transform="translate(-231.795 -225.825)"/><path class="a" d="M231.871,226.27l.687-.4,0,.018-.685.4-.006-.018" transform="translate(-231.793 -225.819)"/><path class="a" d="M231.875,226.283l.685-.4,0,.018-.685.4,0-.018" transform="translate(-231.791 -225.814)"/><path class="a" d="M231.878,226.3l.685-.4,0,.017-.687.4,0-.017" transform="translate(-231.79 -225.808)"/><path class="a" d="M231.88,226.308l.687-.4,0,.018-.687.4,0-.018" transform="translate(-231.789 -225.803)"/><path class="a" d="M231.882,226.321l.687-.4,0,.017-.687.4,0-.017" transform="translate(-231.788 -225.798)"/><path class="a" d="M231.884,226.333l.687-.4v.017l-.687.4v-.017" transform="translate(-231.787 -225.793)"/><path class="a" d="M231.885,226.345l.687-.4v.016l-.687.4v-.016" transform="translate(-231.787 -225.788)"/><path class="a" d="M231.886,226.356l.687-.4v.017l-.685.4v-.017" transform="translate(-231.787 -225.783)"/><path class="a" d="M231.887,226.368l.686-.4v.016l-.686.4v-.016" transform="translate(-231.786 -225.778)"/><path class="a" d="M231.887,226.379l.686-.4V226l-.686.4v-.016" transform="translate(-231.786 -225.773)"/><path class="a" d="M231.887,226.391l.686-.4v.016l-.686.4v-.016" transform="translate(-231.787 -225.769)"/><path class="a" d="M231.886,226.4l.687-.4,0,.017-.685.4V226.4" transform="translate(-231.787 -225.764)"/><path class="a" d="M231.886,226.414l.685-.4v.017l-.687.4,0-.017" transform="translate(-231.788 -225.759)"/><path class="a" d="M231.884,226.426l.687-.4,0,.017-.685.4,0-.017" transform="translate(-231.789 -225.754)"/><path class="a" d="M231.883,226.438l.685-.4,0,.018-.687.4.006-.018" transform="translate(-231.79 -225.749)"/><path class="a" d="M231.879,226.451l.687-.4-.007.018-.685.4.006-.018" transform="translate(-231.792 -225.743)"/><path class="a" d="M231.875,226.464l.685-.4-.009.02-.685.4.008-.02" transform="translate(-231.795 -225.738)"/><path class="a" d="M231.871,226.478l.685-.4-.013.024-.687.4.014-.024" transform="translate(-231.799 -225.732)"/><path class="a" d="M231.874,226.495l.687-.4a.179.179,0,0,1-.06.058l-.685.4a.19.19,0,0,0,.058-.058" transform="translate(-231.816 -225.725)"/></g></g></g><g transform="translate(10.13 6.576)"><path class="a" d="M231.358,224.837l.686-.4.712,1.981-.686.4Z" transform="translate(-231.358 -224.439)"/></g><g transform="translate(6.883 2.437)"><path class="a" d="M229.07,221.921l.687-.4A8.059,8.059,0,0,1,233,225.662l-.687.4A8.059,8.059,0,0,0,229.07,221.921Z" transform="translate(-229.07 -221.522)"/><g class="k"><path class="a" d="M229.07,221.921l.687-.4.036.021-.687.4-.035-.021" transform="translate(-229.07 -221.522)"/><path class="a" d="M229.1,221.936l.687-.4c.051.03.1.061.152.092l-.687.4c-.05-.031-.1-.062-.152-.092" transform="translate(-229.06 -221.516)"/><path class="a" d="M229.2,222l.687-.4.156.1-.687.4c-.051-.035-.1-.069-.156-.1" transform="translate(-229.015 -221.488)"/><path class="a" d="M229.312,222.074l.687-.4.159.112-.687.4c-.053-.038-.105-.075-.159-.112" transform="translate(-228.969 -221.458)"/><path class="a" d="M229.424,222.153l.687-.4c.054.041.108.081.16.123l-.685.4c-.054-.043-.108-.082-.162-.123" transform="translate(-228.922 -221.425)"/><path class="a" d="M229.538,222.24l.685-.4c.055.044.111.088.165.133l-.687.4c-.054-.047-.109-.091-.163-.135" transform="translate(-228.874 -221.388)"/><path class="a" d="M229.653,222.335l.687-.4c.055.047.111.1.165.145l-.687.4c-.054-.05-.109-.1-.165-.143" transform="translate(-228.826 -221.349)"/><path class="a" d="M229.769,222.436l.687-.4c.054.048.109.1.162.15l-.685.4c-.054-.051-.108-.1-.163-.15" transform="translate(-228.777 -221.306)"/><path class="a" d="M229.884,222.542l.685-.4c.054.051.1.1.157.155l-.687.4c-.051-.053-.1-.1-.156-.155" transform="translate(-228.729 -221.262)"/><path class="a" d="M229.994,222.651l.687-.4.15.157-.687.4c-.05-.054-.1-.106-.15-.159" transform="translate(-228.683 -221.216)"/><path class="a" d="M230.1,222.763l.687-.4.145.16-.687.4c-.048-.054-.1-.108-.145-.159" transform="translate(-228.638 -221.17)"/><path class="a" d="M230.2,222.875l.687-.4.141.165-.687.4c-.047-.055-.094-.111-.14-.165" transform="translate(-228.596 -221.122)"/><path class="a" d="M230.3,222.991l.687-.4c.047.058.1.116.142.176l-.687.4c-.047-.06-.094-.118-.142-.176" transform="translate(-228.554 -221.074)"/><path class="a" d="M230.4,223.115l.687-.4c.053.067.1.135.155.2l-.685.4c-.051-.068-.1-.136-.156-.2" transform="translate(-228.512 -221.022)"/><path class="a" d="M230.511,223.258l.685-.4c.075.1.148.2.219.309l-.685.4c-.071-.105-.145-.209-.219-.309" transform="translate(-228.466 -220.962)"/><path class="a" d="M230.665,223.476l.685-.4c.106.158.209.319.305.484l-.687.4c-.1-.165-.2-.326-.3-.484" transform="translate(-228.402 -220.87)"/><path class="a" d="M230.879,223.817l.687-.4c.06.1.118.206.173.309l-.687.4c-.055-.1-.114-.207-.173-.309" transform="translate(-228.312 -220.727)"/><path class="a" d="M231,224.035l.687-.4c.038.072.075.143.111.216l-.685.4c-.037-.071-.074-.143-.112-.216" transform="translate(-228.261 -220.636)"/><path class="a" d="M231.08,224.187l.685-.4c.033.064.062.126.092.19l-.687.4c-.03-.064-.06-.126-.091-.19" transform="translate(-228.228 -220.572)"/><path class="a" d="M231.144,224.321l.687-.4.081.177-.687.4c-.026-.06-.053-.118-.081-.177" transform="translate(-228.201 -220.516)"/><path class="a" d="M231.2,224.446l.687-.4c.026.058.05.116.075.175l-.687.4c-.024-.058-.05-.116-.075-.175" transform="translate(-228.177 -220.464)"/><path class="a" d="M231.254,224.569l.687-.4c.024.058.048.118.071.177l-.687.4c-.023-.06-.047-.119-.071-.177" transform="translate(-228.155 -220.412)"/><path class="a" d="M231.3,224.694l.687-.4.068.18-.687.4c-.021-.06-.044-.121-.068-.18" transform="translate(-228.134 -220.36)"/><path class="a" d="M231.352,224.821l.687-.4.008.024-.687.4-.008-.024" transform="translate(-228.114 -220.307)"/></g></g></g><g transform="translate(0 0.399)"><path class="a" d="M231.277,222.523a8.06,8.06,0,0,1,3.247,4.14l.712,1.981c.087.244.021.447-.148.451a.31.31,0,0,1-.16-.047.748.748,0,0,1-.305-.389l-.712-1.981a6.536,6.536,0,0,0-2.635-3.36l-3.352-1.934c-1.035-.6-2-.536-2.543.162l-.938,1.2a.219.219,0,0,1-.3.017.636.636,0,0,1-.18-.163.561.561,0,0,1-.112-.612l.939-1.2c.673-.86,1.858-.938,3.132-.2Z" transform="translate(-223.803 -220.086)"/></g></g></g><path class="l" d="M246.919,174.017A8.677,8.677,0,0,0,253.2,175.9c3.4-.555,3.694-2.7,3.694-2.7l.148,1.848,1.882,6.377-4.75-3.363-4.947,4.551-2.493-4.9Z" transform="translate(-205.086 -148.896)"/><g transform="translate(40.544 8.221)"><g transform="translate(8.028 2)"><path class="b" d="M258.829,167.205a4.093,4.093,0,0,1-3.863,3.928,3.492,3.492,0,0,1-3.345-3.928,4.093,4.093,0,0,1,3.863-3.928A3.492,3.492,0,0,1,258.829,167.205Z" transform="translate(-251.612 -163.277)"/><path class="m" d="M254.491,170.49a2.258,2.258,0,0,1-1.69-.715,3.171,3.171,0,0,1-.754-2.387,3.909,3.909,0,0,1,3.556-3.761,2.26,2.26,0,0,1,1.69.715,3.168,3.168,0,0,1,.752,2.385A3.909,3.909,0,0,1,254.491,170.49Z" transform="translate(-251.434 -163.13)"/></g><g transform="translate(14.75)"><path class="b" d="M263.338,165.8a4.016,4.016,0,0,1-3.729,3.928,3.47,3.47,0,0,1-3.251-3.928,4.014,4.014,0,0,1,3.728-3.928A3.47,3.47,0,0,1,263.338,165.8Z" transform="translate(-256.349 -161.868)"/><path class="m" d="M259.227,169.06a2.244,2.244,0,0,1-1.682-.712,3.151,3.151,0,0,1-.751-2.376,3.89,3.89,0,0,1,3.541-3.744,2.255,2.255,0,0,1,1.682.711,3.158,3.158,0,0,1,.748,2.376A3.889,3.889,0,0,1,259.227,169.06Z" transform="translate(-256.166 -161.717)"/></g><g transform="translate(0 3.466)"><path class="a" d="M253.993,167.481a.66.66,0,0,1-.165-.02l-7.328-1.753a.709.709,0,1,1,.331-1.379l7.327,1.753a.709.709,0,0,1-.165,1.4Z" transform="translate(-245.955 -164.311)"/></g></g></g><g transform="translate(0)"><path class="n" d="M197.5,132.417l53.418-30.047a2.1,2.1,0,0,1,1.9-.246,938.879,938.879,0,0,0,.383.128,1.922,1.922,0,0,1,.193.064c.064.018.128.038.192.064a1.787,1.787,0,0,1,.192.064q.1.028.192.064a1.934,1.934,0,0,1,.193.065,1.681,1.681,0,0,1,.192.064,1.6,1.6,0,0,1,.192.064,734.988,734.988,0,0,0,.383.128,1.616,1.616,0,0,1,.193.064c.064.018.128.038.192.064a1.512,1.512,0,0,1,.192.064,480063220458.195,480063220458.195,0,0,0,.383.128,1.813,1.813,0,0,1,.193.064q.1.028.192.064a1.782,1.782,0,0,1,.192.065,5634.7,5634.7,0,0,0,.383.128,1.617,1.617,0,0,1,.193.064,5634.9,5634.9,0,0,0,.383.128,1.508,1.508,0,0,1,.191.064,1.6,1.6,0,0,1,.193.064,1300.274,1300.274,0,0,0,.575.192,1.924,1.924,0,0,1,.193.064c1.245.342,2.1,2.051,2.1,4.616v48.577c0,3.627-1.707,7.578-3.813,8.825l-7.6,4.5v14.861l-.192-.172v.108l-.192-.172v.108l-.193-.172v.108l-.192-.172v.108l-.192-.172v.108l-.192-.172v.108l-.192-.173v.109l-.193-.173v.109l-.192-.173v.109l-.192-.173v.109l-.192-.173v.109l-.193-.173v.109l-.191-.173v.108l-.192-.172v.108l-.192-.172v.108l-.193-.172v.108l-.192-.172v.108l-.192-.172v.108l-.192-.172v.108l-.192-.173v.109l-.193-.173v.109l-.192-.173v.109l-.192-.173v.109l-.192-.173v.109l-.193-.173v.108l-.192-.172v.108l-.192-.172v.108l-.192-.172v.108l-.192-.172v.108l-.193-.172v.108l-.192-.172v.108l-6.271-5.635-34.933,18.3a2.1,2.1,0,0,1-1.9.247c-.065-.018-.129-.04-.193-.064s-.129-.04-.192-.064c-3.822-1.535-6.146-1.47-6.146-6.407V141.243C193.684,137.617,195.391,133.666,197.5,132.417Z" transform="translate(-193.684 -101.996)"/><g transform="translate(4.621 1.979)"><path class="l" d="M200.752,133.815,255.5,103.77c2.106-1.249,3.813.68,3.813,4.306v48.577c0,3.627-1.707,7.578-3.813,8.825l-7.6,4.5v14.861l-9.965-8.955-37.187,19.639c-2.1,1.249-3.812-.68-3.812-4.306V142.642C196.94,139.015,198.647,135.064,200.752,133.815Z" transform="translate(-196.94 -103.39)"/><g transform="translate(18.413 37.33)"><path class="c" d="M226.641,134.534c0,1.906.9,2.919,2,2.262s2-2.732,2-4.638-.9-2.919-2-2.263S226.641,132.628,226.641,134.534Z" transform="translate(-202.905 -129.695)"/><path class="c" d="M218.278,139.49c0,1.906.9,2.919,2,2.263s2-2.733,2-4.639-.9-2.918-2-2.262S218.278,137.584,218.278,139.49Z" transform="translate(-206.41 -127.618)"/><path class="c" d="M209.915,144.447c0,1.9.9,2.918,2,2.262s2.005-2.732,2.005-4.638-.9-2.919-2.005-2.263S209.915,142.541,209.915,144.447Z" transform="translate(-209.915 -125.541)"/></g></g></g></svg>