<svg xmlns="http://www.w3.org/2000/svg" xmlns:xlink="http://www.w3.org/1999/xlink" width="115.77" height="155.171" viewBox="0 0 115.77 155.171"><defs><style>.a{fill:#27c7ff;stroke:#fff;stroke-linecap:round;stroke-linejoin:round;stroke-width:4px;}.b{filter:url(#ai);}.c{filter:url(#ag);}.d{filter:url(#ae);}.e{filter:url(#ac);}.f{filter:url(#aa);}.g{filter:url(#y);}.h{filter:url(#w);}.i{filter:url(#u);}.j{filter:url(#s);}.k{filter:url(#q);}.l{filter:url(#o);}.m{filter:url(#m);}.n{filter:url(#k);}.o{filter:url(#i);}.p{filter:url(#g);}.q{filter:url(#e);}.r{filter:url(#c);}.s{filter:url(#a);}</style><filter id="a" x="56.225" y="19.654" width="59.512" height="87.646" filterUnits="userSpaceOnUse"><feOffset dy="3" input="SourceAlpha"/><feGaussianBlur stdDeviation="3" result="b"/><feFlood flood-opacity="0.161"/><feComposite operator="in" in2="b"/><feComposite in="SourceGraphic"/></filter><filter id="c" x="28.073" y="66.549" width="50.138" height="59.51" filterUnits="userSpaceOnUse"><feOffset dy="3" input="SourceAlpha"/><feGaussianBlur stdDeviation="3" result="d"/><feFlood flood-opacity="0.161"/><feComposite operator="in" in2="d"/><feComposite in="SourceGraphic"/></filter><filter id="e" x="28.08" y="57.18" width="31.377" height="40.755" filterUnits="userSpaceOnUse"><feOffset dy="3" input="SourceAlpha"/><feGaussianBlur stdDeviation="3" result="f"/><feFlood flood-opacity="0.161"/><feComposite operator="in" in2="f"/><feComposite in="SourceGraphic"/></filter><filter id="g" x="8.487" y="0" width="61.255" height="61.255" filterUnits="userSpaceOnUse"><feOffset dy="3" input="SourceAlpha"/><feGaussianBlur stdDeviation="3" result="h"/><feFlood flood-opacity="0.161"/><feComposite operator="in" in2="h"/><feComposite in="SourceGraphic"/></filter><filter id="i" x="56.208" y="10.26" width="31.375" height="40.75" filterUnits="userSpaceOnUse"><feOffset dy="3" input="SourceAlpha"/><feGaussianBlur stdDeviation="3" result="j"/><feFlood flood-opacity="0.161"/><feComposite operator="in" in2="j"/><feComposite in="SourceGraphic"/></filter><filter id="k" x="9.319" y="29.024" width="50.128" height="59.525" filterUnits="userSpaceOnUse"><feOffset dy="3" input="SourceAlpha"/><feGaussianBlur stdDeviation="3" result="l"/><feFlood flood-opacity="0.161"/><feComposite operator="in" in2="l"/><feComposite in="SourceGraphic"/></filter><filter id="m" x="18.746" y="29.049" width="50.125" height="40.75" filterUnits="userSpaceOnUse"><feOffset dy="3" input="SourceAlpha"/><feGaussianBlur stdDeviation="3" result="n"/><feFlood flood-opacity="0.161"/><feComposite operator="in" in2="n"/><feComposite in="SourceGraphic"/></filter><filter id="o" x="46.849" y="85.346" width="50.125" height="40.751" filterUnits="userSpaceOnUse"><feOffset dy="3" input="SourceAlpha"/><feGaussianBlur stdDeviation="3" result="p"/><feFlood flood-opacity="0.161"/><feComposite operator="in" in2="p"/><feComposite in="SourceGraphic"/></filter><filter id="q" x="75.02" y="57.165" width="40.75" height="50.125" filterUnits="userSpaceOnUse"><feOffset dy="3" input="SourceAlpha"/><feGaussianBlur stdDeviation="3" result="r"/><feFlood flood-opacity="0.161"/><feComposite operator="in" in2="r"/><feComposite in="SourceGraphic"/></filter><filter id="s" x="37.455" y="0.878" width="50.136" height="40.761" filterUnits="userSpaceOnUse"><feOffset dy="3" input="SourceAlpha"/><feGaussianBlur stdDeviation="3" result="t"/><feFlood flood-opacity="0.161"/><feComposite operator="in" in2="t"/><feComposite in="SourceGraphic"/></filter><filter id="u" x="56.4" y="57.236" width="31.377" height="40.755" filterUnits="userSpaceOnUse"><feOffset dy="3" input="SourceAlpha"/><feGaussianBlur stdDeviation="3" result="v"/><feFlood flood-opacity="0.161"/><feComposite operator="in" in2="v"/><feComposite in="SourceGraphic"/></filter><filter id="w" x="46.115" y="93.916" width="61.255" height="61.255" filterUnits="userSpaceOnUse"><feOffset dy="3" input="SourceAlpha"/><feGaussianBlur stdDeviation="3" result="x"/><feFlood flood-opacity="0.161"/><feComposite operator="in" in2="x"/><feComposite in="SourceGraphic"/></filter><filter id="y" x="28.274" y="104.162" width="31.375" height="40.75" filterUnits="userSpaceOnUse"><feOffset dy="3" input="SourceAlpha"/><feGaussianBlur stdDeviation="3" result="z"/><feFlood flood-opacity="0.161"/><feComposite operator="in" in2="z"/><feComposite in="SourceGraphic"/></filter><filter id="aa" x="56.41" y="66.622" width="50.128" height="59.525" filterUnits="userSpaceOnUse"><feOffset dy="3" input="SourceAlpha"/><feGaussianBlur stdDeviation="3" result="ab"/><feFlood flood-opacity="0.161"/><feComposite operator="in" in2="ab"/><feComposite in="SourceGraphic"/></filter><filter id="ac" x="28.267" y="113.532" width="50.136" height="40.761" filterUnits="userSpaceOnUse"><feOffset dy="3" input="SourceAlpha"/><feGaussianBlur stdDeviation="3" result="ad"/><feFlood flood-opacity="0.161"/><feComposite operator="in" in2="ad"/><feComposite in="SourceGraphic"/></filter><filter id="ae" x="37.49" y="29.046" width="50.133" height="59.51" filterUnits="userSpaceOnUse"><feOffset dy="3" input="SourceAlpha"/><feGaussianBlur stdDeviation="3" result="af"/><feFlood flood-opacity="0.161"/><feComposite operator="in" in2="af"/><feComposite in="SourceGraphic"/></filter><filter id="ag" x="0" y="47.829" width="59.512" height="87.646" filterUnits="userSpaceOnUse"><feOffset dy="3" input="SourceAlpha"/><feGaussianBlur stdDeviation="3" result="ah"/><feFlood flood-opacity="0.161"/><feComposite operator="in" in2="ah"/><feComposite in="SourceGraphic"/></filter><filter id="ai" x="0" y="47.829" width="40.75" height="50.125" filterUnits="userSpaceOnUse"><feOffset dy="3" input="SourceAlpha"/><feGaussianBlur stdDeviation="3" result="aj"/><feFlood flood-opacity="0.161"/><feComposite operator="in" in2="aj"/><feComposite in="SourceGraphic"/></filter></defs><g transform="translate(11 8.829)"><g class="s" transform="matrix(1, 0, 0, 1, -11, -8.83)"><path class="a" d="M777.872,304.982l0,0-37.51-37.51v18.755l28.133,28.133-9.381,9.381,9.378,9.378,9.383-9.383Z" transform="translate(-673.13 -239.82)"/></g><g class="r" transform="matrix(1, 0, 0, 1, -11, -8.83)"><path class="a" d="M720.085,301.242l28.138,28.133-9.378,9.378L720.091,320Z" transform="translate(-681.01 -226.69)"/></g><g class="q" transform="matrix(1, 0, 0, 1, -11, -8.83)"><path class="a" d="M729.468,294.5V313.25l-9.378-9.378Z" transform="translate(-681.01 -229.32)"/></g><g class="p" transform="matrix(1, 0, 0, 1, -11, -8.83)"><rect class="a" width="13.258" height="39.914" transform="translate(29.69 46.43) rotate(-135)"/></g><g class="o" transform="matrix(1, 0, 0, 1, -11, -8.83)"><path class="a" d="M749.723,260.7v18.749l-9.375-9.375Z" transform="translate(-673.14 -242.44)"/></g><g class="n" transform="matrix(1, 0, 0, 1, -11, -8.83)"><path class="a" d="M734.708,302.368l-9.375,9.375L706.6,293.014l-.025-18.8Z" transform="translate(-686.26 -237.19)"/></g><g class="m" transform="matrix(1, 0, 0, 1, -11, -8.83)"><path class="a" d="M722.743,274.237h18.751l-18.751,18.751-9.375-9.375Z" transform="translate(-683.62 -237.19)"/></g><g class="l" transform="matrix(1, 0, 0, 1, -11, -8.83)"><path class="a" d="M752.358,333.529H733.608l18.751-18.751,9.375,9.375Z" transform="translate(-675.76 -221.43)"/></g><g class="k" transform="matrix(1, 0, 0, 1, -11, -8.83)"><path class="a" d="M772.644,313.235V294.484l-18.751,18.751,9.375,9.375Z" transform="translate(-667.88 -229.32)"/></g><g class="j" transform="matrix(1, 0, 0, 1, -11, -8.83)"><path class="a" d="M745.6,253.96l9.375,9.375-9.375,9.375-18.761-18.761Z" transform="translate(-678.39 -245.07)"/></g><g class="i" transform="matrix(1, 0, 0, 1, -11, -8.83)"><path class="a" d="M740.486,313.291V294.536l9.377,9.378Z" transform="translate(-673.09 -229.3)"/></g><g class="h" transform="matrix(1, 0, 0, 1, -11, -8.83)"><rect class="a" width="13.258" height="39.914" transform="translate(86.17 102.74) rotate(45)"/></g><g class="g" transform="matrix(1, 0, 0, 1, -11, -8.83)"><path class="a" d="M720.23,347.08V328.33l9.375,9.375Z" transform="translate(-680.96 -216.17)"/></g><g class="f" transform="matrix(1, 0, 0, 1, -11, -8.83)"><path class="a" d="M740.493,310.67l9.375-9.375L768.6,320.024l.025,18.8Z" transform="translate(-673.08 -226.67)"/></g><g class="e" transform="matrix(1, 0, 0, 1, -11, -8.83)"><path class="a" d="M729.6,353.828l-9.375-9.375,9.375-9.375,18.761,18.761Z" transform="translate(-680.96 -213.55)"/></g><g class="d" transform="matrix(1, 0, 0, 1, -11, -8.83)"><path class="a" d="M736.245,274.234,755,292.989v18.755l-28.133-28.133Z" transform="translate(-678.38 -237.19)"/></g><g class="c" transform="matrix(1, 0, 0, 1, -11, -8.83)"><path class="a" d="M699.868,315.9l0,0,37.51,37.51V334.652l-28.133-28.133,9.381-9.381-9.378-9.378-9.383,9.383Z" transform="translate(-688.87 -231.93)"/></g><g class="b" transform="matrix(1, 0, 0, 1, -11, -8.83)"><path class="a" d="M699.869,297.136v18.751l18.751-18.751-9.375-9.375Z" transform="translate(-688.87 -231.93)"/></g></g></svg>