<svg xmlns="http://www.w3.org/2000/svg" width="125.552" height="160.147" viewBox="0 0 125.552 160.147"><defs><style>.a{fill:#d43e3e;}.b{fill:#fa7564;}.c{fill:#9cb5cc;}.d{fill:#d7e7f7;}.e{fill:#f8f9fc;}.f{fill:#012234;}.g{fill:#024462;}.h{fill:#025a82;}.i{fill:#a61d1d;}.j{fill:#e08910;}.k{fill:#f0a72e;}.l{fill:#ffca00;}</style></defs><g transform="translate(0)"><g transform="translate(64.494 22.62)"><path class="a" d="M415.489,387.154l-5.594-3.3,19.773-33.822,5.594,3.3Z" transform="translate(-409.896 -350.029)"/></g><g transform="translate(78.286)"><path class="a" d="M420.152,364.868l-5.588-3.3,21.879-19.193,5.6,3.3Z" transform="translate(-414.564 -342.372)"/></g><g transform="translate(37.466 56.442)"><path class="a" d="M406.331,367.669l-5.585-3.3,27.028-2.891,5.594,3.3Z" transform="translate(-400.746 -361.479)"/></g><g transform="translate(0 59.333)"><path class="a" d="M393.654,429.533l-5.591-3.306,37.465-63.77,5.585,3.3Z" transform="translate(-388.063 -362.457)"/></g><g transform="translate(5.591 3.303)"><path class="b" d="M468.24,362.683l21.888-19.193-5.908,28.347-5.978-3.445-22.447,38.386-27.054,2.908-34.78,59.229-4-2.32,37.46-63.775,27.037-2.888,19.773-33.822Z" transform="translate(-389.956 -343.49)"/></g></g><g transform="translate(20.84 38.1)"><g transform="translate(69.41)"><g transform="translate(0 10.348)"><path class="c" d="M435.39,431.355l-16.776-9.918.294-62.665,16.775,9.918Z" transform="translate(-418.614 -358.772)"/></g><g transform="translate(0.294)"><path class="d" d="M435.489,375.535l-16.775-9.918,18.232-10.348,16.775,9.921Z" transform="translate(-418.714 -355.269)"/></g><g transform="translate(16.775 9.921)"><path class="e" d="M442.82,358.628l-.294,62.656-18.232,10.354.294-62.665Z" transform="translate(-424.293 -358.628)"/></g></g><g transform="translate(46.27 37.549)"><g transform="translate(0 10.351)"><path class="f" d="M427.554,419.641l-16.772-9.918.176-38.239L427.73,381.4Z" transform="translate(-410.781 -371.484)"/></g><g transform="translate(0.176)"><path class="g" d="M427.614,388.244l-16.773-9.912,18.244-10.351,16.767,9.918Z" transform="translate(-410.841 -367.98)"/></g><g transform="translate(16.772 9.918)"><path class="h" d="M434.873,371.338l-.17,38.239-18.244,10.351.176-38.245Z" transform="translate(-416.459 -371.338)"/></g></g><g transform="translate(23.128 40.472)"><g transform="translate(0 10.362)"><path class="i" d="M419.723,430.827l-16.776-9.91.225-48.44,16.773,9.913Z" transform="translate(-402.947 -372.477)"/></g><g transform="translate(0.225)"><path class="a" d="M419.8,389.245l-16.772-9.913,18.25-10.362,16.772,9.921Z" transform="translate(-403.024 -368.97)"/></g><g transform="translate(16.775 9.921)"><path class="b" d="M427.1,372.328l-.222,48.439-18.249,10.351.222-48.437Z" transform="translate(-408.626 -372.328)"/></g></g><g transform="translate(0 75.073)"><g transform="translate(0 10.345)"><path class="j" d="M411.891,420.813,395.118,410.9l.127-26.714,16.767,9.918Z" transform="translate(-395.118 -384.184)"/></g><g transform="translate(0.127)"><path class="k" d="M411.928,400.946l-16.767-9.918,18.232-10.345,16.773,9.918Z" transform="translate(-395.161 -380.683)"/></g><g transform="translate(16.772 9.918)"><path class="l" d="M419.155,384.04l-.121,26.7L400.8,421.1l.121-26.711Z" transform="translate(-400.796 -384.04)"/></g></g></g></svg>