<svg xmlns="http://www.w3.org/2000/svg" xmlns:xlink="http://www.w3.org/1999/xlink" width="280.654" height="393.621" viewBox="0 0 280.654 393.621"><defs><style>.a{fill:url(#a);}.b{fill:url(#b);}.c{fill:#006ec6;}.d{fill:url(#c);}.e{fill:url(#d);}.f{fill:url(#e);}.g{fill:url(#f);}.h{fill:url(#g);}.i{fill:#34d1ff;}.j{fill:url(#h);}.k{fill:url(#i);}.l{fill:url(#j);}.m{fill:url(#k);}.n{fill:url(#l);}</style><linearGradient id="a" x1="0.5" y1="1" x2="0.5" gradientUnits="objectBoundingBox"><stop offset="0.105" stop-color="#00a8ff"/><stop offset="1" stop-color="#34d1ff"/></linearGradient><linearGradient id="b" x1="0.5" y1="0.837" x2="0.5" y2="-0.345" gradientUnits="objectBoundingBox"><stop offset="0.013" stop-color="#00a8ff"/><stop offset="1" stop-color="#34d1ff"/></linearGradient><linearGradient id="c" x1="0.5" y1="0.123" x2="0.5" y2="0.697" gradientUnits="objectBoundingBox"><stop offset="0.016" stop-color="#006ec6"/><stop offset="0.284" stop-color="#0078d0"/><stop offset="0.752" stop-color="#0095ed"/><stop offset="1" stop-color="#00a8ff"/></linearGradient><linearGradient id="d" y1="0.5" x2="1" y2="0.5" gradientUnits="objectBoundingBox"><stop offset="0" stop-color="#34d1ff"/><stop offset="0.31" stop-color="#30ceff"/><stop offset="0.564" stop-color="#26c6ff"/><stop offset="0.798" stop-color="#15b8ff"/><stop offset="1" stop-color="#00a8ff"/></linearGradient><linearGradient id="e" x1="0.5" y1="1" x2="0.5" gradientUnits="objectBoundingBox"><stop offset="0.105" stop-color="#00a8ff"/><stop offset="1" stop-color="#006ec6"/></linearGradient><linearGradient id="f" x1="0.5" x2="0.5" y2="1" gradientUnits="objectBoundingBox"><stop offset="0.11" stop-color="#00a8ff"/><stop offset="0.335" stop-color="#00a3fa"/><stop offset="0.578" stop-color="#0096ed"/><stop offset="0.83" stop-color="#0080d8"/><stop offset="1" stop-color="#006ec6"/></linearGradient><linearGradient id="g" x1="130.553" y1="-86.537" x2="130.553" y2="-85.87" xlink:href="#f"/><linearGradient id="h" x1="0.5" y1="0.971" x2="0.5" y2="0.029" gradientUnits="objectBoundingBox"><stop offset="0.016" stop-color="#006ec6"/><stop offset="0.283" stop-color="#0078d0"/><stop offset="0.751" stop-color="#0095ed"/><stop offset="0.998" stop-color="#00a8ff"/></linearGradient><linearGradient id="i" y1="0.5" x2="1" y2="0.5" gradientUnits="objectBoundingBox"><stop offset="0.016" stop-color="#00a8ff"/><stop offset="0.354" stop-color="#17baff"/><stop offset="0.743" stop-color="#2ccbff"/><stop offset="1" stop-color="#34d1ff"/></linearGradient><linearGradient id="j" x1="0.5" y1="0.209" x2="0.5" y2="1.484" gradientUnits="objectBoundingBox"><stop offset="0.013" stop-color="#00a8ff"/><stop offset="0.352" stop-color="#17baff"/><stop offset="0.742" stop-color="#2ccbff"/><stop offset="1" stop-color="#34d1ff"/></linearGradient><linearGradient id="k" x1="5.754" y1="-44.856" x2="5.754" y2="-45.856" xlink:href="#a"/><linearGradient id="l" x1="-15.668" y1="-131.656" x2="-15.668" y2="-130.989" xlink:href="#f"/></defs><g transform="translate(-130.55 -598.105)"><path class="a" d="M292.507,239.77l-.005-.006L180.233,127.5V183.63l84.2,84.2-28.077,28.077,28.067,28.067,28.083-28.083Z" transform="translate(118.6 526.953)"/><path class="b" d="M143.184,189.209l84.217,84.2-28.067,28.067L143.2,245.344Z" transform="translate(71.388 605.597)"/><path class="c" d="M171.26,176.88v56.134l-28.067-28.067Z" transform="translate(71.399 589.884)"/><rect class="d" width="39.681" height="119.463" transform="translate(186.49 710.637) rotate(-135)"/><path class="c" d="M208.269,115.133v56.117L180.21,143.192Z" transform="translate(118.572 511.199)"/><path class="e" d="M202.693,224.08l-28.059,28.059L118.58,196.084l-.075-56.258Z" transform="translate(39.938 542.667)"/><path class="f" d="M158.968,139.862l56.121,0L158.968,195.98,130.91,167.921Z" transform="translate(55.746 542.708)"/><path class="g" d="M224.015,270.063l-56.121,0,56.121-56.121L252.073,242Z" transform="translate(102.876 637.12)"/><path class="h" d="M261.083,232.981l0-56.121-56.121,56.121,28.059,28.059Z" transform="translate(150.118 589.859)"/><path class="i" d="M211.683,102.821l28.059,28.059-28.059,28.059-56.152-56.152Z" transform="translate(87.122 495.466)"/><path class="c" d="M180.463,233.088V176.954l28.067,28.067Z" transform="translate(118.894 589.979)"/><rect class="j" width="39.681" height="119.463" transform="translate(355.525 879.194) rotate(45)"/><path class="c" d="M143.449,294.825V238.707l28.059,28.059Z" transform="translate(71.726 668.674)"/><path class="k" d="M180.476,217.364l28.059-28.059,56.055,56.055.076,56.258Z" transform="translate(118.91 605.72)"/><path class="i" d="M171.5,307.156,143.439,279.1,171.5,251.039,227.65,307.19Z" transform="translate(71.713 684.388)"/><path class="l" d="M183.645,139.856l56.134,56.134v56.134l-84.2-84.2Z" transform="translate(87.181 542.704)"/><path class="m" d="M106.24,248.78l.005.005L218.515,361.054V304.92l-84.2-84.2,28.077-28.077-28.067-28.067L106.24,192.657Z" transform="translate(24.309 574.203)"/><path class="n" d="M106.244,192.633l0,56.121,56.121-56.121L134.3,164.574Z" transform="translate(24.309 574.203)"/></g></svg>