<svg xmlns="http://www.w3.org/2000/svg" width="97.118" height="206.907" viewBox="0 0 97.118 206.907"><defs><style>.a{fill:#035ba2;}.b{fill:#48cfff;}.c{fill:#27c7ff;}.d{fill:#008de5;}.e{fill:#f7f7fb;}.f{fill:#eebcc5;}.g{fill:#e2b354;}</style></defs><path class="a" d="M391.9,365.809c.886.05,1.284,1.128,1.4,2.009a19.444,19.444,0,0,1,.154,3.347,3.893,3.893,0,0,1-.3,1.543,2.983,2.983,0,0,1-1.837,1.437,11.48,11.48,0,0,1-2.364.365c-4.5.443-8.918,2.067-13.426,1.693a4.349,4.349,0,0,1-2.011-.552,1.827,1.827,0,0,1-.9-1.771c.147-.793.926-1.284,1.631-1.676,3.273-1.82,6.253-2.489,9.723-3.9.379-.154,2.087-1.7,2.494-1.646s-.2.633-.226,1.042a3.789,3.789,0,0,0,2.664.382,3.548,3.548,0,0,0,2.129-1.49C391.305,366.19,391.417,365.783,391.9,365.809Z" transform="translate(-345.768 -184.919)"/><path class="a" d="M403.279,372.793a1.009,1.009,0,0,1,.923.5,2.726,2.726,0,0,1,.341,1.044,24.829,24.829,0,0,1,.364,3.59,2,2,0,0,1-1.065,1.734,9.386,9.386,0,0,0-2.476,2.685,16.048,16.048,0,0,1-9.81,5.967,1.954,1.954,0,0,1-2.3-1.579,3.836,3.836,0,0,1,.009-1.212,7.061,7.061,0,0,1,1.3-2.838c.96-1.362,6.368-4.988,7.286-6,1.359-1.493,1.456-3.617,3.391-4.167A2.257,2.257,0,0,1,403.279,372.793Z" transform="translate(-336.995 -181.437)"/><path class="b" d="M381.573,363.433v7.414l.353.211a4.464,4.464,0,0,0,5.649-.917h0l.235-6.708Z" transform="translate(-341.031 -186.173)"/><path class="b" d="M400.249,376.553l.177-6.709h-4.708l.1,6.5S396.818,379.34,400.249,376.553Z" transform="translate(-333.561 -182.787)"/><g transform="translate(2.897 30.939)"><path class="c" d="M377.956,310.342c-4.662,0-12.022-4.308-20.6-24.826a5.348,5.348,0,0,1,9.867-4.131c3.208,7.654,7.841,15.434,10.455,17.755,3.227-3.4,9.555-15.646,14.383-28.049a5.348,5.348,0,0,1,9.969,3.877C388.272,310.342,380.508,310.342,377.956,310.342ZM376.8,299.889Zm1.736-.156Z" transform="translate(-356.938 -267.681)"/></g><g transform="translate(56.32 94.989)"><path class="d" d="M399.371,404.216a6.111,6.111,0,0,1-6.1-5.824c-.069-1.447-1.679-35.588-1.32-46.724.4-12.4.9-35.854.908-36.09a6.112,6.112,0,1,1,12.222.263c0,.235-.51,23.752-.911,36.221-.344,10.652,1.294,45.4,1.311,45.75a6.112,6.112,0,0,1-5.816,6.4C399.566,404.215,399.468,404.216,399.371,404.216Z" transform="translate(-391.898 -309.595)"/></g><g transform="translate(32.908 84.841)"><path class="d" d="M387.165,397.575a6.112,6.112,0,0,1-6.048-5.284c-.2-1.461-4.885-35.891-4.519-47.294.413-12.809,3.976-35.889,4.127-36.864a6.113,6.113,0,1,1,12.081,1.874c-.037.232-3.6,23.322-3.99,35.385-.278,8.616,3.09,35.581,4.412,45.243A6.113,6.113,0,0,1,388,397.518,6.212,6.212,0,0,1,387.165,397.575Z" transform="translate(-376.578 -302.954)"/></g><path class="d" d="M414.321,303.97l-2.613,25.5-33.1-7.642-.406-21.511S410.263,301.129,414.321,303.97Z" transform="translate(-342.813 -219.506)"/><path class="e" d="M394.82,268.835s4.387,1.224,4.8,2.245-2.858,5.715-6.326,8.265-7.532,26.774-7.532,26.774-2.162-28.305-2.06-34.937S394.82,268.835,394.82,268.835Z" transform="translate(-339.911 -236.852)"/><path class="c" d="M387.881,269.357s-7.451.746-7.824,8.57c-.31,6.516-1.655,36.022-2.1,45.715a5.58,5.58,0,0,0,2.5,4.922c4.49,2.974,13.7,8.507,19.711,8.234a43.768,43.768,0,0,0,14.16-2.982s.746-52.162-1.119-54.771-14.9-11.924-17.884-11.924S387.881,269.357,387.881,269.357Z" transform="translate(-342.941 -237.037)"/><path class="f" d="M379.281,261.7a11.946,11.946,0,1,0,12.667-11.178A11.946,11.946,0,0,0,379.281,261.7Z" transform="translate(-342.254 -245.814)"/><path class="e" d="M386.724,284.157l-3.894-14.143,2.478-2.094,11.766,2.141,1.99.615Z" transform="translate(-340.367 -236.615)"/><path class="f" d="M383.272,262.394l4.066,12.288h0a7.662,7.662,0,0,0,8.567.888h0a1.889,1.889,0,0,0,.935-2.127l-3.032-11.924Z" transform="translate(-340.133 -239.996)"/><path class="f" d="M391.525,260.03a3.636,3.636,0,1,0,3.855-3.4A3.635,3.635,0,0,0,391.525,260.03Z" transform="translate(-335.779 -242.583)"/><path class="e" d="M398.726,272s0-5.119-.911-5.461-2.616-1.137-2.616-1.137l.683,2.731s-2.5,2.616-5,2.957l-2.5.341-1.14,1.193-1.135-3.81-.8-2.275s-1.592-.113-1.82.455,2.388,10.011,2.388,10.011l3.186.569,4.436-1.82Z" transform="translate(-340.029 -237.943)"/><g transform="translate(60.865 20.213)"><path class="c" d="M420.248,301.315c-14.788,0-23.828-11.128-24.21-11.606a5.349,5.349,0,0,1,8.348-6.69c.133.162,5.822,6.933,14.589,7.553,1.308-3.626,1.822-14.161,1.087-24.169a5.348,5.348,0,0,1,10.666-.785c.582,7.894,1.331,26.916-4.247,33.021a7.935,7.935,0,0,1-5.741,2.673C420.576,301.313,420.411,301.315,420.248,301.315Z" transform="translate(-394.872 -260.662)"/></g><g transform="translate(0 37.065)"><path class="f" d="M362.062,285.37a5.351,5.351,0,0,1-4.674-2.741l-1.666-2.981a5.349,5.349,0,0,1,9.34-5.217l1.664,2.981a5.351,5.351,0,0,1-4.664,7.958Z" transform="translate(-355.042 -271.69)"/></g><path class="g" d="M402.7,261.668a2.961,2.961,0,0,0-2.135,1.06,3.156,3.156,0,0,0-.293,1.861q.06,1.263.121,2.527a.576.576,0,0,1-.714.07,1.438,1.438,0,0,1-.536-.581,9.644,9.644,0,0,1-.979-4.065c-.064-.712-.465-1.314-.321-2.013a8.614,8.614,0,0,1,.766-1.994,40.229,40.229,0,0,1-16.481.354,3.1,3.1,0,0,1-1.682-.7,2.653,2.653,0,0,1-.561-1,19.155,19.155,0,0,1-.032-6.705,4.691,4.691,0,0,1,2.981-2.673,9.8,9.8,0,0,1,4.1-.29c.87.089,9.156,2.451,15.133,4.175a4.716,4.716,0,0,1,2.6,7.174C403.881,260.016,403.157,261.063,402.7,261.668Z" transform="translate(-342.089 -247.434)"/><g transform="translate(87.031 10.395)"><path class="f" d="M413.523,261.366a1.527,1.527,0,0,1-1.528-1.528v-4.072a1.528,1.528,0,1,1,3.056,0v4.072A1.527,1.527,0,0,1,413.523,261.366Z" transform="translate(-411.995 -254.237)"/></g><g transform="translate(86.315 14.995)"><path class="f" d="M416.875,272.016a5.348,5.348,0,0,1-5.348-5.348V262.6a5.348,5.348,0,0,1,10.7,0v4.072A5.349,5.349,0,0,1,416.875,272.016Z" transform="translate(-411.527 -257.247)"/></g></svg>