<svg xmlns="http://www.w3.org/2000/svg" xmlns:xlink="http://www.w3.org/1999/xlink" width="115.422" height="206.727" viewBox="0 0 115.422 206.727"><defs><style>.a{fill:#0a4e84;}.b{fill:#48cfff;}.c{fill:#008de5;}.d{fill:#035ba2;}.e{fill:#f7f7fb;}.f{fill:#27c7ff;}.g{fill:#eebcc5;}.h{fill:#efc260;}.i{clip-path:url(#a);}.j{clip-path:url(#b);}.k{clip-path:url(#c);}.l{clip-path:url(#d);}.m{clip-path:url(#e);}</style><clipPath id="a"><path class="a" d="M.734.045,0,.472A.162.162,0,0,0,.052.426L.786,0A.18.18,0,0,1,.734.045Z"/></clipPath><clipPath id="b"><path class="a" d="M.449.426,1.183,0A1.568,1.568,0,0,0,.733.4L0,.822A1.584,1.584,0,0,1,.449.426Z"/></clipPath><clipPath id="c"><path class="a" d="M0,.69.733.264A2.784,2.784,0,0,1,3.527.537L2.793.964A2.781,2.781,0,0,0,0,.69Z"/></clipPath><clipPath id="d"><path class="a" d="M.733.46,0,.886C.111.821.143.639.067.428L.8,0C.875.212.843.394.733.46Z"/></clipPath><clipPath id="e"><path class="a" d="M0,.426.734,0A8.615,8.615,0,0,1,4.205,4.425l-.734.426A8.608,8.608,0,0,0,0,.426Z"/></clipPath></defs><g transform="translate(0 -2.287)"><g transform="translate(10.867 0) rotate(3)"><g transform="translate(10.543 0)"><path class="a" d="M1.56,0C.679.05.285,1.119.168,1.995A19.3,19.3,0,0,0,.016,5.317,3.862,3.862,0,0,0,.31,6.849,2.965,2.965,0,0,0,2.134,8.275a11.407,11.407,0,0,0,2.348.362c4.468.441,8.853,2.053,13.327,1.681a4.318,4.318,0,0,0,2-.548,1.81,1.81,0,0,0,.89-1.758c-.144-.787-.918-1.274-1.619-1.663C15.83,4.542,12.871,3.877,9.426,2.48,9.048,2.327,7.352.792,6.949.846s.2.63.225,1.035a3.761,3.761,0,0,1-2.644.379A3.52,3.52,0,0,1,2.416.781C2.152.379,2.041-.026,1.56,0Z" transform="translate(48.422 178.473)"/><path class="a" d="M1.616.389A1,1,0,0,0,.7.885,2.733,2.733,0,0,0,.362,1.923,24.6,24.6,0,0,0,0,5.485,1.987,1.987,0,0,0,1.058,7.207,9.32,9.32,0,0,1,3.516,9.873,15.937,15.937,0,0,0,13.255,15.8a1.942,1.942,0,0,0,2.282-1.567,3.9,3.9,0,0,0-.009-1.2,7.029,7.029,0,0,0-1.289-2.817C13.287,8.857,7.918,5.257,7,4.254,5.658,2.772,5.559.664,3.638.117A2.246,2.246,0,0,0,1.616.389Z" transform="translate(28.363 188.472)"/><path class="b" d="M6.194,0V7.362l-.352.208A4.432,4.432,0,0,1,.234,6.66h0L0,0Z" transform="translate(49.341 174.868)"/><path class="b" d="M.176,6.66,0,0H4.674l-.1,6.455S3.582,9.428.176,6.66Z" transform="translate(29.403 184.594)"/><g transform="translate(48.084 30.714)"><path class="c" d="M24.261,42.351c-2.533,0-10.243,0-23.9-35.115a5.31,5.31,0,1,1,9.9-3.85c4.792,12.315,11.074,24.47,14.28,27.845,2.6-2.3,7.2-10.026,10.376-17.623a5.31,5.31,0,1,1,9.8,4.1C36.193,38.076,28.89,42.351,24.261,42.351Zm-.578-10.53Z" transform="translate(0 0)"/></g><g transform="translate(26.683 94.301)"><path class="d" d="M6.074,93.932c-.1,0-.2,0-.293-.008A6.065,6.065,0,0,1,.007,87.577c.015-.347,1.643-34.845,1.3-45.418C.91,29.778.409,6.433.4,6.2A6.068,6.068,0,1,1,12.538,5.94c0,.234.5,23.514.9,35.828C13.8,52.822,12.2,86.714,12.13,88.152A6.069,6.069,0,0,1,6.074,93.932Z" transform="translate(0 0)"/></g><g transform="translate(46.83 84.227)"><path class="d" d="M6.075,93.933a5.938,5.938,0,0,1-.83-.058A6.066,6.066,0,0,1,.057,87.041c1.311-9.592,4.654-36.363,4.378-44.915C4.048,30.143.51,7.23.474,7A6.068,6.068,0,0,1,12.468,5.14c.15.968,3.688,23.881,4.1,36.6.366,11.322-4.287,45.5-4.486,46.951A6.069,6.069,0,0,1,6.075,93.933Z" transform="translate(0 0)"/></g><path class="d" d="M0,3.627,2.594,28.94l32.863-7.585L35.861,0S4.029.806,0,3.627Z" transform="translate(25.096 80.224)"/><path class="e" d="M4.795,1.352S.439,2.568.034,3.581s2.837,5.672,6.28,8.206,7.477,26.578,7.477,26.578,2.147-28.1,2.045-34.682S4.795,1.352,4.795,1.352Z" transform="translate(36.779 30.399)"/><path class="f" d="M26.409,2.219s7.4.74,7.767,8.508c.308,6.467,1.641,35.761,2.08,45.383A5.537,5.537,0,0,1,33.771,61c-4.457,2.952-13.6,8.447-19.57,8.175A43.448,43.448,0,0,1,.146,66.211s-.74-51.785,1.11-54.375S16.052,0,19.01,0,26.409,2.219,26.409,2.219Z" transform="translate(25.062 29.866)"/><path class="g" d="M23.7,11.119A11.859,11.859,0,1,1,11.12.023,11.859,11.859,0,0,1,23.7,11.119Z" transform="translate(35.631 4.655)"/><path class="g" d="M13.527.871l-4.038,12.2h0a7.6,7.6,0,0,1-8.5.88h0a1.873,1.873,0,0,1-.928-2.11L3.066,0Z" transform="translate(39.732 21.364)"/><path class="g" d="M7.213,3.386A3.61,3.61,0,1,1,3.386.007,3.61,3.61,0,0,1,7.213,3.386Z" transform="translate(33.531 13.934)"/><path class="e" d="M0,6.549s0-5.082.9-5.42S3.5,0,3.5,0L2.823,2.709s2.485,2.6,4.968,2.937l2.485.338,1.13,1.185,1.129-3.782.79-2.259s1.581-.112,1.807.452-2.371,9.938-2.371,9.938L9.6,12.083l-4.4-1.807Z" transform="translate(37.815 27.264)"/><path class="e" d="M1.573,1.176S-.141,2.168.009,2.47,4.042,13.2,4.042,13.2l7.711,20.815,2.62-11.038L15.13,7.963s3.527-2.722.957-5.341L13.517,0,11.249,4.638Z" transform="translate(38.217 32.028)"/><path class="g" d="M1.7,0,0,4.462,1.129,7.737l1.355-.226L3.84,3.9Z" transform="translate(47.527 34.433)"/><path class="g" d="M3.727,26.921S5.777,8.7,5.551,7.341,3.067,0,3.067,0L1.711.226l-.1.194L0,8.28Z" transform="translate(46.944 41.944)"/><path class="c" d="M.017,39.64,4.233,16.625,3.023,12.9S6.651,6.851,6.147,5.844,2.016,0,2.016,0l-.5,2.318a37.162,37.162,0,0,1,.6,3.929C2.116,7.154.907,23.981.705,25.19S0,34.459,0,34.459Z" transform="translate(50.672 29.972)"/><path class="c" d="M3.321,0,0,5.273S3.885,7.905,3.885,8.356s.226,8.245.226,8.583S15.968,39.751,15.968,39.751s-4.025-23.4-4.589-24.759S4.337,4.4,4.337,4.4Z" transform="translate(34.72 29.861)"/><g transform="translate(0 40.282)"><path class="c" d="M20.248,57.668A5.3,5.3,0,0,1,15.962,55.5C13.727,52.451,2.474,36.89.373,29.749-.392,27.147-2.722,19.227,27.592.775a5.309,5.309,0,0,1,5.522,9.07c-10.5,6.4-20.53,14.381-22.288,17.664,1.776,4.5,8.893,15.154,13.7,21.709a5.31,5.31,0,0,1-4.276,8.45Z" transform="translate(0 0)"/></g><g transform="translate(15.627 88.818)"><path class="g" d="M7.037,13.541a5.31,5.31,0,0,1-4.578-2.612L.737,8.008a5.31,5.31,0,0,1,9.146-5.4L11.6,5.532a5.311,5.311,0,0,1-4.568,8.008Z" transform="translate(0 0)"/></g><g transform="translate(83.81 36.799)"><path class="g" d="M5.3,13.577a5.31,5.31,0,0,1-4.628-7.9L2.329,2.717A5.31,5.31,0,0,1,11.6,7.9l-1.654,2.96A5.31,5.31,0,0,1,5.3,13.577Z" transform="translate(0 0)"/></g><path class="a" d="M2.755,14.131a2.942,2.942,0,0,1,2.119,1.053,3.132,3.132,0,0,1,.291,1.848q-.059,1.254-.12,2.509a.574.574,0,0,0,.707.07,1.426,1.426,0,0,0,.532-.576A9.559,9.559,0,0,0,7.259,15c.062-.705.461-1.3.319-2a8.517,8.517,0,0,0-.76-1.978,39.911,39.911,0,0,0,16.361.35,3.057,3.057,0,0,0,1.67-.7,2.637,2.637,0,0,0,.557-.989,19.026,19.026,0,0,0,.032-6.658A4.655,4.655,0,0,0,22.477.373,9.7,9.7,0,0,0,18.409.085c-.863.088-9.09,2.432-15.023,4.145A4.681,4.681,0,0,0,.808,11.352C1.58,12.49,2.3,13.529,2.755,14.131Z" transform="translate(33.161 0)"/></g><g transform="translate(0 162.755)"><path class="f" d="M0,2.628,0,28.921,27.318,44.875,31.87,42.06V15.77L4.556,0Z" transform="translate(0 0)"/><path class="d" d="M.019,13.151,27.333,28.921V18.4l4.534-2.626L15.855,6.525,4.553,0,0,2.628Z" transform="translate(0.003 0)"/><g transform="translate(10.788 18.392)"><path class="h" d="M2.062.282a4.517,4.517,0,0,1,2.05,3.55c0,1.3-.927,1.83-2.063,1.174A4.514,4.514,0,0,1,0,1.459C0,.154.927-.374,2.062.282Z" transform="translate(0 0)"/></g><g transform="translate(9.736 3.038)"><g transform="translate(0.632 0)"><g transform="translate(0)"><g transform="translate(0 2.843)"><path class="a" d="M.734.045,0,.472A.162.162,0,0,0,.052.426L.786,0A.18.18,0,0,1,.734.045Z" transform="translate(0 0)"/><g class="i" transform="translate(0 0)"><path class="a" d="M.052.426.786,0A.18.18,0,0,1,.734.045L0,.472A.162.162,0,0,0,.052.426"/></g></g><g transform="translate(0.052 1.56)"><path class="a" d="M1,.426,1.737,0l-1,1.284L0,1.71Z" transform="translate(0 0)"/></g><g transform="translate(1.056 1.164)"><path class="a" d="M.449.426,1.183,0A1.568,1.568,0,0,0,.733.4L0,.822A1.584,1.584,0,0,1,.449.426Z" transform="translate(0 0)"/><g class="j" transform="translate(0 0)"><path class="a" d="M.449.426,1.183,0A1.568,1.568,0,0,0,.733.4L0,.822a1.584,1.584,0,0,1,.449-.4"/></g></g><g transform="translate(0.983 0)"><path class="a" d="M0,.69.733.264A2.784,2.784,0,0,1,3.527.537L2.793.964A2.781,2.781,0,0,0,0,.69Z" transform="translate(0 0)"/><g class="k" transform="translate(0 0)"><g transform="translate(0 0)"><path class="a" d="M0,.575.733.149A1.931,1.931,0,0,1,1.054,0L.322.426A1.877,1.877,0,0,0,0,.575" transform="translate(0 0.115)"/><path class="a" d="M0,.5.733.074A2.067,2.067,0,0,1,1.006,0L.273.426A2.252,2.252,0,0,0,0,.5" transform="translate(0.322 0.041)"/><path class="a" d="M0,.458.733.032C.807.018.881.008.959,0L.225.426C.149.434.073.444,0,.458" transform="translate(0.595 0.009)"/><path class="a" d="M0,.435.734.009C.8,0,.868,0,.936,0L.2.426c-.068,0-.135,0-.2.009" transform="translate(0.819 0)"/><path class="a" d="M0,.426.734,0C.795,0,.857,0,.921.006L.187.432C.124.428.062.426,0,.426" transform="translate(1.021 0)"/><path class="a" d="M0,.426.734,0C.792,0,.851.011.91.018L.176.444C.117.437.058.431,0,.426" transform="translate(1.208 0.006)"/><path class="a" d="M0,.426.734,0C.79.008.846.017.9.027L.17.454C.114.443.056.434,0,.426" transform="translate(1.384 0.024)"/><path class="a" d="M0,.426.734,0Q.816.016.9.036L.165.464C.109.449.055.437,0,.426" transform="translate(1.553 0.052)"/><path class="a" d="M0,.428.733,0C.786.014.84.029.9.045L.161.472C.106.455.053.44,0,.428" transform="translate(1.719 0.088)"/><path class="a" d="M0,.426.734,0c.052.015.1.033.158.052L.159.478C.106.46.053.441,0,.426" transform="translate(1.88 0.134)"/><path class="a" d="M0,.426.733,0C.786.018.839.038.89.059L.158.485C.1.464.052.444,0,.426" transform="translate(2.039 0.185)"/><path class="a" d="M0,.426.733,0c.053.021.1.044.158.067L.156.493,0,.426" transform="translate(2.197 0.244)"/><path class="a" d="M0,.426.734,0,.892.074.158.5,0,.426" transform="translate(2.353 0.311)"/><path class="a" d="M0,.426.734,0c.052.026.1.053.158.082L.159.508Q.08.465,0,.426" transform="translate(2.511 0.385)"/><path class="a" d="M0,.426.733,0,.857.07.123.5C.082.472.041.449,0,.426" transform="translate(2.67 0.467)"/></g></g></g><g transform="translate(3.776 0.537)"><path class="a" d="M0,.426.734,0,4.316,2.068l-.734.426Z" transform="translate(0 0)"/></g><g transform="translate(11.523 9.146)"><path class="a" d="M.733.46,0,.886C.111.821.143.639.067.428L.8,0C.875.212.843.394.733.46Z" transform="translate(0 0)"/><g class="l" transform="translate(0 0)"><g transform="translate(0 0.001)"><path class="a" d="M0,.426.734,0,.739.016.006.442,0,.426" transform="translate(0.066 0)"/><path class="a" d="M0,.426.734,0,.74.02.008.446,0,.426" transform="translate(0.071 0.016)"/><path class="a" d="M0,.426.733,0,.739.02,0,.446l0-.02" transform="translate(0.079 0.036)"/><path class="a" d="M0,.426.734,0l0,.02L.006.446,0,.426" transform="translate(0.083 0.055)"/><path class="a" d="M0,.426.733,0l0,.018L0,.446l0-.02" transform="translate(0.09 0.075)"/><path class="a" d="M0,.428.733,0l0,.02L0,.446,0,.428" transform="translate(0.094 0.093)"/><path class="a" d="M0,.426.734,0l0,.02L0,.446l0-.02" transform="translate(0.097 0.113)"/><path class="a" d="M0,.426.734,0l0,.018L0,.445,0,.426" transform="translate(0.1 0.133)"/><path class="a" d="M0,.426.734,0l0,.018L0,.445,0,.426" transform="translate(0.103 0.151)"/><path class="a" d="M0,.426.734,0l0,.017L0,.443,0,.426" transform="translate(0.105 0.169)"/><path class="a" d="M0,.426.734,0l0,.018L0,.444,0,.426" transform="translate(0.106 0.186)"/><path class="a" d="M0,.426.734,0V.017L0,.444V.426" transform="translate(0.108 0.204)"/><path class="a" d="M0,.426.734,0V.018L0,.444V.426" transform="translate(0.108 0.221)"/><path class="a" d="M0,.426.735,0V.017L0,.444V.426" transform="translate(0.106 0.239)"/><path class="a" d="M0,.426.736,0l0,.018L0,.444,0,.426" transform="translate(0.105 0.256)"/><path class="a" d="M0,.426.737,0l0,.018L0,.445,0,.426" transform="translate(0.102 0.274)"/><path class="a" d="M0,.426.737,0l0,.018L0,.445,0,.426" transform="translate(0.099 0.292)"/><path class="a" d="M.006.426.739,0l0,.018L0,.446.006.426" transform="translate(0.093 0.31)"/><path class="a" d="M.006.428.74,0,.734.021,0,.448.006.428" transform="translate(0.086 0.328)"/><path class="a" d="M.009.426.743,0,.734.021,0,.447.009.426" transform="translate(0.077 0.35)"/><path class="a" d="M.014.426.748,0,.733.026,0,.452.014.426" transform="translate(0.064 0.371)"/><path class="a" d="M.064.426.8,0A.192.192,0,0,1,.733.062L0,.488A.191.191,0,0,0,.064.426" transform="translate(0 0.397)"/></g></g></g><g transform="translate(10.829 7.029)"><path class="a" d="M0,.426.734,0l.761,2.118-.734.426Z" transform="translate(0 0)"/></g><g transform="translate(7.358 2.605)"><path class="a" d="M0,.426.734,0A8.615,8.615,0,0,1,4.205,4.425l-.734.426A8.608,8.608,0,0,0,0,.426Z" transform="translate(0 0)"/><g class="m" transform="translate(0 0)"><path class="a" d="M0,.426.734,0,.772.023.038.449,0,.426"/><path class="a" d="M0,.426.734,0C.789.032.843.065.9.1L.164.525C.109.492.055.458,0,.426" transform="translate(0.038 0.023)"/><path class="a" d="M0,.426.733,0C.789.036.845.073.9.111L.165.537C.111.5.055.463,0,.426" transform="translate(0.202 0.121)"/><path class="a" d="M0,.426.734,0C.79.038.848.079.9.12L.17.546C.114.505.058.466,0,.426" transform="translate(0.367 0.232)"/><path class="a" d="M0,.426.734,0Q.821.064.907.132L.173.558Q.086.49,0,.426" transform="translate(0.537 0.352)"/><path class="a" d="M0,.426.734,0C.792.047.851.094.909.143L.174.569C.117.52.059.473,0,.426" transform="translate(0.71 0.484)"/><path class="a" d="M0,.426.734,0C.793.05.853.1.91.155L.177.581Q.089.5,0,.426" transform="translate(0.884 0.627)"/><path class="a" d="M0,.426.733,0C.792.052.85.106.907.161L.173.587C.115.532.058.478,0,.426" transform="translate(1.062 0.781)"/><path class="a" d="M0,.426.734,0C.79.055.846.109.9.165L.168.592C.112.536.056.481,0,.426" transform="translate(1.235 0.942)"/><path class="a" d="M0,.426.733,0C.787.056.84.112.894.168L.159.595,0,.426" transform="translate(1.403 1.107)"/><path class="a" d="M0,.426.734,0c.052.056.1.114.155.171L.155.6C.1.54.053.482,0,.426" transform="translate(1.563 1.276)"/><path class="a" d="M0,.426.734,0l.15.176L.15.6C.1.543.052.484,0,.426" transform="translate(1.717 1.447)"/><path class="a" d="M0,.426.734,0c.052.062.1.124.152.188L.152.614C.1.551.052.488,0,.426" transform="translate(1.867 1.623)"/><path class="a" d="M0,.426.734,0C.79.071.847.143.9.217L.167.643C.112.57.056.5,0,.426" transform="translate(2.019 1.811)"/><path class="a" d="M0,.426.733,0c.08.108.159.218.235.331L.234.757C.158.645.079.534,0,.426" transform="translate(2.186 2.028)"/><path class="a" d="M0,.426.734,0c.112.168.221.341.325.517L.326.944C.221.768.114.595,0,.426" transform="translate(2.42 2.359)"/><path class="a" d="M0,.426.733,0C.8.109.859.22.918.331L.185.757C.124.646.064.535,0,.426" transform="translate(2.746 2.876)"/><path class="a" d="M0,.426.733,0c.041.077.08.153.12.231L.118.657C.08.58.039.5,0,.426" transform="translate(2.931 3.207)"/><path class="a" d="M0,.426.734,0C.768.068.8.135.831.2L.1.63C.067.561.033.494,0,.426" transform="translate(3.049 3.438)"/><path class="a" d="M0,.426.733,0c.03.062.059.126.086.19L.085.616C.058.552.029.49,0,.426" transform="translate(3.148 3.641)"/><path class="a" d="M0,.426.734,0c.027.061.055.124.08.187L.08.613C.055.551.027.488,0,.426" transform="translate(3.233 3.83)"/><path class="a" d="M0,.426.734,0C.76.062.786.126.81.19L.076.616C.052.552.026.488,0,.426" transform="translate(3.313 4.017)"/><path class="a" d="M0,.426.734,0C.759.064.783.127.807.193L.073.619C.05.555.026.49,0,.426" transform="translate(3.389 4.207)"/><path class="a" d="M0,.426.734,0,.743.026.009.452,0,.426" transform="translate(3.462 4.399)"/></g></g></g></g><g transform="translate(0 0.426)"><path class="a" d="M7.989,2.6A8.607,8.607,0,0,1,11.46,7.03l.762,2.118c.094.261.023.478-.158.482a.331.331,0,0,1-.171-.05.806.806,0,0,1-.326-.416L10.8,7.045A6.99,6.99,0,0,0,7.988,3.454L4.4,1.387C3.3.748,2.27.813,1.688,1.56l-1,1.283c-.07.09-.191.091-.316.02a.7.7,0,0,1-.193-.174.6.6,0,0,1-.12-.654l1-1.282c.719-.919,1.986-1,3.348-.215Z" transform="translate(0 0)"/></g></g></g></g></g></svg>