<svg xmlns="http://www.w3.org/2000/svg" width="139.579" height="286.102" viewBox="0 0 139.579 286.102"><defs><style>.a{fill:#27c5fd;}.b{fill:#fff;}.c{fill:#27c5fc;}.d{fill:none;stroke:#193068;stroke-miterlimit:10;stroke-width:0.5px;}.e{fill:#eebcc5;}.f{fill:#0a4e84;}.g{fill:#008de5;}.h{fill:#27c7ff;}</style></defs><g transform="translate(62.794)"><path class="a" d="M405.023,137.78,343.8,103.341a2.415,2.415,0,0,0-2.181-.282,2.207,2.207,0,0,0-.221.074,1.94,1.94,0,0,0-.219.074,1.861,1.861,0,0,0-.221.074,1.939,1.939,0,0,0-.219.073,2.2,2.2,0,0,0-.221.072,2.324,2.324,0,0,0-.221.074,2.282,2.282,0,0,0-.219.074,2.185,2.185,0,0,0-.221.074,1.931,1.931,0,0,0-.219.074,1.857,1.857,0,0,0-.221.074,1.939,1.939,0,0,0-.219.074,2.176,2.176,0,0,0-.221.072,2.153,2.153,0,0,0-.219.074,2037.583,2037.583,0,0,0-.441.147,1.93,1.93,0,0,0-.219.074,1.868,1.868,0,0,0-.221.074,1.832,1.832,0,0,0-.219.074,1.866,1.866,0,0,0-.221.073,1.832,1.832,0,0,0-.219.072,1867.743,1867.743,0,0,0-.441.147,1.93,1.93,0,0,0-.219.074,1.866,1.866,0,0,0-.221.074,1.939,1.939,0,0,0-.219.074,2.186,2.186,0,0,0-.221.072q-.113.032-.221.074a2.3,2.3,0,0,0-.219.074,2.2,2.2,0,0,0-.221.074,1.934,1.934,0,0,0-.219.074c-1.428.392-2.41,2.35-2.41,5.291v55.677c0,4.156,1.956,8.686,4.371,10.115l8.7,5.16v17.032l.221-.2v.126l.219-.2v.124l.221-.2v.124l.219-.2v.124l.221-.2v.124l.221-.2v.124l.219-.2v.124l.221-.2v.126l.219-.2v.126l.221-.2v.124l.219-.2v.124l.221-.2v.124l.221-.2v.124l.219-.2v.124l.221-.2v.126l.219-.2v.124l.221-.2v.124l.219-.2v.124l.221-.2v.124l.221-.2v.124l.219-.2V197l.221-.2v.124l.219-.2v.126l.221-.2v.124l.219-.2v.124l.221-.2v.124l.221-.2v.124l.219-.2v.126l.221-.2v.126l.219-.2v.124l.221-.2v.124l7.188-6.46,40.038,20.979a2.4,2.4,0,0,0,2.182.282,1.93,1.93,0,0,0,.219-.074,1.853,1.853,0,0,0,.221-.074c4.38-1.759,7.044-1.684,7.044-7.343V147.9C409.393,143.739,407.436,139.21,405.023,137.78Z" transform="translate(-332.608 -102.911)"/><g transform="translate(0 2.268)"><path class="b" d="M399.727,139.266l-62.749-34.438c-2.414-1.431-4.371.78-4.371,4.936v55.677c0,4.156,1.956,8.686,4.371,10.116l8.7,5.16V197.75L357.1,187.484l42.624,22.511c2.414,1.431,4.371-.78,4.371-4.936V149.381C404.1,145.225,402.142,140.695,399.727,139.266Z" transform="translate(-332.608 -104.392)"/><g transform="translate(18.587 42.787)"><path class="c" d="M349.334,137.866c0,2.185-1.028,3.346-2.3,2.594s-2.3-3.131-2.3-5.316,1.028-3.346,2.3-2.594S349.334,135.682,349.334,137.866Z" transform="translate(-344.741 -132.321)"/><path class="c" d="M358.213,143.128c0,2.185-1.028,3.346-2.3,2.594s-2.3-3.131-2.3-5.316,1.028-3.344,2.3-2.594S358.213,140.945,358.213,143.128Z" transform="translate(-340.018 -129.522)"/><path class="c" d="M367.093,148.391c0,2.183-1.028,3.344-2.3,2.594s-2.3-3.131-2.3-5.316,1.029-3.346,2.3-2.594S367.093,146.207,367.093,148.391Z" transform="translate(-335.294 -126.723)"/></g></g></g><g transform="translate(0 95.701)"><path class="d" d="M312.229,174.3c0,2.456,1,4.446,2.246,4.446s2.244-1.99,2.244-4.446-1-4.444-2.244-4.444S312.229,171.85,312.229,174.3Z" transform="translate(-280.655 -162.998)"/><path class="d" d="M315.572,172.142c0,2.454,1,4.444,2.244,4.444s2.246-1.99,2.246-4.444-1.005-4.444-2.246-4.444S315.572,169.688,315.572,172.142Z" transform="translate(-278.876 -164.148)"/><ellipse class="e" cx="14.134" cy="14.134" rx="14.134" ry="14.134" transform="translate(34.649 0.001)"/><path class="f" d="M349.09,279.074l.807,4.968s.124,1.18-.558,1.552a5.815,5.815,0,0,1-3.727.807,27.732,27.732,0,0,1-5.526-2.172s-1.055-1.491-1.242-1.429a12.371,12.371,0,0,1-1.428.063s-7.079-3.168-8.2-4.72.5-3.54.5-3.54,2.05-1.863,8.384.931A49.628,49.628,0,0,0,349.09,279.074Z" transform="translate(-271.827 -107.604)"/><path class="f" d="M334.335,286.614l.807,4.968s.124,1.18-.559,1.552a5.817,5.817,0,0,1-3.726.807,27.735,27.735,0,0,1-5.527-2.174s-1.056-1.489-1.241-1.428a12.379,12.379,0,0,1-1.429.063s-7.079-3.168-8.2-4.72.5-3.54.5-3.54,2.05-1.863,8.383.931A49.752,49.752,0,0,0,334.335,286.614Z" transform="translate(-279.676 -103.593)"/><path class="e" d="M331.785,177.315,334.7,191h0a8.284,8.284,0,0,1-7.511,5.507h0a2.039,2.039,0,0,1-2.034-1.474l-3.686-12.786Z" transform="translate(-275.739 -159.033)"/><path class="g" d="M330.107,186.418l4.213-.427s5.186-.457,6.96,1.317S353.7,204.7,355.473,213.213s-13.84,12.42-13.84,12.42l-7.1-2.839Z" transform="translate(-271.144 -154.446)"/><path class="g" d="M329.868,231.427c.313-.1.642-.21.938-.314.852-.294,1.668-.608,2.433-.938.939-.381,1.791-.8,2.589-1.181.99-.5,7.648-3.047,8.4-3.5,0,0,5.051,63.336,6.146,75.446.175,2.154.679,6.532.625,6.689a1.844,1.844,0,0,1-.832.921c-.245.035-.5.069-.766.106a29.163,29.163,0,0,1-3.666.276h-.051c-3.093-.5-6.69-2.172-8.479-4.846l-.139-.573-9.99-60.43C327.108,242.63,329.868,236.378,329.868,231.427Z" transform="translate(-272.76 -133.403)"/><path class="b" d="M294.624,200.669a8.873,8.873,0,0,0-1.131,2,5.66,5.66,0,0,1,1.1,1.373l.139.07a13.633,13.633,0,0,1,6.826-5.959c.279-.106.541-.191.783-.279.035,0,.069-.017.106-.017a13.277,13.277,0,0,1-1.322-1.3c-.1-.1-.19-.191-.277-.277a8.686,8.686,0,0,0-1.616.608A12.712,12.712,0,0,0,294.624,200.669Z" transform="translate(-290.621 -148.947)"/><path class="g" d="M325.326,231.191a28.484,28.484,0,0,0,8.582-.608c1.164-.26,2.277-.556,3.337-.9,0,4.951-.748,27.1-1.078,36.954-.017.47-.034.938-.069,1.391-.313,4.57.139,25.158.052,29.951-.069,2.972-.156,5.769-.3,8.254-.331,6.534-.832,11.1-.99,11.9a1.157,1.157,0,0,1-.173,1.025,1.857,1.857,0,0,1-.8.538,7.4,7.4,0,0,1-3.422.139,16.28,16.28,0,0,1-9.346-5.02c-2.606-24.62-3.753-61.176-6.829-87.671A22.027,22.027,0,0,0,325.326,231.191Z" transform="translate(-279.557 -132.526)"/><path class="g" d="M325.326,231.191a22.027,22.027,0,0,1-11.033-4.047c.818,7.042,1.5,14.8,2.1,22.855,6.079-.924,14.842-6.094,20.617-9.884.135-4.761.23-8.68.23-10.434-1.06.346-2.172.642-3.337.9A28.484,28.484,0,0,1,325.326,231.191Z" transform="translate(-279.557 -132.526)"/><path class="h" d="M294.105,210.308c1.094-3.039,4.469-5.607,7.125-6.662.277-.106.539-.191.781-.279A22.434,22.434,0,0,1,304.2,205c.348.279.7.573,1.026.869.382.329.763.677,1.128,1.025a1.215,1.215,0,0,0,.139.139c2.45,2.345,4.708,4.934,7.14,7.157-1.451-1.344,7.312-14.025,8.567-15.516,7.036-8.357,20.92-11.574,31.27-12.688,17.138-1.843,10.829,58.153,9,59.981a15.325,15.325,0,0,1-2.431,1.737c-1.209.734-6.382,4.816-10.615,5.6-7.946,1.48-17.251,1.419-24.395-4.248-.294-.233-.625-.435-.922-.677,0-1.129,2.036-24.991,1.913-31.975-1.33,1.632-5.691,9.684-7,11.623a4.522,4.522,0,0,1-3.455,2.07,4.429,4.429,0,0,1-2.848-.915C305.207,223.538,300.214,217.1,294.105,210.308Z" transform="translate(-290.296 -154.442)"/><ellipse class="e" cx="4.126" cy="4.126" rx="4.126" ry="4.126" transform="translate(0 42.086)"/><path class="b" d="M336.321,188.373l-1.8-5.5-12.127,4.6-.449,4.828Z" transform="translate(-275.485 -156.077)"/><path class="d" d="M312.2,173.566c.434-.325,12.453,6.007,12.453,6.007" transform="translate(-280.67 -161.033)"/><path class="f" d="M340.31,179.516a14.311,14.311,0,0,0-14.134-14.135A14.04,14.04,0,0,0,319,167.356c-.824,1.932-.982,3.908.329,4.6-1.363-.5,1.461,11.975,3.119,11.764l1.016-.434c.388-1.756,1.383-3.87,2.08.334a2.542,2.542,0,0,1-.121,1.328c-1.031,2.543-2.292,6.762,3.712,6.762C329.762,191.708,340.7,190.948,340.31,179.516Z" transform="translate(-277.393 -165.381)"/><path class="e" d="M326.272,180.011a4.126,4.126,0,1,0-5.175,2.7A4.128,4.128,0,0,0,326.272,180.011Z" transform="translate(-277.474 -160.453)"/><path class="f" d="M322.251,178.857l-2.929,3.519-.864-.476.6-1.69-1.811-1.749,1.147-5.673s-2.293-1.749-1.871-3.741a8.652,8.652,0,0,1,1.749-3.5L320,167.268a39.072,39.072,0,0,1,3.769,1.235c.121.181,3.078,3.38,3.078,3.38Z" transform="translate(-278.396 -165.293)"/></g></svg>