<svg xmlns="http://www.w3.org/2000/svg" width="103.887" height="217.381" viewBox="0 0 103.887 217.381"><defs><style>.a{fill:#0a4e84;}.b{fill:#48cfff;}.c{fill:#008de5;}.d{fill:#035ba2;}.e{fill:#eebcc5;}.f{fill:#f7f7fb;}.g{fill:#3e3577;}.h{fill:#e7ebf2;}.i{fill:#27c7ff;}</style></defs><path class="a" d="M222.643,404.963c.934.051,1.35,1.186,1.474,2.113a20.446,20.446,0,0,1,.162,3.519,4.091,4.091,0,0,1-.313,1.623,3.142,3.142,0,0,1-1.932,1.511,12.061,12.061,0,0,1-2.486.382c-4.734.468-9.378,2.174-14.118,1.782a4.594,4.594,0,0,1-2.115-.58,1.921,1.921,0,0,1-.943-1.862c.154-.834.974-1.35,1.715-1.763,3.442-1.914,6.576-2.618,10.225-4.1.4-.161,2.2-1.787,2.623-1.729s-.207.665-.238,1.1a3.984,3.984,0,0,0,2.8.4,3.721,3.721,0,0,0,2.238-1.565C222.017,405.363,222.134,404.935,222.643,404.963Z" transform="translate(-182.8 -214.939)"/><path class="a" d="M233.749,411.966a1.063,1.063,0,0,1,.971.524,2.878,2.878,0,0,1,.358,1.1,26.078,26.078,0,0,1,.382,3.775,2.1,2.1,0,0,1-1.12,1.824,9.848,9.848,0,0,0-2.6,2.823,16.884,16.884,0,0,1-10.317,6.275,2.054,2.054,0,0,1-2.415-1.66,4.029,4.029,0,0,1,.01-1.274,7.427,7.427,0,0,1,1.364-2.986c1.009-1.432,6.7-5.243,7.662-6.306,1.429-1.572,1.531-3.8,3.566-4.384A2.374,2.374,0,0,1,233.749,411.966Z" transform="translate(-172.718 -210.939)"/><path class="b" d="M211.318,402.586v7.8l.371.22a4.694,4.694,0,0,0,5.941-.963h0l.247-7.054Z" transform="translate(-177.355 -216.381)"/><path class="b" d="M230.228,416.051l.186-7.054h-4.951l.1,6.837S226.62,418.982,230.228,416.051Z" transform="translate(-168.77 -212.49)"/><g transform="translate(0 21.378)"><path class="c" d="M200.032,339.606a7.255,7.255,0,0,1-5.973-2.751,14.061,14.061,0,0,1-3.672-12.063c.355-2.131,3.116-13.3,22.569-24.072a5.624,5.624,0,0,1,5.449,9.839c-6.33,3.521-16.09,11.07-16.926,16.09a2.616,2.616,0,0,0,.1,1.38c4.175-1.345,14.172-8.056,22.942-15.517a5.624,5.624,0,0,1,7.292,8.565C214.363,335.934,205.132,339.606,200.032,339.606Z" transform="translate(-190.183 -300.014)"/></g><g transform="translate(51.987 99.89)"><path class="d" d="M230.391,448.37c.1,0,.206,0,.31-.008a6.426,6.426,0,0,0,6.116-6.723c-.018-.368-1.74-36.91-1.379-48.112.423-13.114.951-37.842.958-38.091a6.428,6.428,0,0,0-6.289-6.563c-.047,0-.093,0-.14,0a6.426,6.426,0,0,0-6.423,6.291c-.006.246-.534,24.906-.955,37.949-.378,11.71,1.314,47.612,1.387,49.134A6.426,6.426,0,0,0,230.391,448.37Z" transform="translate(-222.535 -348.872)"/></g><g transform="translate(25.456 10.429)"><path class="e" d="M211.648,307.026a5.625,5.625,0,0,1-4.035-9.542l2.5-2.576a5.624,5.624,0,0,1,8.072,7.834l-2.5,2.576A5.61,5.61,0,0,1,211.648,307.026Z" transform="translate(-206.024 -293.2)"/></g><g transform="translate(27.369 89.219)"><path class="d" d="M218.348,441.729a6.289,6.289,0,0,0,.879-.059,6.427,6.427,0,0,0,5.5-7.239c-1.39-10.162-4.932-38.518-4.639-47.576.41-12.693,4.157-36.964,4.2-37.207a6.428,6.428,0,1,0-12.7-1.972c-.159,1.027-3.906,25.295-4.34,38.764-.386,11.991,4.541,48.2,4.752,49.733A6.427,6.427,0,0,0,218.348,441.729Z" transform="translate(-207.215 -342.231)"/></g><path class="d" d="M246.821,343.433l-2.748,26.815-34.811-8.035-.427-22.621S242.553,340.445,246.821,343.433Z" transform="translate(-178.863 -254.614)"/><path class="f" d="M226.03,308.18s4.615,1.289,5.044,2.362-3,6.008-6.653,8.692-7.921,28.153-7.921,28.153-2.274-29.764-2.166-36.739S226.03,308.18,226.03,308.18Z" transform="translate(-175.527 -274.548)"/><g transform="translate(23.298 7.106)"><rect class="g" width="21.167" height="10.467" transform="matrix(-0.747, 0.664, -0.664, -0.747, 22.776, 7.824)"/><rect class="h" width="7.255" height="17.953" transform="matrix(0.664, 0.747, -0.747, 0.664, 15.688, 2.268)"/></g><path class="i" d="M219.03,308.748s-7.835.783-8.228,9.012c-.326,6.85-1.74,37.879-2.2,48.071a5.868,5.868,0,0,0,2.632,5.176c4.721,3.127,14.409,8.946,20.728,8.66a46.023,46.023,0,0,0,14.89-3.135s.784-54.854-1.176-57.6S230,306.4,226.867,306.4,219.03,308.748,219.03,308.748Z" transform="translate(-179.009 -274.761)"/><path class="e" d="M209.919,301.557a12.562,12.562,0,1,0,13.32-11.753A12.561,12.561,0,0,0,209.919,301.557Z" transform="translate(-178.22 -284.848)"/><path class="e" d="M213.909,301.715l4.276,12.921h0a8.055,8.055,0,0,0,9.008.932h0a1.984,1.984,0,0,0,.983-2.235l-3.188-12.54Z" transform="translate(-175.783 -278.162)"/><path class="e" d="M222.162,299.48a3.824,3.824,0,1,0,4.054-3.577A3.824,3.824,0,0,0,222.162,299.48Z" transform="translate(-170.779 -281.135)"/><rect class="f" width="32.565" height="17.911" transform="translate(103.887 136.563) rotate(180)"/><path class="f" d="M230.15,311.619s0-5.383-.958-5.742-2.751-1.2-2.751-1.2l.718,2.87s-2.632,2.751-5.263,3.111l-2.632.358-1.2,1.255-1.194-4.006-.837-2.393s-1.674-.119-1.914.479,2.512,10.525,2.512,10.525l3.35.6,4.665-1.914Z" transform="translate(-175.663 -275.802)"/><path class="e" d="M217.428,309.408l1.8,4.726-1.2,3.469-1.435-.239-1.436-3.828Z" transform="translate(-175.025 -272.934)"/><path class="e" d="M216.35,342.874s-2.169-19.3-1.93-20.741,2.631-7.774,2.631-7.774l1.437.239.1.206,1.708,8.326Z" transform="translate(-175.484 -269.929)"/><g transform="translate(56.767 42.67)"><path class="c" d="M259.6,384.867a5.623,5.623,0,0,1-5.549-4.75c-2.606-16.547-6.494-36.391-8.231-39.6-2.007-3.709-11.811-12.282-18.131-17.184a5.624,5.624,0,0,1,6.894-8.888c2.856,2.214,17.289,13.619,21.131,20.718,3.463,6.4,8.107,34.689,9.449,43.207a5.623,5.623,0,0,1-4.683,6.429A5.466,5.466,0,0,1,259.6,384.867Z" transform="translate(-225.509 -313.264)"/></g><g transform="translate(83.523 107.805)"><path class="e" d="M247.78,368.142a5.629,5.629,0,0,1-4.84-8.485l1.826-3.092a5.624,5.624,0,1,1,9.688,5.714l-1.824,3.093A5.626,5.626,0,0,1,247.78,368.142Z" transform="translate(-242.16 -353.797)"/></g><path class="a" d="M234.528,301.679a3.108,3.108,0,0,0-2.245,1.115,3.319,3.319,0,0,0-.309,1.957q.063,1.328.127,2.658a.61.61,0,0,1-.75.074,1.526,1.526,0,0,1-.564-.612,10.134,10.134,0,0,1-1.03-4.274c-.068-.747-.488-1.38-.337-2.116a9.022,9.022,0,0,1,.805-2.1,42.305,42.305,0,0,1-17.331.371,3.25,3.25,0,0,1-1.769-.741,2.783,2.783,0,0,1-.59-1.048,20.153,20.153,0,0,1-.034-7.053,4.93,4.93,0,0,1,3.135-2.809,10.306,10.306,0,0,1,4.31-.307c.914.095,9.629,2.577,15.913,4.392a4.958,4.958,0,0,1,2.73,7.545C235.772,299.94,235.01,301.041,234.528,301.679Z" transform="translate(-178.03 -286.71)"/><path class="a" d="M230.449,298.434a13.073,13.073,0,0,1-.408,3.829,4.423,4.423,0,0,1-2.4,2.868,5.753,5.753,0,0,1-2,.32,4.878,4.878,0,0,1-2.089-.291c-1.31-.578-1.957-2.063-3.1-2.926a3.944,3.944,0,0,0-4.514-.084,8.812,8.812,0,0,0-4.715-1.9.986.986,0,0,0-.625.076,1.054,1.054,0,0,0-.355.882,58.545,58.545,0,0,0-.037,6.373,4.16,4.16,0,0,0,.4,1.875,3.765,3.765,0,0,0,1.877,1.427c4.9,2.123,10.553,1.425,15.706.04a4.386,4.386,0,0,0,1.789-.794,4.59,4.59,0,0,0,1.183-2.795l1-5.7a3.9,3.9,0,0,0,.072-1.4C232.085,299.469,231.005,298.979,230.449,298.434Z" transform="translate(-178.071 -279.595)"/></svg>