<svg xmlns="http://www.w3.org/2000/svg" width="86.558" height="195.108" viewBox="0 0 86.558 195.108"><defs><style>.a{fill:#eebcc5;}.b{fill:#0a4e84;}.c{fill:#008de5;}.d{fill:#035ba2;}.e{fill:#fff;}.f{fill:#27c7ff;}</style></defs><ellipse class="a" cx="14.484" cy="14.484" rx="14.484" ry="14.484" transform="translate(35.505)"/><path class="b" d="M450.585,432.2l.827,5.089s.127,1.209-.573,1.592a5.963,5.963,0,0,1-3.818.827,28.425,28.425,0,0,1-5.664-2.228s-1.082-1.527-1.271-1.463a13.037,13.037,0,0,1-1.465.063s-7.254-3.245-8.4-4.835.509-3.628.509-3.628,2.1-1.909,8.59.954A50.977,50.977,0,0,0,450.585,432.2Z" transform="translate(-371.411 -256.495)"/><path class="b" d="M435.83,439.743l.827,5.091s.127,1.209-.573,1.59a5.952,5.952,0,0,1-3.818.829,28.524,28.524,0,0,1-5.664-2.228s-1.082-1.527-1.273-1.465a12.664,12.664,0,0,1-1.463.064s-7.254-3.245-8.4-4.837.51-3.626.51-3.626,2.1-1.911,8.59.955A50.92,50.92,0,0,0,435.83,439.743Z" transform="translate(-379.819 -252.199)"/><path class="a" d="M433.034,330.319l2.987,14.03h0a8.49,8.49,0,0,1-7.7,5.643h0a2.092,2.092,0,0,1-2.085-1.51l-3.775-13.1Z" transform="translate(-375.602 -311.586)"/><path class="c" d="M431.1,339.435l4.319-.44s5.312-.466,7.13,1.352,12.728,17.818,14.546,26.544-14.182,12.727-14.182,12.727l-7.273-2.909Z" transform="translate(-370.681 -306.673)"/><path class="d" d="M430.93,384.577c.322-.107.659-.214.962-.32.873-.3,1.708-.623,2.493-.962.961-.391,1.834-.818,2.653-1.21,1.014-.515,7.835-3.121,8.6-3.584,0,0-.091,23.594,1.606,44.548,1.2,14.8,4.228,27.626,4.692,32.761.179,2.209.2,7.567-.214,7.8-.25.038-3.293.374-4.542.393h-.052c-3.169-.515-6.855-2.226-8.687-4.967l-.143-.587-7.375-34.108-2.862-27.816C428.1,396.057,430.93,389.65,430.93,384.577Z" transform="translate(-372.411 -284.131)"/><path class="e" d="M395.646,353.782a9.1,9.1,0,0,0-1.159,2.049,5.768,5.768,0,0,1,1.122,1.407l.141.071a13.98,13.98,0,0,1,7-6.107c.286-.107.553-.2.8-.286.036,0,.071-.017.107-.017a13.743,13.743,0,0,1-1.353-1.334c-.107-.108-.2-.2-.284-.286a9,9,0,0,0-1.656.623A13.03,13.03,0,0,0,395.646,353.782Z" transform="translate(-391.544 -300.783)"/><path class="d" d="M426.593,384.3a29.246,29.246,0,0,0,8.794-.622c1.193-.268,2.333-.57,3.417-.926,0,5.074-2.833,23.255-3.172,33.349-.017.482-.393,10.7-.43,11.166-.319,4.683-.276,44.45-1.717,44.236-3.009-.463-5.025,1.325-7.73-1.719-1.2-11.3-5.623-24.51-7.3-38.652-2.066-17.42-1.427-35.994-3.166-50.98A22.552,22.552,0,0,0,426.593,384.3Z" transform="translate(-379.692 -283.192)"/><path class="d" d="M426.593,384.3a22.552,22.552,0,0,1-11.306-4.147c.837,7.216,1.534,15.171,2.157,23.42,6.227-.947,15.208-6.243,21.125-10.129.14-4.879.235-8.895.235-10.692-1.085.356-2.224.658-3.417.926A29.246,29.246,0,0,1,426.593,384.3Z" transform="translate(-379.692 -283.192)"/><path class="f" d="M395.1,363.914c1.121-3.114,4.578-5.746,7.3-6.827.286-.107.553-.2.8-.286a22.77,22.77,0,0,1,2.242,1.673c.356.286.713.589,1.052.89.392.339.783.7,1.157,1.052a1.116,1.116,0,0,0,.143.141c2.51,2.4,4.824,5.056,7.317,7.334-1.487-1.377,7.491-14.372,8.778-15.9,7.21-8.563,21.438-11.86,32.043-13,17.562-1.889,11.1,59.591,9.224,61.463a15.708,15.708,0,0,1-2.491,1.78c-1.239.754-6.54,4.936-10.877,5.744-8.143,1.515-17.678,1.452-25-4.355-.3-.239-.64-.444-.945-.694,0-1.157,2.086-25.609,1.961-32.765-1.364,1.672-5.833,9.923-7.173,11.912A4.626,4.626,0,0,1,417.1,384.2a4.529,4.529,0,0,1-2.918-.937C406.476,377.473,401.358,370.875,395.1,363.914Z" transform="translate(-391.195 -306.669)"/><ellipse class="a" cx="4.228" cy="4.228" rx="4.228" ry="4.228" transform="translate(0 43.126)"/><path class="e" d="M437.67,341.513l-1.841-5.638L423.4,340.592l-.46,4.948Z" transform="translate(-375.33 -308.42)"/><path class="b" d="M441.847,332.869a14.665,14.665,0,0,0-14.483-14.483,14.4,14.4,0,0,0-7.356,2.022c-.845,1.981-1.008,4,.338,4.711-1.4-.515,1.5,12.271,3.2,12.056l1.041-.444c.4-1.8,1.418-3.967,2.132.342a2.615,2.615,0,0,1-.124,1.359c-1.058,2.608-2.348,6.929,3.8,6.931C431.039,345.363,442.246,344.583,441.847,332.869Z" transform="translate(-377.374 -318.386)"/></svg>