<svg xmlns="http://www.w3.org/2000/svg" width="74.68" height="87.062" viewBox="0 0 74.68 87.062"><defs><style>.a{fill:#83cff2;}.b{fill:#232324;}.c{fill:#31393d;}.d{fill:#fdfdfd;}.e{fill:#9cb5cc;}.f{fill:#d7e7f7;}.g{fill:#e9eff2;}.h{fill:#f8f9fc;}.i{fill:#022540;}.j{fill:#ff5542;}</style></defs><g transform="translate(0)"><g transform="translate(0 9.832)"><path class="a" d="M92.681,213.118c.7-.407,1.276-.074,1.282.731l.074,26.25a2.817,2.817,0,0,1-1.275,2.2l-41.372,23.89c-.706.4-1.282.078-1.284-.726l-.076-26.253A2.823,2.823,0,0,1,51.3,237Z" transform="translate(-47.461 -210.061)"/><g transform="translate(2.739 33.206)"><path class="b" d="M122.111,254.683c0,.029,0,.055-.007.09s0,.055-.008.085a.548.548,0,0,1-.018.078.61.61,0,0,1-.025.085.64.64,0,0,1-.03.07.659.659,0,0,1-.041.092.267.267,0,0,1-.039.066,1.078,1.078,0,0,1-.063.1c-.016.02-.033.038-.051.06a1.066,1.066,0,0,1-.109.122c-.02.017-.039.04-.062.062a.645.645,0,0,1-.075.061c-.028.025-.06.049-.092.075s-.059.043-.091.062-.093.066-.143.1l-15.824,9.134,0-.954-3.5-2.033,5.048-2.931v-.375l.328.189,6.86-3.982-.01-2.392-3.208-1.859-.738.429v-.853l-1.076-.622L107,248.408l-3.716-2.152-.929.539,0-1.075-3.209-1.856-.721.419,0-.834-3.206-1.857-3.328,1.931.006.737-.637-.368-3.325,1.931v.732l-.632-.368-3.328,1.934v.734l-.635-.37-3.321,1.933,0,.735-.638-.366-3.329,1.927.006.734-.635-.368-3.329,1.934,0,.731-.634-.368-3.326,1.934v.729l-.634-.363-3.325,1.932,0,.731-.634-.366L60.217,261.9l.008,2.394,1.859,1.073-.793.461V265l-3.209-1.852-3.324,1.927.006,2.4,3.206,1.852.722-.42,0,.835,3.207,1.856.721-.416v.834l3.213,1.855.712-.415,0,.832,3.21,1.854.735-.429,0,.858,3.21,1.852,7.047-4.088v-.478l.413.238,5.2-3.016v-.545l.473.271,1.9-1.1,0,.916,3.489,2.033-12.937,7.469a3.407,3.407,0,0,1-.413.193,1.2,1.2,0,0,1-.118.04,2.267,2.267,0,0,1-.289.087c-.086.024-.175.049-.263.066-.122.029-.248.049-.375.067a.414.414,0,0,0-.074.009,4.777,4.777,0,0,1-.5.026l-.076,0a4.727,4.727,0,0,1-.481-.029c-.028,0-.056,0-.083-.009a3.832,3.832,0,0,1-.462-.078c-.028-.007-.06-.012-.087-.018-.147-.038-.286-.081-.422-.13l-.047-.016a3.418,3.418,0,0,1-.448-.21L51.025,266.088a1.443,1.443,0,0,1-.846-1.188c0,.8,0,1.592,0,2.392a1.455,1.455,0,0,0,.846,1.189l24.139,14.025a2.792,2.792,0,0,0,.437.21l.008,0a.267.267,0,0,0,.048.016c.1.036.2.07.3.1a1.263,1.263,0,0,1,.126.031c.029,0,.057.014.091.018a.5.5,0,0,0,.089.022,2.456,2.456,0,0,0,.289.049.361.361,0,0,0,.085.007c.025,0,.048.007.074.009.041,0,.083.012.123.014.1.007.193.014.289.015h.153c.048,0,.1,0,.148,0,.1,0,.214-.012.32-.023l.028,0c.023,0,.049-.009.072-.009l.268-.036c.037-.009.071-.022.109-.029.085-.018.171-.039.254-.061.052-.018.107-.023.156-.043a1.381,1.381,0,0,0,.14-.052c.039-.012.078-.025.12-.04a3.349,3.349,0,0,0,.409-.2l41.959-24.226c.036-.022.064-.036.1-.057a.334.334,0,0,1,.051-.037,1.082,1.082,0,0,0,.091-.064c.03-.023.06-.045.09-.07l.076-.064a.348.348,0,0,0,.032-.028c.01-.011.021-.022.032-.036.038-.04.076-.081.109-.122l.029-.031a.087.087,0,0,1,.017-.024,1.228,1.228,0,0,0,.067-.106c.012-.016.022-.032.03-.045l.007-.018a.8.8,0,0,0,.046-.1c.006-.017.017-.036.023-.054l0-.011c.008-.029.016-.062.023-.092s.012-.043.015-.06l0-.014a.59.59,0,0,0,.008-.09.465.465,0,0,0,.008-.066v-.02C122.116,256.277,122.114,255.477,122.111,254.683Z" transform="translate(-50.178 -238.974)"/><path class="c" d="M121.269,253.835,97.133,239.808a4.579,4.579,0,0,0-4.135,0L51.039,264.035a1.266,1.266,0,0,0-.014,2.394l24.134,14.028a4.586,4.586,0,0,0,4.135,0l41.962-24.226A1.27,1.27,0,0,0,121.269,253.835Z" transform="translate(-50.178 -239.315)"/><g transform="translate(40.029 8.147)"><path class="d" d="M88.314,246.4l3.209,1.853L88.2,250.189l-3.21-1.857Z" transform="translate(-84.991 -246.4)"/></g><g transform="translate(45.147 9.726)"><path class="d" d="M92.769,247.773l3.209,1.857-3.325,1.931L89.442,249.7Z" transform="translate(-89.442 -247.773)"/></g><g transform="translate(49.216 7.282)"><path class="d" d="M96.871,245.648l3.716,2.151,2.134,1.233,1.076.622-5.612,3.256-3.21-1.853,1.728-1L92.98,247.9Z" transform="translate(-92.98 -245.648)"/></g><g transform="translate(41.409 11.9)"><path class="d" d="M89.515,249.664l3.209,1.857L89.4,253.448l-3.209-1.855Z" transform="translate(-86.191 -249.664)"/></g><g transform="translate(53.914 11.713)"><path class="d" d="M103.925,249.5l3.207,1.859-6.856,3.98-3.21-1.855Z" transform="translate(-97.066 -249.502)"/></g><g transform="translate(48.39 15.886)"><path class="d" d="M97.46,253.131l3.211,1.857L95.474,258l-3.212-1.855Z" transform="translate(-92.262 -253.131)"/></g><g transform="translate(40.018 17.258)"><path class="d" d="M88.3,254.324l3.206,1.855-3.321,1.931-3.209-1.857Z" transform="translate(-84.981 -254.324)"/></g><g transform="translate(41.708 2.618)"><path class="d" d="M89.778,241.592l3.206,1.857-3.32,1.927-3.214-1.853Z" transform="translate(-86.451 -241.592)"/></g><g transform="translate(37.752 4.918)"><path class="d" d="M86.335,243.592l3.211,1.853-3.325,1.931-3.212-1.853Z" transform="translate(-83.01 -243.592)"/></g><g transform="translate(43.811 4.891)"><path class="d" d="M93.434,243.568l3.209,1.855-5.15,2.989-3.214-1.853Z" transform="translate(-88.279 -243.568)"/></g><g transform="translate(33.792 7.213)"><path class="d" d="M82.893,245.588l3.209,1.855-3.325,1.929-3.21-1.851Z" transform="translate(-79.566 -245.588)"/></g><g transform="translate(29.836 9.51)"><path class="d" d="M79.446,247.586l3.212,1.86-3.324,1.925-3.209-1.851Z" transform="translate(-76.126 -247.586)"/></g><g transform="translate(36.243 10.343)"><path class="d" d="M85.02,248.311l3.213,1.857-3.324,1.925L81.7,250.24Z" transform="translate(-81.698 -248.311)"/></g><g transform="translate(25.872 11.812)"><path class="d" d="M76.007,249.588l3.209,1.855-3.323,1.927-3.214-1.855Z" transform="translate(-72.678 -249.588)"/></g><g transform="translate(32.457 12.54)"><path class="d" d="M81.732,250.221l3.21,1.855L81.616,254,78.4,252.154Z" transform="translate(-78.405 -250.221)"/></g><g transform="translate(47.46 12.937)"><path class="d" d="M94.774,250.566l3.211,1.857-3.325,1.931L91.453,252.5Z" transform="translate(-91.453 -250.566)"/></g><g transform="translate(21.914 14.105)"><path class="d" d="M72.565,251.582l3.209,1.857-3.329,1.931-3.208-1.855Z" transform="translate(-69.236 -251.582)"/></g><g transform="translate(37.665 14.071)"><path class="d" d="M86.259,251.553l3.21,1.855-3.322,1.929-3.213-1.855Z" transform="translate(-82.935 -251.553)"/></g><g transform="translate(28.675 14.741)"><path class="d" d="M78.442,252.135l3.21,1.851-3.325,1.931-3.21-1.857Z" transform="translate(-75.116 -252.135)"/></g><g transform="translate(43.714 15.111)"><path class="d" d="M91.523,252.457l3.211,1.855-3.325,1.929-3.214-1.855Z" transform="translate(-88.195 -252.457)"/></g><g transform="translate(33.925 16.241)"><path class="d" d="M83.007,253.439l3.211,1.855-3.324,1.929-3.212-1.857Z" transform="translate(-79.682 -253.439)"/></g><g transform="translate(17.956 16.402)"><path class="d" d="M69.12,253.58l3.21,1.86-3.325,1.925-3.211-1.851Z" transform="translate(-65.794 -253.58)"/></g><g transform="translate(24.89 16.933)"><path class="d" d="M75.151,254.041l3.209,1.853-3.321,1.934-3.214-1.857Z" transform="translate(-71.824 -254.041)"/></g><g transform="translate(30.184 18.413)"><path class="d" d="M79.755,255.328l3.21,1.853-3.327,1.934-3.21-1.855Z" transform="translate(-76.429 -255.328)"/></g><g transform="translate(13.999 18.702)"><path class="d" d="M65.677,255.58l3.21,1.855-3.325,1.931-3.209-1.855Z" transform="translate(-62.352 -255.58)"/></g><g transform="translate(21.109 19.131)"><path class="d" d="M71.855,255.953l3.211,1.851-3.323,1.931-3.207-1.853Z" transform="translate(-68.536 -255.953)"/></g><g transform="translate(36.153 19.502)"><path class="d" d="M84.944,256.275l3.21,1.859-3.326,1.927L81.619,258.2Z" transform="translate(-81.619 -256.275)"/></g><g transform="translate(26.445 20.582)"><path class="d" d="M76.5,257.215l3.21,1.855L76.388,261l-3.212-1.851Z" transform="translate(-73.176 -257.215)"/></g><g transform="translate(10.04 21)"><path class="d" d="M62.238,257.578l3.209,1.855-3.33,1.933-3.208-1.859Z" transform="translate(-58.909 -257.578)"/></g><g transform="translate(17.321 21.325)"><path class="d" d="M68.568,257.861l3.21,1.86-3.325,1.925-3.21-1.855Z" transform="translate(-65.242 -257.861)"/></g><g transform="translate(32.45 21.646)"><path class="d" d="M81.728,258.141,84.936,260l-3.325,1.927L78.4,260.07Z" transform="translate(-78.399 -258.141)"/></g><g transform="translate(22.701 22.754)"><path class="d" d="M73.25,259.1l3.208,1.857-3.325,1.929-3.213-1.857Z" transform="translate(-69.92 -259.104)"/></g><g transform="translate(28.712 23.818)"><path class="d" d="M78.475,260.029l3.209,1.857-3.325,1.927-3.21-1.853Z" transform="translate(-75.148 -260.029)"/></g><g transform="translate(4.58 24.171)"><path class="d" d="M57.485,260.336l3.21,1.853-3.327,1.931-3.207-1.857Z" transform="translate(-54.161 -260.336)"/></g><g transform="translate(18.962 24.925)"><path class="d" d="M70,260.992l3.212,1.855-3.325,1.931-3.214-1.857Z" transform="translate(-66.669 -260.992)"/></g><g transform="translate(33.444 19.1)"><path class="d" d="M93.872,255.926l3.21,1.857-14.608,8.473-3.21-1.85Z" transform="translate(-79.264 -255.926)"/></g><g transform="translate(25.014 25.97)"><path class="d" d="M75.255,261.9l3.209,1.853-3.323,1.931-3.21-1.855Z" transform="translate(-71.932 -261.9)"/></g><g transform="translate(8.508 23.62)"><path class="d" d="M65.765,259.857l3.21,1.855-8.191,4.75-3.207-1.855Z" transform="translate(-57.577 -259.857)"/></g><g transform="translate(38.555 22.345)"><path class="d" d="M95.671,258.748l4.734,2.751-11.96,6.9-4.736-2.751Z" transform="translate(-83.709 -258.748)"/></g><g transform="translate(12.438 27.108)"><path class="d" d="M67.09,262.891l3.212,1.853-6.1,3.539-3.209-1.857Z" transform="translate(-60.995 -262.891)"/></g><g transform="translate(27.777 27.852)"><path class="d" d="M79.531,263.537l3.21,1.857-5.2,3.016-3.21-1.857Z" transform="translate(-74.335 -263.537)"/></g><g transform="translate(16.366 28.161)"><path class="d" d="M72.6,263.807l3.211,1.855-8.189,4.754-3.211-1.857Z" transform="translate(-64.411 -263.807)"/></g><g transform="translate(20.315 31.106)"><path class="d" d="M74.891,266.367l3.212,1.859-7.045,4.087-3.212-1.855Z" transform="translate(-67.845 -266.367)"/></g></g><path class="c" d="M94.555,211.305a.665.665,0,0,1-.076-.04c-.2-.117-.392-.229-.591-.347s-.393-.228-.589-.338a1.456,1.456,0,0,0-1.476.139L49.865,234.944a4.559,4.559,0,0,0-2.069,3.577l.078,27.916a1.449,1.449,0,0,0,.609,1.327l1.476.86a1.448,1.448,0,0,1-.608-1.329l-.076-27.914a4.571,4.571,0,0,1,2.065-3.582L93.3,211.579a1.461,1.461,0,0,1,1.476-.144C94.7,211.393,94.628,211.351,94.555,211.305Z" transform="translate(-47.796 -210.437)"/><g transform="translate(1.48 0.858)"><path class="b" d="M93.107,211.467c1.142-.661,2.079-.128,2.081,1.181l.08,27.915a4.586,4.586,0,0,1-2.07,3.583L51.241,268.37c-1.144.66-2.078.123-2.082-1.188l-.076-27.914a4.571,4.571,0,0,1,2.065-3.582ZM93.6,240.35l-.07-25.563c0-.784-.566-1.1-1.249-.707L51.991,237.338a2.747,2.747,0,0,0-1.243,2.149l.074,25.561c0,.784.566,1.1,1.25.7l40.286-23.261A2.739,2.739,0,0,0,93.6,240.35Z" transform="translate(-49.083 -211.183)"/></g></g><g transform="translate(6.481)"><g transform="translate(0 13.526)"><g transform="translate(0 12.019)"><path class="e" d="M54.632,256.486l-1.109-.645-.09-31.738,1.111.644Z" transform="translate(-53.433 -224.103)"/></g><path class="f" d="M54.543,226.313l-1.111-.644L74.247,213.65l1.11.647Z" transform="translate(-53.433 -213.65)"/><g transform="translate(1.111 0.647)"><path class="g" d="M75.212,214.212l.09,31.738L54.487,257.968,54.4,226.229Z" transform="translate(-54.399 -214.212)"/></g></g><g transform="translate(15.434)"><g transform="translate(0 12.014)"><path class="e" d="M68.054,244.723l-1.112-.647-.087-31.741,1.108.648Z" transform="translate(-66.856 -212.334)"/></g><path class="f" d="M67.964,214.548l-1.108-.648L87.67,201.886l1.108.642Z" transform="translate(-66.856 -201.886)"/><g transform="translate(1.108 0.642)"><path class="g" d="M88.634,202.445l.09,31.741L67.91,246.2l-.09-31.74Z" transform="translate(-67.819 -202.445)"/></g></g><g transform="translate(9.624 11.443)"><g transform="translate(0 12.017)"><path class="e" d="M63,254.673l-1.108-.645L61.8,222.289l1.112.645Z" transform="translate(-61.802 -222.289)"/></g><path class="f" d="M62.914,224.5l-1.112-.645,20.815-12.017,1.11.645Z" transform="translate(-61.802 -211.838)"/><g transform="translate(1.112 0.645)"><path class="h" d="M83.582,212.4l.091,31.739L62.858,256.155l-.089-31.739Z" transform="translate(-62.769 -212.399)"/></g><g transform="translate(2.476 6.208)"><g transform="translate(0 4.873)"><g transform="translate(0 8.961)"><path class="i" d="M63.956,238.073v2.071l15.254-8.806v-2.069Z" transform="translate(-63.956 -229.269)"/></g><g transform="translate(0 12.601)"><path class="i" d="M63.956,243.308,79.21,234.5v-2.068l-15.254,8.806Z" transform="translate(-63.956 -232.434)"/></g><g transform="translate(0 16.239)"><path class="i" d="M63.956,246.474l15.254-8.806V235.6L63.956,244.4Z" transform="translate(-63.956 -235.598)"/></g><g transform="translate(16.389 7.28)"><path class="i" d="M78.209,228.829V230.9l1.774-1.024v-2.07Z" transform="translate(-78.209 -227.807)"/></g><g transform="translate(16.389 10.919)"><path class="i" d="M78.209,231.995v2.071l1.774-1.022v-2.072Z" transform="translate(-78.209 -230.972)"/></g><g transform="translate(16.389 14.561)"><path class="i" d="M78.209,235.16v2.071l1.774-1.024v-2.068Z" transform="translate(-78.209 -234.139)"/></g><g transform="translate(0 1.68)"><path class="i" d="M63.956,231.742v2.07l15.254-8.8v-2.071Z" transform="translate(-63.956 -222.936)"/></g><g transform="translate(0 5.321)"><path class="i" d="M63.956,236.976l15.254-8.8V226.1l-15.254,8.8Z" transform="translate(-63.956 -226.103)"/></g><g transform="translate(16.389)"><path class="i" d="M78.209,222.5v2.069l1.774-1.022v-2.071Z" transform="translate(-78.209 -221.475)"/></g><g transform="translate(16.389 3.641)"><path class="i" d="M78.209,225.666v2.067l1.774-1.021v-2.07Z" transform="translate(-78.209 -224.642)"/></g></g><g transform="translate(3.466)"><path class="j" d="M66.97,223.086l2.788-1.611v.987l-.933.539v3.162l-.952.55V223.55l-.9.521Z" transform="translate(-66.97 -216.602)"/><path class="j" d="M69.56,222.522a1.682,1.682,0,0,1,.916-1.492s1.028-.6,1.6-.836v.923l-1.309.757a.449.449,0,0,0-.254.466v.251l1.321-.7v.91l-1.321.816v.252c0,.3.16.2.3.118l1.259-.73v.916c-.5.373-1.555,1-1.555,1-.316.193-.962.492-.962-.375Z" transform="translate(-66.582 -216.794)"/><path class="j" d="M71.969,221.245a2,2,0,0,1,.973-1.682,3.9,3.9,0,0,1,1.521-.692v.854c-.315.144-.854.438-1.18.624-.266.152-.363.222-.363.46v.061c0,.177.031.255.294.1l.463-.264c.746-.431.918.216.918.669v.187a1.953,1.953,0,0,1-1,1.845,3.9,3.9,0,0,1-1.517.685v-.858c.2-.092.818-.408,1.272-.673.21-.121.29-.229.29-.4v-.09c0-.166-.044-.225-.26-.1l-.44.255c-.934.539-.973-.374-.973-.64Z" transform="translate(-66.221 -216.992)"/><path class="j" d="M74.312,218.844l2.788-1.607v.984l-.933.539v3.163l-.952.551v-3.163l-.9.522Z" transform="translate(-65.87 -217.237)"/></g></g></g></g></g></svg>