<svg xmlns="http://www.w3.org/2000/svg" width="58.643" height="135.015" viewBox="0 0 58.643 135.015"><defs><style>.a{fill:#fff9ff;}.b{fill:#d3bae7;}.c{fill:#752939;}.d{fill:#bcbace;}.e{fill:#1a685a;}.f{fill:#409682;}.g{fill:#4eaf9d;}</style></defs><g transform="translate(6.091 70.337)"><path class="a" d="M173.423,345.379l-29.658,9.962v37.319c0,7.555,10.054,13.68,22.455,13.68s22.455-6.125,22.455-13.68V355.341Z" transform="translate(-143.765 -341.661)"/><ellipse class="b" cx="22.454" cy="13.679" rx="22.454" ry="13.679" transform="translate(0.001)"/><path class="c" d="M145.479,360.968c3.955,3.9,11.036,6.5,19.116,6.5s15.162-2.6,19.116-6.5a7.526,7.526,0,0,0,.42-2.457c0-6.574-8.746-11.9-19.536-11.9s-19.536,5.326-19.536,11.9A7.525,7.525,0,0,0,145.479,360.968Z" transform="translate(-142.14 -340.113)"/><path class="d" d="M166.22,345.3c11.32,0,20.882,5.545,20.882,12.107s-9.563,12.1-20.882,12.1-20.88-5.545-20.88-12.1S154.9,345.3,166.22,345.3m0-1.572c-12.4,0-22.455,6.125-22.455,13.68s10.054,13.677,22.455,13.677,22.455-6.122,22.455-13.677-10.052-13.68-22.455-13.68Z" transform="translate(-143.765 -343.731)"/></g><path class="e" d="M176.839,321.858c-1.877,3.993-1.9,8.577-1.893,12.991q.017,7.438.034,14.877c.014,5.646.014,11.381-1.523,16.815s-4.846,10.627-9.905,13.138c-2.506,1.243-5.655,1.726-8.026.239a8.462,8.462,0,0,1-2.52-2.691c-5.7-8.936-.426-20.943,3.673-29.522A75.785,75.785,0,0,1,176.839,321.858Z" transform="translate(-129.209 -300.863)"/><path class="f" d="M146.066,374.33c-1.408-18.525-.458-37.4-5-55.417a74.636,74.636,0,0,1,16.366,54.558c4.1-12.806,8.25-25.875,8.173-39.322-.036-6.427,3.918-21.6,3.918-21.6s2.328,14.514,4.469,21.568c1.46,4.816,1.755,9.894,2.042,14.918q.629,10.99,1.257,21.985c6.1-18.428,22.419-43.822,22.419-43.822s-6.01,48.417-9.195,59.494c-3.614,12.567-15.376,21.113-28.848,18.142C149.409,402.131,146.84,384.51,146.066,374.33Z" transform="translate(-141.065 -312.551)"/><path class="g" d="M148.15,375.136c-2.563-7.043-.18-14.783,1.419-22.105,1.906-8.728,2.664-17.86.72-26.581A398.8,398.8,0,0,1,167.275,368.3c1.259,3.684,2.468,7.693,1.272,11.4-1.128,3.494-7.444,9.668-11.633,8.635C153.621,387.516,149.276,378.224,148.15,375.136Z" transform="translate(-133.585 -295.096)"/></svg>