<svg xmlns="http://www.w3.org/2000/svg" width="42.781" height="71.253" viewBox="0 0 42.781 71.253"><defs><style>.a{fill:#c7100a;}.b{fill:#4a2400;}.c{fill:#ff7101;}.d{fill:#607126;}.e{fill:#abc943;}.f{fill:#70842c;}.g{fill:#445f1b;}.h{fill:#547522;}.i{fill:#79a831;}.j{fill:#778c2f;}.k{fill:#527221;}.l{fill:#74882d;}.m{fill:#3f581a;}.n{fill:#e77a30;}.o{fill:#f09a12;}.p{fill:#ffca00;}.q{fill:#f29b12;}</style></defs><g transform="translate(0 37.838)"><path class="a" d="M49.825,239.5c8.179,4.925,7.9,12.765-.627,17.52s-22.064,4.615-30.246-.306-7.895-12.767.629-17.522S41.647,234.574,49.825,239.5Z" transform="translate(-12.999 -235.714)"/><path class="b" d="M33.026,256.643a28.056,28.056,0,0,1-14.049-3.42c-3.079-1.85-4.757-4.144-4.718-6.451.039-2.375,1.962-4.8,5.274-6.645a28.482,28.482,0,0,1,13.631-3.152,28.091,28.091,0,0,1,14.051,3.418c3.081,1.852,4.757,4.142,4.72,6.45-.043,2.377-1.966,4.8-5.272,6.643A28.494,28.494,0,0,1,33.026,256.643Z" transform="translate(-11.705 -234.418)"/><g transform="translate(0.007 12.651)"><path class="c" d="M23.482,259.668c-.718-.442-1.645-1.1-2.317-1.609a16.564,16.564,0,0,1-1.558-1.365,29.855,29.855,0,0,1-2.035-2.26,24.374,24.374,0,0,1-1.635-2.416,19.356,19.356,0,0,1-1.179-2.335c-.377-.911-.791-2.158-1.069-3.106a21.261,21.261,0,0,1-.5-2.493c-.091-.6-.154-1.406-.189-2.008.14,2.97,2.116,5.917,5.945,8.221,8.183,4.921,21.723,5.059,30.246.306,4.242-2.367,6.444-5.5,6.576-8.653a13.848,13.848,0,0,1-.136,1.69c-.059.505-.154,1.166-.264,1.661-.164.761-.432,1.773-.657,2.521-.142.471-.377,1.081-.568,1.536-.288.68-.72,1.57-1.069,2.227-.219.418-.558.959-.815,1.357a21.675,21.675,0,0,1-7.593,7.081c-.331.191-.783.426-1.13.59-.4.191-.929.434-1.339.59-.627.239-1.479.523-2.12.722-.325.1-.765.2-1.1.276-.3.069-.692.148-.988.2s-.7.113-.994.15a17.272,17.272,0,0,1-1.893.15,18.105,18.105,0,0,1-1.866-.02,18.781,18.781,0,0,1-1.895-.187c-.3-.051-.69-.112-.98-.17-.306-.055-.706-.142-1-.219-.321-.079-.751-.2-1.067-.292s-.753-.241-1.067-.359c-.369-.128-.848-.323-1.207-.479s-.8-.369-1.134-.525C24.452,260.238,23.892,259.921,23.482,259.668Z" transform="translate(-13.003 -241.951)"/></g></g><g transform="translate(4.439 11.067)"><g transform="translate(16.68 2.921)"><g transform="translate(0.022 26.691)"><path class="d" d="M25.673,241.412l-2.24-1.3-.011-3,2.244,1.307Z" transform="translate(-23.421 -237.115)"/></g><g transform="translate(2.266 1.304)"><path class="e" d="M39.19,224.6c.118.753,2.337,15-12.761,28.9a4.433,4.433,0,0,1-.751.576,1.438,1.438,0,0,1-1.144.211l-.006-2.988Z" transform="translate(-24.528 -224.6)"/></g><g transform="translate(0.022)"><path class="f" d="M25.666,251.955l-2.244-1.307,14.662-26.691,2.244,1.3Z" transform="translate(-23.421 -223.957)"/></g><g transform="translate(0 18.3)"><path class="g" d="M25.677,242.677l-2.245-1.307-.022-8.391,2.241,1.307Z" transform="translate(-23.411 -232.979)"/></g><g transform="translate(0.001)"><path class="h" d="M25.652,243.564l-2.241-1.308a32.222,32.222,0,0,1,14.682-18.3l2.246,1.3a32.243,32.243,0,0,0-14.686,18.3Z" transform="translate(-23.411 -223.957)"/></g><g transform="translate(2.242 1.304)"><path class="i" d="M39.2,224.6,24.54,251.295l-.024-8.392A32.243,32.243,0,0,1,39.2,224.6Z" transform="translate(-24.516 -224.6)"/></g></g><g transform="translate(15.13 33.316)"><path class="g" d="M24.926,247.638l-2.243-1.3-.037-7.393,2.243,1.307Z" transform="translate(-22.646 -238.941)"/></g><g transform="translate(15.131 31.297)"><path class="h" d="M24.89,241.273l-2.243-1.308a8.321,8.321,0,0,0,.8-2.018l2.241,1.306a8.3,8.3,0,0,1-.8,2.02Z" transform="translate(-22.647 -237.946)"/></g><g transform="translate(13.561 34.849)"><path class="d" d="M24.151,247.771l-2.245-1.307-.033-6.767L24.116,241Z" transform="translate(-21.873 -239.697)"/></g><g transform="translate(13.561 33.316)"><path class="j" d="M24.116,241.781l-2.243-1.306a2.363,2.363,0,0,0,.237-.118,3.758,3.758,0,0,0,1.333-1.416l2.243,1.308a3.751,3.751,0,0,1-1.331,1.41c-.079.041-.158.083-.239.122Z" transform="translate(-21.873 -238.941)"/></g><g transform="translate(15.805 34.624)"><path class="e" d="M22.979,241.117c.081-.039.16-.081.239-.122a3.751,3.751,0,0,0,1.331-1.41l.037,7.388-1.572.913Z" transform="translate(-22.979 -239.586)"/></g><g transform="translate(15.934 26.24)"><path class="h" d="M25.284,241.816l-2.241-1.306a19.071,19.071,0,0,0,.554-5.057l2.246,1.308a18.989,18.989,0,0,1-.558,5.055Z" transform="translate(-23.043 -235.453)"/></g><g transform="translate(15.105 22.636)"><path class="h" d="M26.263,238.589l-2.246-1.308c-.241-.233-.54-1.872-1.383-3.6l2.239,1.3c.85,1.742,1.148,3.375,1.389,3.615Z" transform="translate(-22.634 -233.676)"/></g><g transform="translate(15.04 0.913)"><path class="g" d="M24.907,245.989l-2.24-1.3L22.6,222.967l2.243,1.3Z" transform="translate(-22.602 -222.967)"/></g><g transform="translate(13.521 20.289)"><path class="j" d="M25.677,236.164l-2.239-1.3a9.434,9.434,0,0,0-1.584-2.347l2.243,1.3a9.463,9.463,0,0,1,1.58,2.345Z" transform="translate(-21.853 -232.519)"/></g><g transform="translate(17.283 1.304)"><path class="i" d="M25.286,223.16l.061,21.224.024,8.392.006,2.988.039,7.193-1.58.911-.037-7.388a8.3,8.3,0,0,0,.8-2.02,18.989,18.989,0,0,0,.558-5.055c-.241-.239-.54-1.872-1.39-3.615l-.061-21.717Z" transform="translate(-23.708 -223.16)"/></g><g transform="translate(15.04)"><path class="k" d="M24.845,224.734l-2.243-1.3,1.581-.913,2.241,1.3Z" transform="translate(-22.602 -222.517)"/></g><g transform="translate(13.469 0.913)"><path class="l" d="M24.069,225.178l-2.241-1.3,1.571-.906,2.243,1.3Z" transform="translate(-21.828 -222.967)"/></g><g transform="translate(13.469 1.82)"><path class="d" d="M24.121,243.184l-2.243-1.3-.051-18.468,2.241,1.3Z" transform="translate(-21.828 -223.414)"/></g><g transform="translate(0.165 18.181)"><path class="h" d="M17.508,235.537l-2.239-1.3c5.826-3.341,9.491-3.225,11.842-1.866l2.243,1.306c-2.349-1.365-6.014-1.477-11.846,1.858Z" transform="translate(-15.269 -231.48)"/></g><g transform="translate(2.405 19.485)"><path class="i" d="M16.373,234.876c7.272-4.158,11.177-2.955,13.359-.649a9.462,9.462,0,0,1,1.58,2.345c.85,1.742,1.148,3.375,1.39,3.615a18.989,18.989,0,0,1-.558,5.055Z" transform="translate(-16.373 -232.123)"/></g><g transform="translate(15.711 2.217)"><path class="e" d="M22.933,224.517l1.572-.907.061,21.717a9.462,9.462,0,0,0-1.58-2.345Z" transform="translate(-22.933 -223.61)"/></g><g transform="translate(0.164 20.939)"><path class="m" d="M33.28,244.5,31.039,243.2,15.269,232.84l2.24,1.3Z" transform="translate(-15.269 -232.84)"/></g><g transform="translate(2.243 22.238)"><path class="e" d="M16.455,233.48l15.771,10.365a8.3,8.3,0,0,1-.8,2.02,3.751,3.751,0,0,1-1.331,1.41c-.079.041-.158.083-.239.122a2.591,2.591,0,0,1-.513.174C14.216,251.136,16.345,234.364,16.455,233.48Z" transform="translate(-16.293 -233.48)"/></g><g transform="translate(0 20.94)"><path class="j" d="M21.98,247.605l-2.246-1.3c-5.678-3.3-4.467-12.812-4.381-13.465l2.239,1.3c-.079.663-1.29,10.167,4.388,13.467Z" transform="translate(-15.188 -232.84)"/></g></g><g transform="translate(11.198)"><path class="n" d="M37.866,225.562c0-.112-.014-.227-.02-.339,0-.049,0-.1-.01-.14-.15-.089-.3-.174-.45-.264h0c.15.089.3.174.45.264a4.99,4.99,0,0,0-2.2-4.087l-1.361-.789-1.077-.629a4.011,4.011,0,0,0-1.726-.473c.039-.018.087-.049.126-.063a7.154,7.154,0,0,1,.775-.266c.1-.028.2-.059.292-.083.039-.01.075-.018.112-.026a4.6,4.6,0,0,1,.462-.1c.105-.016.211-.037.316-.049s.233-.026.349-.03a4.866,4.866,0,0,1,2.832.607L34.3,217.686a4.882,4.882,0,0,0-2.836-.611c-.116.008-.229.018-.347.032h0c-.1.014-.211.032-.314.051-.152.024-.306.053-.46.093a.759.759,0,0,1-.114.024c-.1.026-.195.055-.292.083-.254.075-.511.164-.775.268a11.241,11.241,0,0,0-1.428.7c.529.31,1.166.684,1.771,1.03h0l-1.771-1.03c-.229.134-.456.274-.68.424l1.582.919h0l-1.582-.919-.116.073c.517.3,1.032.6,1.546.9h0c-.513-.3-1.028-.6-1.546-.9a16.449,16.449,0,0,0-2.047,1.653c-.077.073-.154.152-.233.229q-.271.262-.529.542h0c-.041.047-.087.091-.132.142.4.233.809.469,1.213.706h0c-.278-.164-.552-.325-.834-.485-.126-.077-.252-.148-.379-.221a22.162,22.162,0,0,0-4.588,7.783c-.039.12-.079.241-.118.367.406.237.807.469,1.207.706h0c-.276-.164-.552-.323-.828-.487l-.379-.219c-.018.061-.039.12-.057.185h0c-.075.239-.138.485-.2.726a16.084,16.084,0,0,0-.483,2.868h0c0,.047-.006.1-.008.142-.014.274-.024.542-.02.811a9.667,9.667,0,0,0,.349,2.682h0a.712.712,0,0,0,.03.1c.028.039.1.059.138.083.2.12.4.233.6.349a.184.184,0,0,1,.039.026c-.256-.152-.519-.3-.777-.458.049.156.1.3.148.446a1.018,1.018,0,0,0,.1.061c.093.051.185.107.276.154-.128-.071-.25-.142-.375-.215.039.1.077.2.12.3s.1.211.144.314a1.409,1.409,0,0,0,.284.166c.278.158.552.316.832.475.438.256.878.511,1.321.773-.051-.1-.1-.209-.144-.316a3.122,3.122,0,0,1-.116-.292c-.641-.369-1.276-.742-1.913-1.112.108.063.215.128.325.187.527.312,1.059.617,1.588.925-.059-.144-.108-.3-.154-.446l-.03-.1a8.716,8.716,0,0,1-.26-1.288,4.232,4.232,0,0,0,.454.584,3.861,3.861,0,0,0,.817.641h0l2.434,1.412h0a5.025,5.025,0,0,0,4.722-.144c-.14-.083-.284-.166-.428-.25h0c.144.083.288.166.428.25.045-.022.087-.039.132-.059.1-.055.2-.105.306-.158s.2-.116.312-.174l-.383-.223h0c.126.077.268.156.383.223.193-.112.387-.231.574-.355-.12-.071-.239-.142-.359-.211h0c.12.069.239.14.359.211.057-.043.114-.077.17-.114a14.2,14.2,0,0,0,2.314-2.033,18.357,18.357,0,0,0,3.962-6.858,14.094,14.094,0,0,0,.6-3.027l.01-.2c.018-.227.02-.454.02-.675C37.872,225.8,37.87,225.682,37.866,225.562ZM27.784,237.352a6.206,6.206,0,0,1-3.816.963,6.084,6.084,0,0,1-1.1-3.738,14.523,14.523,0,0,1,1.856-6.635c0,.083-.016.156-.018.241l.006.884c0,.483.069,1.432.649,1.765l2.312,1.347c-1.083.619-2.2,1.17-2.663,1.4l.006,1.787,2.434,1.414a7.193,7.193,0,0,0,1.043-.278l.276.164a11.148,11.148,0,0,1-.986.684c.1.061.233.138.347.2h0Zm6.473-16.792a3.754,3.754,0,0,1,.292.4l-.777-.452A4.188,4.188,0,0,1,34.257,220.56Zm-5.325,13.68c.527.31,1.073.625,1.578.917h0l-1.578-.917Zm-.582.3v.511l-.162.1-.485-.282Zm4.6-3.765q-1.074-.627-2.152-1.25A5.488,5.488,0,0,1,30.616,231l-1.986-1.152c-.11-.065-.3-.028-.59.144l-.89.511v-.022l0-.886a4.894,4.894,0,0,1,.164-1.246l2.022,1.179c.134.079.357.018.706-.181l.759-.438v.032c.734.426,1.706.992,2.438,1.416,0-.694-.142-1.517-.665-1.822l-2.329-1.351c.615-.355,1.917-1.041,2.649-1.392l-.006-1.8-2.434-1.416h0a7.016,7.016,0,0,0-.943.276l-.351-.211a11.966,11.966,0,0,1,1.018-.7,6.153,6.153,0,0,1,3.8-.96,6.037,6.037,0,0,1,1.1,3.726,14.536,14.536,0,0,1-1.866,6.672c.01-.144.028-.286.028-.444Zm-3.379-5.954v-.566l.132-.073.531.308C30.03,224.595,29.813,224.7,29.569,224.826Zm-5.4,13.968a4.371,4.371,0,0,1-.5-.053,3.669,3.669,0,0,1-.3-.414Z" transform="translate(-18.52 -217.061)"/><path class="o" d="M24.572,222.92v.584l2.438,1.412v-.581Z" transform="translate(-12.295 -211.035)"/><path class="o" d="M18.91,227.438a4.879,4.879,0,0,0,1.9,2.089l2.43,1.416a4.849,4.849,0,0,1-1.9-2.091c-.682-.4-1.367-.8-2.051-1.195C19.17,227.582,19.04,227.513,18.91,227.438Z" transform="translate(-18.118 -206.389)"/><g transform="translate(3.989 3.419)"><path class="o" d="M28.15,219.8c4.233-2.446,7.688-.479,7.7,4.388A16.878,16.878,0,0,1,28.2,237.45c-4.248,2.452-7.7.483-7.714-4.394S23.9,222.249,28.15,219.8Zm.049,17.236a16.077,16.077,0,0,0,7.288-12.639c-.014-4.637-3.3-6.513-7.335-4.181a16.081,16.081,0,0,0-7.3,12.631c.014,4.653,3.3,6.526,7.351,4.189Z" transform="translate(-20.486 -218.746)"/></g><g transform="translate(2.433 1.416)"><path class="p" d="M28.932,219.025c5.1-2.943,9.246-.578,9.264,5.276s-4.11,13.009-9.2,15.952-9.258.582-9.274-5.282S23.825,221.972,28.932,219.025Zm.057,19.441A16.878,16.878,0,0,0,36.638,225.2c-.012-4.866-3.467-6.834-7.7-4.388-4.25,2.45-7.682,8.392-7.664,13.258s3.467,6.846,7.714,4.394Z" transform="translate(-19.719 -217.759)"/></g><g transform="translate(4.35 3.884)"><path class="q" d="M27.969,219.978c4.035-2.333,7.321-.456,7.335,4.181A16.077,16.077,0,0,1,28.015,236.8c-4.049,2.337-7.337.465-7.351-4.189A16.081,16.081,0,0,1,27.969,219.978Zm3.061,8.994v-.58c0-1.142-.385-2.637-2.215-1.58l-.982.57c-.649.373-.874.26-.876-.347v-.355c0-.728.3-1.012.933-1.377.043-.024.083-.047.126-.073.6-.349,1.929-1.049,2.669-1.4l-.006-1.8a8.345,8.345,0,0,0-2.13.8l0-1.217-1.183.68,0,1.217a4.641,4.641,0,0,0-2.428,4.122l0,.886c0,.773.17,2.747,2.375,1.473l.949-.55c.609-.351.751-.13.753.377l0,.418a1.523,1.523,0,0,1-.945,1.3c-1.138.655-2.349,1.254-2.838,1.5l.006,1.783a6.056,6.056,0,0,0,2.152-.807l0,1.179,1.179-.684,0-1.148a4.719,4.719,0,0,0,2.45-4.379Z" transform="translate(-20.664 -218.976)"/></g><g transform="translate(8.626 6.519)"><path class="p" d="M26.379,220.275l0,1.217a8.342,8.342,0,0,1,2.13-.8l.006,1.8c-.74.353-2.065,1.053-2.669,1.4-.043.026-.083.049-.126.073-.631.365-.935.649-.933,1.377v.355c0,.607.227.72.876.347l.982-.57c1.83-1.057,2.211.438,2.215,1.58v.58a4.719,4.719,0,0,1-2.45,4.379l0,1.148-1.179.684,0-1.179a6.056,6.056,0,0,1-2.152.807l-.006-1.783c.489-.245,1.7-.844,2.838-1.5a1.523,1.523,0,0,0,.945-1.3l0-.418c0-.507-.144-.728-.753-.377l-.949.55c-2.2,1.274-2.375-.7-2.375-1.473l0-.886a4.641,4.641,0,0,1,2.428-4.122l0-1.217Z" transform="translate(-22.772 -220.275)"/></g></g></svg>