<svg xmlns="http://www.w3.org/2000/svg" xmlns:xlink="http://www.w3.org/1999/xlink" width="400.998" height="72.819" viewBox="0 0 400.998 72.819"><defs><style>.a{fill:url(#a);}.b{fill:url(#b);}.c{fill:#00a8ff;}.d{fill:url(#c);}.e{fill:url(#d);}.f{fill:url(#e);}.g{fill:url(#f);}.h{fill:url(#g);}.i{fill:url(#h);}.j{fill:url(#i);}.k{fill:#006ec6;}.l{fill:url(#j);}.m{fill:url(#k);}.n{fill:url(#l);}</style><linearGradient id="a" x1="0.5" y1="1" x2="0.5" gradientUnits="objectBoundingBox"><stop offset="0" stop-color="#006ec6"/><stop offset="0.11" stop-color="#0084db"/><stop offset="0.244" stop-color="#0098ef"/><stop offset="0.378" stop-color="#00a4fb"/><stop offset="0.514" stop-color="#00a8ff"/><stop offset="0.637" stop-color="#00a3fa"/><stop offset="0.769" stop-color="#0096ee"/><stop offset="0.905" stop-color="#0081d8"/><stop offset="1" stop-color="#006ec6"/></linearGradient><linearGradient id="b" x1="0.803" y1="0.501" x2="-0.759" y2="0.499" gradientUnits="objectBoundingBox"><stop offset="0" stop-color="#00a8ff"/><stop offset="0.263" stop-color="#00a4fb"/><stop offset="0.525" stop-color="#0098ef"/><stop offset="0.786" stop-color="#0084db"/><stop offset="1" stop-color="#006ec6"/></linearGradient><linearGradient id="c" x1="0.5" y1="1" x2="0.5" y2="-0.214" gradientUnits="objectBoundingBox"><stop offset="0" stop-color="#00a8ff"/><stop offset="0.263" stop-color="#00a4fb"/><stop offset="0.525" stop-color="#0098ef"/><stop offset="0.786" stop-color="#0084db"/><stop offset="0.999" stop-color="#006ec6"/></linearGradient><linearGradient id="d" x1="0.088" y1="-0.047" x2="0.888" y2="1.014" gradientUnits="objectBoundingBox"><stop offset="0.016" stop-color="#34d1ff"/><stop offset="0.262" stop-color="#00a8ff"/><stop offset="0.742" stop-color="#00a4fb"/><stop offset="0.8" stop-color="#00a4fa"/><stop offset="0.864" stop-color="#0096ec"/><stop offset="0.985" stop-color="#0072ca"/><stop offset="0.999" stop-color="#006ec6"/></linearGradient><linearGradient id="e" x1="0.68" y1="0.26" x2="0.369" y2="0.675" gradientUnits="objectBoundingBox"><stop offset="0" stop-color="#00a8ff"/><stop offset="0.126" stop-color="#00a3fa"/><stop offset="0.266" stop-color="#0095ed"/><stop offset="0.414" stop-color="#007fd7"/><stop offset="0.505" stop-color="#006ec6"/><stop offset="0.531" stop-color="#0075cd"/><stop offset="0.624" stop-color="#008be3"/><stop offset="0.726" stop-color="#009bf2"/><stop offset="0.841" stop-color="#00a5fc"/><stop offset="1" stop-color="#00a8ff"/></linearGradient><linearGradient id="f" x1="0.849" y1="-0.005" x2="-0.228" y2="1.079" gradientUnits="objectBoundingBox"><stop offset="0" stop-color="#34d1ff"/><stop offset="0.403" stop-color="#00a8ff"/><stop offset="0.495" stop-color="#00a3fa"/><stop offset="0.592" stop-color="#0097ee"/><stop offset="0.69" stop-color="#0082d9"/><stop offset="0.762" stop-color="#006ec6"/></linearGradient><linearGradient id="g" x1="1.136" y1="0.5" x2="-0.068" y2="0.5" gradientUnits="objectBoundingBox"><stop offset="0" stop-color="#34d1ff"/><stop offset="0.344" stop-color="#15b8ff"/><stop offset="0.554" stop-color="#00a8ff"/><stop offset="0.66" stop-color="#00a1f8"/><stop offset="0.811" stop-color="#008ee6"/><stop offset="0.988" stop-color="#0070c8"/><stop offset="1" stop-color="#006ec6"/></linearGradient><linearGradient id="h" x1="0.09" y1="-0.041" x2="0.949" y2="1.093" gradientUnits="objectBoundingBox"><stop offset="0.016" stop-color="#34d1ff"/><stop offset="0.208" stop-color="#00a8ff"/><stop offset="0.736" stop-color="#00a4fb"/><stop offset="0.8" stop-color="#00a4fa"/><stop offset="0.864" stop-color="#0096ec"/><stop offset="0.985" stop-color="#0072ca"/><stop offset="0.999" stop-color="#006ec6"/></linearGradient><linearGradient id="i" x1="1.217" y1="0.575" x2="-0.196" y2="0.36" gradientUnits="objectBoundingBox"><stop offset="0.002" stop-color="#34d1ff"/><stop offset="0.186" stop-color="#19bbff"/><stop offset="0.361" stop-color="#06adff"/><stop offset="0.485" stop-color="#00a8ff"/><stop offset="0.608" stop-color="#00a1f9"/><stop offset="0.772" stop-color="#0090e8"/><stop offset="0.961" stop-color="#0074cc"/><stop offset="1" stop-color="#006ec6"/></linearGradient><linearGradient id="j" x1="1.014" y1="0.503" x2="0.016" y2="0.497" gradientUnits="objectBoundingBox"><stop offset="0.031" stop-color="#34d1ff"/><stop offset="0.143" stop-color="#2dccff"/><stop offset="0.294" stop-color="#1cbeff"/><stop offset="0.466" stop-color="#00a8ff"/><stop offset="0.47" stop-color="#00a8ff"/><stop offset="0.596" stop-color="#00a1f9"/><stop offset="0.766" stop-color="#0090e8"/><stop offset="0.96" stop-color="#0074cc"/><stop offset="1" stop-color="#006ec6"/></linearGradient><linearGradient id="k" x1="0.4" y1="0.557" x2="-0.109" y2="0.85" gradientUnits="objectBoundingBox"><stop offset="0.017" stop-color="#34d1ff" stop-opacity="0"/><stop offset="0.258" stop-color="#34d1ff" stop-opacity="0.4"/><stop offset="0.302" stop-color="#30ceff" stop-opacity="0.439"/><stop offset="0.375" stop-color="#27c7ff" stop-opacity="0.541"/><stop offset="0.468" stop-color="#19bbff" stop-opacity="0.706"/><stop offset="0.577" stop-color="#05acff" stop-opacity="0.937"/><stop offset="0.605" stop-color="#00a8ff"/><stop offset="0.678" stop-color="#00a4fb"/><stop offset="0.75" stop-color="#0098ef"/><stop offset="0.821" stop-color="#0084db"/><stop offset="0.88" stop-color="#006ec6"/></linearGradient><linearGradient id="l" y1="0.5" x2="1" y2="0.5" gradientUnits="objectBoundingBox"><stop offset="0" stop-color="#00a8ff"/><stop offset="0.266" stop-color="#04abff"/><stop offset="0.559" stop-color="#11b5ff"/><stop offset="0.863" stop-color="#27c7ff"/><stop offset="1" stop-color="#34d1ff"/></linearGradient></defs><g transform="translate(-543.427 -707.429)"><g transform="translate(543.427 707.429)"><rect class="a" width="11.875" height="67.286" transform="translate(345.249 1.127)"/><path class="b" d="M616.627,1047.489h-15.5V987.782H589.248v71.582h27.379Z" transform="translate(-332.736 -986.875)"/><rect class="c" width="11.875" height="71.363" transform="translate(286.861 1.127)"/><rect class="d" width="11.875" height="71.363" transform="translate(302.041 1.127)"/><path class="e" d="M643.711,988.046h13.855l41.564,71.363H685.275Z" transform="translate(-341.675 -986.919)"/><path class="f" d="M748.856,988.046H735l-41.564,71.363h13.855Z" transform="translate(-349.838 -986.919)"/><path class="g" d="M548.435,987.782H526.73v71.583h21.705a33.053,33.053,0,0,0,33.053-33.053v-5.476A33.054,33.054,0,0,0,548.435,987.782Zm21.178,38.593a21.114,21.114,0,0,1-21.114,21.114H538.6v-47.8H548.5a21.115,21.115,0,0,1,21.114,21.114Z" transform="translate(-322.473 -986.875)"/><path class="h" d="M512.359,1059.5h12.535l-27.05-71.912H485.31L458.26,1059.5H470.8l5.211-13.854h31.141Zm-31.886-25.73,11.1-29.52,11.1,29.52Z" transform="translate(-311.233 -986.843)"/><path class="i" d="M695.806,988.046H709.66l41.564,71.693H737.37Z" transform="translate(-350.227 -986.919)"/><path class="j" d="M455.48,987.782v44.2a15.5,15.5,0,0,1-31.008,0v-44.2H412.6v44.2a27.38,27.38,0,0,0,27.38,27.38h0a27.379,27.379,0,0,0,27.379-27.38v-44.2Z" transform="translate(-303.738 -986.875)"/><path class="k" d="M394.465,1048.775a33.52,33.52,0,0,0,9.154-23.057v-4.288a33.647,33.647,0,1,0-67.294,0v4.288a33.652,33.652,0,0,0,42.393,32.492,1.5,1.5,0,0,0,.3-.031,10.311,10.311,0,0,1,3.048-.46H383.4a10.453,10.453,0,0,1,5.614,1.646h14.934A22.553,22.553,0,0,0,394.465,1048.775ZM348.2,1025.718v-4.254a21.772,21.772,0,0,1,43.544,0v4.254a21.772,21.772,0,0,1-43.544,0Z" transform="translate(-291.218 -986.875)"/><path class="l" d="M394.465,1048.775a33.52,33.52,0,0,0,9.154-23.057v-4.288a33.647,33.647,0,1,0-67.294,0v4.288a33.652,33.652,0,0,0,42.393,32.492,1.5,1.5,0,0,0,.3-.031,10.311,10.311,0,0,1,3.048-.46H383.4a10.453,10.453,0,0,1,5.614,1.646h14.934A22.553,22.553,0,0,0,394.465,1048.775ZM348.2,1025.718v-4.254a21.772,21.772,0,0,1,43.544,0v4.254a21.772,21.772,0,0,1-43.544,0Z" transform="translate(-291.218 -986.875)"/><path class="m" d="M402.822,1049.011a33.522,33.522,0,0,0,9.154-23.057v-4.289a33.654,33.654,0,0,0-24.74-32.446v12.615A21.772,21.772,0,0,1,400.1,1021.7v4.255a21.772,21.772,0,0,1-12.865,19.865v12.616a.772.772,0,0,0,.139-.021,10.3,10.3,0,0,1,3.048-.46h1.335a10.451,10.451,0,0,1,5.614,1.646h14.934A22.553,22.553,0,0,0,402.822,1049.011Z" transform="translate(-299.575 -987.111)"/><path class="n" d="M384.7,1069.544a12.447,12.447,0,0,1,10.451,1.412h15.272a24.393,24.393,0,0,0-34.637-10.326Z" transform="translate(-297.696 -998.254)"/><path class="c" d="M319.16,1033.665c-6.5-4.826-16.213-4.759-23.883-11.03a19.061,19.061,0,0,1-7.767-15.433c0-6.117,2.2-11.835,6.724-15.426,15.116-11.422,40.9-1.979,40.9,12.535-.66,0-12.6,2.039-12.535,1.98-.66-10.556-21.113-11.876-22.726-.151-1.685,10.048,12.829,11.366,23.138,15.89,2.57,1.2,8.165,4.053,10.772,9.974,6.629,18.49-9.865,27.067-22.289,27.067-15,.484-29.14-8.577-29.14-25.07l13.2-.66c1.319,9.9,7.916,13.854,15.833,13.854C322.6,1047.854,323.264,1036.637,319.16,1033.665Z" transform="translate(-282.359 -986.697)"/></g></g></svg>