<svg xmlns="http://www.w3.org/2000/svg" width="80.103" height="214.656" viewBox="0 0 80.103 214.656"><defs><style>.a{fill:#035ba2;}.b{fill:#eebcc5;}.c{fill:#e7ebf2;}.d{fill:#008de5;}.e{fill:#f9fbfc;}.f{fill:#efc260;}</style></defs><path class="a" d="M454.276,280.966q-.386,3.02-.769,6.036a7.125,7.125,0,0,0,.176,3.677,2.455,2.455,0,0,0,2.981,1.528,3.5,3.5,0,0,0,1.461-1.581A33.463,33.463,0,0,0,461.966,282c.841-3.318,1.687-11.415-3.648-9.65C454.655,273.564,454.7,277.617,454.276,280.966Z" transform="translate(-395.528 -77.69)"/><path class="a" d="M446.729,269.57c.908.05,1.328,1.15,1.461,2.051a20.05,20.05,0,0,1,.2,3.419c-.016.538-.231,5.78-.231,5.78l-1.278-.2-.393-4.326s-6.585,5.9-9.142,6.882c-.669.258-5.287,2.11-7.5-.32-1.493-1.637,1.183-3.408,1.9-3.809,3.318-1.859,8.853-6.969,9.733-7.175s1.971-2.193,2.456-2.949C444.2,268.51,446.234,269.542,446.729,269.57Z" transform="translate(-408.953 -79.528)"/><g transform="translate(0 27.548)"><path class="b" d="M427.131,204.868c-.346,0-.693-.014-1.036-.044a11,11,0,0,1-8.328-4.886c-1.618-2.345-6.539-9.483,19.052-33.3a5.462,5.462,0,0,1,7.444,8c-7.634,7.108-14.691,15.432-16.539,19.33,2.414-.357,8.049-3.815,12.673-8.364,2.292-4.042,7.556-11.448,14.36-9.177a5.462,5.462,0,0,1-1.9,10.641,19.807,19.807,0,0,0-3.244,4.44l-.367.677-.546.56C446.659,194.823,436.316,204.868,427.131,204.868Z" transform="translate(-416.299 -165.175)"/></g><g transform="translate(20.18 19.595)"><rect class="a" width="20.556" height="10.165" transform="matrix(-0.747, 0.664, -0.664, -0.747, 22.118, 7.598)"/><rect class="c" width="7.045" height="17.435" transform="matrix(0.664, 0.747, -0.747, 0.664, 15.235, 2.203)"/></g><path class="d" d="M467.923,227.223c-.971-6.1-4.444-14.582-4.444-14.582s7.388-24.6,6.531-26.081c-1.64-2.832-13.99-13.572-17.019-13.862s-7.793,1.548-7.793,1.548L434.75,184.825A10.916,10.916,0,0,0,432,195.413l5.432,17.948-3.953,20.121s-1.71-1.041,13.112,1.061,19.33,4.925,19.33,4.925l2.007-12.245" transform="translate(-407.723 -133.428)"/><path class="b" d="M467.864,262.528s.6-29.848,1.148-39.364-1.106-8.5-5.083-12.444c0,0-21.086,3.536-25.262-3.6,0,0-3.027-7.227-4.633,11.823-1.461,17.334.882,39.542.882,39.542s5.14,49.225,4.157,50.5-6.027,4.33-6.813,5.707-.1,1.966,1.868,1.573,8.778-4.92,9.565-6.2,1.456-2.615,1.515-7.648c.68-7.217,3.5-18.3,2.77-28.5-.659-9.232,1.873-16.381,2.18-18.761.521-4.039,1.657-37.3,1.657-37.3l-4.981-.07s7.138,38.47,8.269,46.627,13.338,47.037,13.338,47.037-2.311,14.063-.963,15.412,4.624-6.164,5.009-8.477.192-11.172.192-11.172Z" transform="translate(-407.531 -114.871)"/><path class="b" d="M436.239,166.175A12.2,12.2,0,1,0,450.2,156.047,12.2,12.2,0,0,0,436.239,166.175Z" transform="translate(-405.208 -142.83)"/><path class="b" d="M439.758,167.1,442.7,179.99h0a7.819,7.819,0,0,0,8.62,1.735h0a1.924,1.924,0,0,0,1.158-2.071l-1.919-12.416Z" transform="translate(-403.149 -136.547)"/><path class="b" d="M449.886,172.9c.067.025.148.069.219.1.17.072.335.14.526.239.055.027.111.059.167.089.233.123.482.267.741.421.033.02.059.033.092.053s.067.037.1.059l.042.028c.3.184.612.389.935.606.1.064.192.128.29.2q.485.332,1,.7c.122.089.248.181.372.273l.012.009c.251.186.5.376.762.571q.288.22.58.446l.219.173c.186.145.371.29.559.44q.309.246.618.5c.067.055.134.109.2.165.091.073.181.148.272.223.378.311.755.626,1.128.943l.3.254c.5.432,1,.865,1.483,1.3l0,0c-1.351,1.211-3.127,2.211-4.17,3.065-2.971,2.436-5.688,4.5-9.706,4.677a8.152,8.152,0,0,1-3.436-.5,7.554,7.554,0,0,1-4.042-4.547,15.481,15.481,0,0,1-.641-6.191c0-.022,0-.044.006-.067l2.843-2.878s4.763-1.838,7.793-1.548a2.766,2.766,0,0,1,.6.156C449.8,172.87,449.841,172.882,449.886,172.9Z" transform="translate(-403.882 -133.428)"/><path class="a" d="M437.838,198.889s3.737,7.644,15.037,6.834,10.861-7.547,10.861-7.547,9.01,2.687,8.622,26.577-1.169,39.681-1.169,39.681-12.651,14.752-37.109.695c0,0-3.026-44.425-3.026-51.309S433.162,206.178,437.838,198.889Z" transform="translate(-408.028 -119.13)"/><path class="e" d="M464.116,188.552l-22.239,7.921,3.351,22.544L476.3,207.44Z" transform="translate(-401.962 -124.524)"/><path class="f" d="M465.4,188.978,443.156,196.9l3.351,22.544,31.074-11.577Z" transform="translate(-401.245 -124.285)"/><g transform="translate(52.313 51.258)"><path class="b" d="M456.481,236.128a5.461,5.461,0,0,1-3.794-9.391c4.285-4.137,11.832-12.191,13.837-16.189,1.483-2.953-5.815-13.113-14.73-20.513a5.462,5.462,0,0,1,6.977-8.407,91.9,91.9,0,0,1,10.6,10.643c7.675,9.221,10,17.018,6.916,23.174-3.5,6.969-14.748,17.926-16.019,19.152A5.444,5.444,0,0,1,456.481,236.128Z" transform="translate(-449.822 -180.369)"/></g><path class="d" d="M450.051,156.047a12.2,12.2,0,0,0-13.694,8.87,12.189,12.189,0,0,0,14.706-1.422,12.166,12.166,0,0,0,8.92,7.442c.073-.3.147-.612.2-.927A12.2,12.2,0,0,0,450.051,156.047Z" transform="translate(-405.056 -142.83)"/><path class="d" d="M442.735,154.792a8.625,8.625,0,1,0,9.873-7.161A8.625,8.625,0,0,0,442.735,154.792Z" transform="translate(-401.542 -147.522)"/><path class="b" d="M448.3,165.788a3.714,3.714,0,1,0,4.252-3.084A3.714,3.714,0,0,0,448.3,165.788Z" transform="translate(-398.39 -139.039)"/><path class="a" d="M453.6,207.719l8.909,14.353-4.339,7.886-14.623-7.616Z" transform="translate(-401.026 -113.78)"/><path class="e" d="M448.925,167.1a1,1,0,1,0,1.147-.832A1,1,0,0,0,448.925,167.1Z" transform="translate(-398.018 -137.023)"/><path class="e" d="M439.785,173.919a1,1,0,1,0,1.149-.832A1,1,0,0,0,439.785,173.919Z" transform="translate(-403.141 -133.2)"/><path class="e" d="M438.249,175.7a1,1,0,1,0,1.149-.832A1,1,0,0,0,438.249,175.7Z" transform="translate(-404.002 -132.199)"/><path class="e" d="M437.752,178.859a1,1,0,1,0,1.147-.832A1,1,0,0,0,437.752,178.859Z" transform="translate(-404.281 -130.43)"/><path class="e" d="M439.619,180.729a1,1,0,1,0,1.149-.833A1,1,0,0,0,439.619,180.729Z" transform="translate(-403.234 -129.383)"/><path class="e" d="M442.484,179.98a1,1,0,1,0,1.147-.832A1,1,0,0,0,442.484,179.98Z" transform="translate(-401.628 -129.802)"/><path class="e" d="M444.684,178.444a1,1,0,1,0,1.149-.832A1,1,0,0,0,444.684,178.444Z" transform="translate(-400.395 -130.663)"/><path class="e" d="M446.512,176.534a1,1,0,1,0,1.147-.832A1,1,0,0,0,446.512,176.534Z" transform="translate(-399.371 -131.734)"/><path class="e" d="M447.093,175.164a1,1,0,1,0,1.148-.832A1,1,0,0,0,447.093,175.164Z" transform="translate(-399.045 -132.502)"/></svg>