<svg xmlns="http://www.w3.org/2000/svg" width="81.521" height="195.512" viewBox="0 0 81.521 195.512"><defs><style>.a{fill:#3e3577;}.b{fill:#eebcc5;}.c{fill:#cfccdf;}.d{fill:#035ba2;}.e{fill:#fff;}.f{fill:#a194ef;}.g{fill:#fff9ff;}.h{fill:#0a4e84;}</style></defs><path class="a" d="M304.85,435.965l-.922,8.091a59.973,59.973,0,0,1,9.575,3.056A3.14,3.14,0,0,1,315.2,450.6l0,.014-17.614.1s-2.765-.819-2.561-2.151a32.413,32.413,0,0,1,1.741-4.813l.614-9.114Z" transform="translate(-263.519 -255.202)"/><path class="b" d="M296.5,443.749l.614-9.114,7.477,1.33-.922,8.091a59.974,59.974,0,0,1,9.575,3.056c.032.016.059.037.092.053a5.6,5.6,0,0,1-4.444,1.6c-4.256-.093-12.252-2.106-13.453-2.415C295.93,445.042,296.5,443.749,296.5,443.749Z" transform="translate(-263.259 -255.202)"/><g transform="translate(13.877 171.916)"><path class="a" d="M298.9,434.633a2.242,2.242,0,0,1,1.084,2.315c-.32,1.162-1.886,2.4-3.542,3.83-3.687,3.175-9.588,6-11.06,5.326-2.458-1.128-.819-5.326-.615-6.248S296.65,432.073,298.9,434.633Z" transform="translate(-284.046 -427.464)"/><path class="b" d="M291.993,430.878l-.718,7.475s4.1-1.229,4.4-.717.41,2.151-2.866,4.4-7.58,3.175-8.091,2.252-.1-14.337-.1-14.337Z" transform="translate(-283.792 -429.956)"/></g><g transform="translate(2.834 35.624)"><path class="c" d="M295.368,378.976c-6.505,0-14.335-5.194-18-27.468l-.088-.536a4.819,4.819,0,0,1,9.384-2.195c.039.151.116.554.217,1.168,2.268,13.812,6.2,19.748,8.9,19.362,7.162-.941,13.46-9.427,15.283-12.618a4.819,4.819,0,0,1,8.385,4.751c-.36.639-8.99,15.659-22.41,17.425A12.837,12.837,0,0,1,295.368,378.976Z" transform="translate(-277.172 -345.122)"/></g><g transform="translate(10.07 88.75)"><path class="d" d="M293.878,463.451l3.186-41.749,1.017-37.059a7.463,7.463,0,0,0-8.374-6.391c-4.078.549-8.534,10.452-7.986,14.53l3.3,28.92,1.1,41.228C285.669,467.019,293.459,467.262,293.878,463.451Z" transform="translate(-281.675 -378.19)"/></g><g transform="translate(28.981 92.499)"><path class="d" d="M306.061,471.048l4.32-44.472.159-32.723c-.676-4.058-9.41-13.972-13.461-13.3s-3.949,5.4-3.274,9.453l3.991,37.639-.109,42.526Z" transform="translate(-293.447 -380.524)"/></g><path class="d" d="M317.6,380.367c.506,10.979,0,21.236,0,21.236l-27.027-4.1-8.74-1.717s-.8-16.193.3-18.689l17.512-3.21C304.946,372.915,314.166,376.2,317.6,380.367Z" transform="translate(-271.683 -292.154)"/><path class="b" d="M309.846,337.943a13.374,13.374,0,1,1-16.271-9.641A13.374,13.374,0,0,1,309.846,337.943Z" transform="translate(-270.491 -319.956)"/><path class="e" d="M281.658,362.249s-6.253-13.372-.128-17.6c4.637-.506,10.451,1.063,10.451,1.063s15.722,7.556,23.871,11.307c6.439,2.963.948,18.517,1.237,31.458.061,2.721,2.423,4.813,2.423,7.784v6.558s-18.787,3.2-25.265,1.038c-6.356-2.124-12.142-5.053-11.251-8.173s4.9-14.711,3.122-18.723S281.658,362.249,281.658,362.249Z" transform="translate(-273.326 -309.848)"/><path class="b" d="M309.565,351.551a4.655,4.655,0,1,1-4.654-4.654A4.654,4.654,0,0,1,309.565,351.551Z" transform="translate(-260.336 -308.421)"/><path class="b" d="M289.052,338.7l-2,14.352,10.355,2.86,2.662-12.873Z" transform="translate(-268.346 -313.393)"/><g transform="translate(38.969 15.367)"><path class="a" d="M341.213,345.046,319.8,332.778a1.89,1.89,0,0,0-1.316-.227c-.607.14-1.176.331-1.176.861l-.032,19.909,1.885,1.113c-.617.3-19.417,9.45-19.448,9.472l-.045.768a.926.926,0,0,0,.461.8c3.2,1.854,21.947,12.69,21.947,12.69a1.991,1.991,0,0,0,1.994,0l17.819-10.3a.607.607,0,0,0,.3-.521l.03-20.58A1.994,1.994,0,0,0,341.213,345.046Z" transform="translate(-299.664 -332.513)"/><g transform="translate(17.539 0.274)"><path class="f" d="M334.962,367.179,310.631,353.3l-.05-19.864a.746.746,0,0,1,1.117-.649l22.437,12.853a1.578,1.578,0,0,1,.792,1.362Z" transform="translate(-310.581 -332.684)"/><path class="g" d="M311.2,333.464l22.275,12.786.046,18.7L311.2,352.136Z" transform="translate(-310.203 -332.211)"/></g><g transform="translate(0.018 20.743)"><path class="f" d="M341.563,359.449l-24.317-14.024-17.2,9.94a.745.745,0,0,0,0,1.29l22.388,12.938a1.57,1.57,0,0,0,1.576,0Z" transform="translate(-299.675 -345.425)"/></g><path class="g" d="M318.345,357.57,310,352.752l-4.768,2.937,8.341,4.819Z" transform="translate(-296.286 -320.237)"/></g><g transform="translate(33.716 46.444)"><path class="c" d="M314.625,385.786c-6.507,0-14.337-5.2-18-27.473l-.092-.554A4.751,4.751,0,0,1,300.065,352a4.884,4.884,0,0,1,5.859,3.592c.039.149.117.551.217,1.163,2.268,13.815,6.258,19.753,8.9,19.366,8.565-1.126,15.213-12.494,15.279-12.61a4.82,4.82,0,0,1,8.391,4.746c-.362.638-8.994,15.658-22.412,17.422A12.778,12.778,0,0,1,314.625,385.786Z" transform="translate(-296.394 -351.857)"/></g><path class="b" d="M325.8,359.043a4.654,4.654,0,1,1-4.654-4.654A4.654,4.654,0,0,1,325.8,359.043Z" transform="translate(-250.486 -303.877)"/><path class="b" d="M300.917,351.389c-5.8-2.749-11.276-5.379-12.618-6.023-1.738.959-2.863,2.368-2.863,3.962,0,2.887,3.612,5.226,8.068,5.226C296.83,354.554,299.682,353.249,300.917,351.389Z" transform="translate(-269.325 -309.35)"/><path class="h" d="M307.509,336.657a13.374,13.374,0,1,1-16.273-9.641A13.373,13.373,0,0,1,307.509,336.657Z" transform="translate(-271.909 -320.736)"/><path class="h" d="M294.16,330.113a9.524,9.524,0,1,1-11.588-6.865A9.525,9.525,0,0,1,294.16,330.113Z" transform="translate(-275.408 -322.948)"/><path class="b" d="M302.312,338.395a4.157,4.157,0,1,1-5.057-3A4.155,4.155,0,0,1,302.312,338.395Z" transform="translate(-264.053 -315.476)"/></svg>