<svg xmlns="http://www.w3.org/2000/svg" width="87.673" height="209.501" viewBox="0 0 87.673 209.501"><defs><style>.a{fill:#3e3577;}.b{fill:#eebcc5;}.c{fill:#0a4e84;}.d{fill:#008de5;}.e{fill:#27c7ff;}.f{fill:#035ba2;}.g{fill:#fff;}.h{fill:#f9fbfc;}</style></defs><path class="a" d="M92.536,415.247c-.9.051-1.307,1.147-1.426,2.044a19.624,19.624,0,0,0-.157,3.4,3.958,3.958,0,0,0,.3,1.57,3.039,3.039,0,0,0,1.869,1.461,11.694,11.694,0,0,0,2.407.372c4.58.451,9.073,2.1,13.659,1.723a4.426,4.426,0,0,0,2.044-.561,1.857,1.857,0,0,0,.914-1.8c-.149-.807-.942-1.306-1.659-1.705a93.592,93.592,0,0,0-10.2-5.14,2.427,2.427,0,0,0-1.211-.255.86.86,0,0,0-.788.816,3.857,3.857,0,0,1-2.71.389,3.613,3.613,0,0,1-2.167-1.516C93.143,415.635,93.029,415.221,92.536,415.247Z" transform="translate(-46.542 -231.014)"/><path class="b" d="M91.793,418.8a3.729,3.729,0,0,0,3.366,4.341,58.042,58.042,0,0,0,9.637,1.525c.849.062,1.959-.076,2.148-.9a1.272,1.272,0,0,0-.435-1.275c-1.553-1.116-3.513-1.408-5.393-2.231a8.45,8.45,0,0,1-4.247-4.9,19.761,19.761,0,0,0-.505-2.078,2.879,2.879,0,0,0-2.107-1.676C90.423,410.93,91.648,416.561,91.793,418.8Z" transform="translate(-46.234 -233.063)"/><path class="a" d="M76.836,421.465a1.033,1.033,0,0,0-.939.508,2.809,2.809,0,0,0-.347,1.063,25.236,25.236,0,0,0-.37,3.65,2.036,2.036,0,0,0,1.084,1.764,9.552,9.552,0,0,1,2.518,2.733,16.326,16.326,0,0,0,9.981,6.069,1.99,1.99,0,0,0,2.338-1.6,4.006,4.006,0,0,0-.009-1.234,7.212,7.212,0,0,0-1.321-2.887,15.048,15.048,0,0,0-3.566-3.585,11.072,11.072,0,0,0-7.3-6.756A2.3,2.3,0,0,0,76.836,421.465Z" transform="translate(-55.281 -227.786)"/><path class="b" d="M76,422.6a16.7,16.7,0,0,0,.011,4.008c.668,4.045,4.12,6.958,7.338,9.5.715.564,1.659,1.157,2.469.743a1.654,1.654,0,0,0,.676-1.887,4.94,4.94,0,0,0-1.122-1.83c-2.024-2.425-4.064-5.112-4.313-8.261a25.019,25.019,0,0,1,.347-4.521c.188-1.81-.4-7.465-3.571-6.131C75.582,415.164,76.144,420.715,76,422.6Z" transform="translate(-54.894 -231.695)"/><path class="c" d="M81.379,309.479c-2.68.071-5.583.724-7.26,2.817a7.066,7.066,0,0,0-1.094,6.144c.365,1.4,1.082,2.761.961,4.2a6.119,6.119,0,0,1-2.306,3.82,24.121,24.121,0,0,0-3.358,3.091c-2.088,2.73-1.817,6.745-.093,9.718s4.636,5.063,7.647,6.718a36.926,36.926,0,0,0,14.309,4.585,26.627,26.627,0,0,0,14.68-2.694,13.629,13.629,0,0,0,5.166-4.32,11.647,11.647,0,0,0,1.468-8.737c-.387-1.886-1.149-3.672-1.682-5.522a23.563,23.563,0,0,1,.1-13.292c.485-1.6,1.135-3.363.4-4.863a5.862,5.862,0,0,0-1.471-1.7q-1.5-1.343-3.007-2.685a19.83,19.83,0,0,0-3.269-2.534c-3.548-2.027-9.049-1.884-12.81-.344-1.721.706-1.97,2.08-2.867,3.538C85.667,309.413,83.508,309.421,81.379,309.479Z" transform="translate(-59.904 -293.428)"/><g transform="translate(41.429 34.139)"><path class="d" d="M113.892,362.1c-2.6,0-10.5,0-24.492-35.985a5.441,5.441,0,0,1,10.142-3.944c4.911,12.619,11.349,25.073,14.634,28.534,2.665-2.358,7.378-10.275,10.634-18.06a5.441,5.441,0,1,1,10.04,4.2C126.121,357.718,118.635,362.1,113.892,362.1Zm-.591-10.791Z" transform="translate(-89.029 -318.7)"/></g><path class="e" d="M74.708,370.5c1.541-5.956,4.555-8.132,3.691-10.15-5.538-12.921-2.889-28.984-1.9-30.371,1.9-2.654,15.162-12.131,18.2-12.131s7.582,2.274,7.582,2.274l9.356,11.484a10.879,10.879,0,0,1,1.724,10.761l-5.32,15.75,4.74,21.331s-2.708-.339-17.606.339-19.638,3.047-19.638,3.047L74.708,370.5" transform="translate(-55.543 -285.035)"/><path class="f" d="M114.3,405.417s3.479-20.361,1.786-37.63c-1.861-18.977-7.45-24.039-7.45-24.039C104.573,350.859,79,345.98,79,345.98c-3.907,3.924-5.912,17.745-5.234,27.225s5.409,37.7,5.409,37.7-2.7,43.565-2.024,47.288l5.451.863s10.8-41.493,11.818-49.619.919-42.614.919-42.614l3.024-.106s1.586,33.131,2.161,37.154c.339,2.371-1.032,9.046-.972,18.267s.972,22.153,1.749,29.344l5.636.583Z" transform="translate(-56.14 -270.669)"/><path class="b" d="M106.283,312.623A12.153,12.153,0,1,1,93.4,301.251,12.154,12.154,0,0,1,106.283,312.623Z" transform="translate(-51.498 -294.252)"/><path class="b" d="M98.567,313.134l-4.138,12.5h0a7.791,7.791,0,0,1-8.714.9h0a1.92,1.92,0,0,1-.951-2.164l3.083-12.131Z" transform="translate(-49.999 -288.143)"/><rect class="g" width="30.174" height="24.629" transform="translate(6.193 67.409)"/><path class="b" d="M88.008,310.813a3.7,3.7,0,1,1-3.924-3.462A3.7,3.7,0,0,1,88.008,310.813Z" transform="translate(-52.266 -290.86)"/><rect class="a" width="30.174" height="24.629" transform="translate(3.082 67.409)"/><path class="c" d="M117.777,335.963l-9.575,3.648,3.674-17.57,9.575-3.648Z" transform="translate(-36.967 -284.731)"/><g transform="translate(0 43.486)"><path class="d" d="M86.825,376.26a5.416,5.416,0,0,1-2.3-.513c-4.493-2.1-19.346-9.6-21.836-18.074-2.452-8.33,10.156-21.773,21.163-31.582a5.441,5.441,0,0,1,7.241,8.123c-8.891,7.93-17.009,17.4-17.821,20.729,1.281,2.453,8.684,7.594,15.857,10.945a5.442,5.442,0,0,1-2.306,10.372ZM73.217,355.244Z" transform="translate(-62.38 -324.713)"/></g><g transform="translate(60.851 44.741)"><path class="b" d="M106.963,358.316a5.441,5.441,0,0,1-.44-10.864c2.447-1.331,7.782-10.038,11.358-18.592a5.441,5.441,0,1,1,10.04,4.2C119.192,353.936,111.706,358.316,106.963,358.316Zm-.591-10.791Zm.591-.092h0Z" transform="translate(-101.522 -325.52)"/></g><g transform="translate(0.087 69.503)"><path class="b" d="M86.792,366.978a5.413,5.413,0,0,1-2.3-.513c-4.493-2.1-19.346-9.6-21.836-18.074a5.414,5.414,0,0,1,3.663-6.716,5.47,5.47,0,0,1,6.777,3.647c.7,2.274,8.476,7.761,16,11.283a5.443,5.443,0,0,1-2.31,10.373Z" transform="translate(-62.436 -341.448)"/></g><path class="b" d="M91.1,317.976c-.068.019-.154.054-.225.078-.176.056-.347.107-.544.187-.056.022-.117.048-.174.071-.243.1-.5.219-.776.348l-.1.043c-.036.017-.068.031-.106.05l-.044.023c-.314.154-.644.326-.986.512l-.306.166q-.513.284-1.056.6c-.129.076-.263.157-.395.236l-.014.008c-.264.16-.535.323-.807.493-.205.128-.41.257-.619.389-.078.048-.157.1-.235.151-.2.126-.395.252-.6.382-.219.143-.438.288-.661.435l-.215.145-.291.2q-.606.408-1.208.829c-.107.075-.213.148-.319.224-.541.379-1.074.762-1.594,1.144l0,0c1.225,1.329,2.892,2.489,3.845,3.436,2.716,2.7,5.213,5,9.182,5.559a8.12,8.12,0,0,0,3.456-.17,7.523,7.523,0,0,0,4.44-4.126,15.464,15.464,0,0,0,1.225-6.078c0-.022,0-.044,0-.067l-2.545-3.125s-4.549-2.274-7.582-2.274a2.794,2.794,0,0,0-.614.1C91.194,317.954,91.15,317.963,91.1,317.976Z" transform="translate(-52.7 -285.035)"/><path class="c" d="M104.232,308.406a1.94,1.94,0,0,1-.661,2.864,8.218,8.218,0,0,1-3.809.774,11.038,11.038,0,0,0-4.673.945c-2.839,1.492-4.365,5.259-7.537,5.733a38.543,38.543,0,0,0-4.355-5c-1.433-1.575-3.734-4.278-2.972-6.267.558-1.46,2.052-2.307,3.06-3.5,1.64-1.949,2.037-4.894,4.129-6.348a6.63,6.63,0,0,1,5.292-.592c1.78.423,3.453,1.74,5.269,1.522,10.777-1.3,13.469,6.558,13.626,8.162.558,5.693-3.325,5.835-4.471,6.966C106.741,312.636,106.959,310.424,104.232,308.406Z" transform="translate(-52.567 -296.74)"/><path class="h" d="M83.786,310.922a.932.932,0,1,1-.989-.872A.931.931,0,0,1,83.786,310.922Z" transform="translate(-51.542 -289.36)"/></svg>