<svg xmlns="http://www.w3.org/2000/svg" xmlns:xlink="http://www.w3.org/1999/xlink" width="373.684" height="331.581" viewBox="0 0 373.684 331.581"><defs><style>.a,.c,.h,.k{fill:#fff;}.b{fill:#006ec6;}.c,.h,.k{font-size:8px;}.c,.h,.k,.m,.q{font-family:QuicksandBold-Regular, Quicksand;}.c{letter-spacing:0.02em;}.d{fill:#eff4f5;}.e,.i,.l{fill:none;}.e,.f,.i{stroke:#fff;}.e,.f{stroke-width:6px;}.f,.n{fill:rgba(0,0,0,0);}.g{fill:#0fb4ff;}.i,.l{stroke-width:3px;}.j{fill:#a4cb5b;}.k{letter-spacing:-0.02em;}.l{stroke:#eff4f5;}.m{fill:#829198;font-size:7px;}.o,.p,.q{fill:#5d5d5d;}.o{font-size:5px;}.o,.p{font-family:QuicksandBook-Regular, Quicksand;}.p,.q{font-size:4px;}.r{filter:url(#c);}.s{filter:url(#a);}</style><filter id="a" x="0" y="0" width="373.684" height="331.581" filterUnits="userSpaceOnUse"><feOffset dy="3" input="SourceAlpha"/><feGaussianBlur stdDeviation="3" result="b"/><feFlood flood-opacity="0.161"/><feComposite operator="in" in2="b"/><feComposite in="SourceGraphic"/></filter><filter id="c" x="288.329" y="284.197" width="70.172" height="35.967" filterUnits="userSpaceOnUse"><feOffset dy="3" input="SourceAlpha"/><feGaussianBlur stdDeviation="3" result="d"/><feFlood flood-opacity="0.161"/><feComposite operator="in" in2="d"/><feComposite in="SourceGraphic"/></filter></defs><g transform="translate(9 6)"><g transform="translate(0 0)"><g class="s" transform="matrix(1, 0, 0, 1, -9, -6)"><rect class="a" width="355.684" height="313.581" rx="19" transform="translate(9 6)"/></g><path class="b" d="M15,0H340.684a15,15,0,0,1,15,15V34.893a0,0,0,0,1,0,0H0a0,0,0,0,1,0,0V15A15,15,0,0,1,15,0Z" transform="translate(0 0)"/><path class="a" d="M2.816,6.168V3.889H.536a.536.536,0,1,1,0-1.073h2.28V.536a.536.536,0,1,1,1.073,0v2.28H6.168a.536.536,0,0,1,0,1.073H3.889V6.168a.536.536,0,0,1-1.073,0Z" transform="translate(340.511 6.207) rotate(45)"/><text class="c" transform="translate(34.434 19.774)"><tspan x="0" y="0">16202 - Requiers new task for delivery the next week </tspan></text><g transform="translate(11.478 44.994)"><rect class="d" width="96.722" height="89.012"/><line class="e" x2="84.586" transform="translate(12.32 29.853)"/><line class="f" x2="84.586" transform="translate(12.32 59.854)"/></g><rect class="g" width="97.09" height="28.925" transform="translate(11.478 44.535)"/><text class="h" transform="translate(58.963 62.931)"><tspan x="-7.572" y="0">Info</tspan></text><path class="i" d="M5024.36-350.36l4.43,2.993,7.1-8.788" transform="translate(-4712.909 410.72)"/><g class="r" transform="matrix(1, 0, 0, 1, -9, -6)"><rect class="j" width="52.172" height="17.967" rx="8.984" transform="translate(297.33 290.2)"/></g><text class="k" transform="translate(303.94 295.311)"><tspan x="0" y="0">Close</tspan></text><line class="l" x2="333.323" transform="translate(11.708 272.49)"/><text class="m" transform="translate(57.585 91.315)"><tspan x="-7.644" y="0">Task</tspan></text><text class="m" transform="translate(53.893 120.699)"><tspan x="-18.907" y="0">Comments</tspan></text><g transform="translate(13.314 11.019)"><g transform="translate(0 0)"><g transform="translate(2.022)"><path class="n" d="M11.887,15.522H.918A.918.918,0,0,1,0,14.6V.918A.918.918,0,0,1,.918,0h6.6l5.289,5.188V14.6a.918.918,0,0,1-.919.921Z"/><path class="a" d="M11.886,14.6h0V5.575L7.141.918H.918V14.6H11.886m0,.918H.919A.919.919,0,0,1,0,14.6V.918A.919.919,0,0,1,.919,0h6.6l5.289,5.19V14.6A.919.919,0,0,1,11.887,15.521Z" transform="translate(0 0)"/></g><path class="b" d="M-234.854,339.6a31.123,31.123,0,0,0-2.312,2.571s-.517.84.255,1.194,2.315,1.19,2.315,1.19.056,2.031.829,2.567,1.446,0,2.461-1.431,1.859-2.623,1.859-2.623.08-1.44-1.28-1.355-1.58.342-2.319-.544S-234.383,339.263-234.854,339.6Z" transform="translate(237.933 -338.343)"/><path class="a" d="M11.513,9.747A1.763,1.763,0,0,0,10.89,8.71c-.518-.518-1.659-1.348-2.385-1.97a10.917,10.917,0,0,1-.933-.83l1.14-1.348A1.569,1.569,0,0,0,8.5,2.592c-.518-.413-.933-.413-2.592-.311h-.1a.362.362,0,0,1-.208-.1S4.463.83,4.151.518A1.486,1.486,0,0,0,3.011,0a1.665,1.665,0,0,0-1.14.518L.315,2.385A2.181,2.181,0,0,0-.106,3.526,1.589,1.589,0,0,0,.523,4.562c.1,0,1.14.622,1.556.83.208.1.311.208.518.311a.539.539,0,0,1,.208.413,3.19,3.19,0,0,0,.622,1.97,1.559,1.559,0,0,0,2.281.208l1.14-1.348c.518.413,2.488,1.97,3.526,2.8A1.474,1.474,0,0,0,11,9.954h.622ZM7.677,3.94l-2.8,3.526h0c-.208.208-.413.1-.622-.1a2.281,2.281,0,0,1-.413-1.348A1.258,1.258,0,0,0,3.115,4.77L1.352,3.733a.444.444,0,0,1-.1-.726L2.7,1.348a.518.518,0,0,1,.83,0c.413.518.933,1.037,1.348,1.556s1.97.2,1.97.2.933-.2.933.426C7.781,3.733,7.781,3.836,7.677,3.94Z" transform="translate(0.106 0.776)"/></g></g><text class="o" transform="translate(121.504 186.272)"><tspan x="0" y="4">Lorem Ipsum is simply dummy text of the printing and typesetting industry. Lorem </tspan><tspan x="0" y="10">Ipsum has been the industry’s standard dummy text ever since the 1500s, when an </tspan><tspan x="0" y="16">unknown printer took a galley of type and scrambled it to make a type specimen </tspan><tspan x="0" y="22">book. It has survived not only five centuries, but also the leap into electronic </tspan><tspan x="0" y="28">typesetting.</tspan></text><text class="p" transform="translate(121.209 58.095)"><tspan x="0" y="0">Lorem Ipsum</tspan></text><text class="p" transform="translate(121.209 83.347)"><tspan x="0" y="0">Lorem Ipsum</tspan></text><text class="p" transform="translate(121.209 108.598)"><tspan x="0" y="0">Lorem Ipsum</tspan></text><text class="p" transform="translate(196.505 58.095)"><tspan x="0" y="0">Lorem Ipsum</tspan></text><text class="p" transform="translate(196.505 83.347)"><tspan x="0" y="0">Lorem Ipsum</tspan></text><text class="p" transform="translate(196.505 108.598)"><tspan x="0" y="0">Lorem Ipsum</tspan></text><text class="p" transform="translate(123.504 133.85)"><tspan x="0" y="0">Lorem Ipsum</tspan></text><text class="p" transform="translate(123.504 159.102)"><tspan x="0" y="0">Lorem Ipsum</tspan></text><text class="p" transform="translate(194.209 133.85)"><tspan x="0" y="0">Lorem Ipsum</tspan></text><text class="p" transform="translate(261.241 83.347)"><tspan x="0" y="0">Lorem Ipsum</tspan></text><text class="q" transform="translate(123.504 174.253)"><tspan x="0" y="0">Description</tspan></text><text class="q" transform="translate(125.341 98.498)"><tspan x="0" y="0">End Date</tspan></text><text class="q" transform="translate(125.341 73.246)"><tspan x="0" y="0">Group</tspan></text><text class="q" transform="translate(125.341 47.994)"><tspan x="0" y="0">Creator</tspan></text><text class="q" transform="translate(194.209 98.498)"><tspan x="0" y="0">Estimated Points</tspan></text><text class="q" transform="translate(194.209 73.246)"><tspan x="0" y="0">Creation Date</tspan></text><text class="q" transform="translate(194.209 47.994)"><tspan x="0" y="0">Applicant</tspan></text><text class="q" transform="translate(263.078 73.246)"><tspan x="0" y="0">Points Assigned</tspan></text><text class="q" transform="translate(125.341 123.749)"><tspan x="0" y="0">Product</tspan></text><text class="q" transform="translate(125.341 149.001)"><tspan x="0" y="0">Shared With</tspan></text><text class="q" transform="translate(196.046 123.749)"><tspan x="0" y="0">Done Points</tspan></text></g></g></svg>