<svg xmlns="http://www.w3.org/2000/svg" xmlns:xlink="http://www.w3.org/1999/xlink" width="181.646" height="102.664" viewBox="0 0 181.646 102.664"><defs><style>.a{fill:#0fb4ff;}.b,.c,.e,.g,.j{fill:#fff;}.b{font-size:30px;}.b,.c,.g,.j{font-family:QuicksandBold-Regular, Quicksand;letter-spacing:-0.05em;}.c{font-size:12px;}.d,.h,.i{fill:none;}.d{stroke:#009ee6;}.f{fill:#006ec6;}.g{font-size:5px;}.h,.i{stroke:#fff;stroke-linecap:round;stroke-miterlimit:10;}.i{stroke-linejoin:round;}.j{font-size:8px;}.k{filter:url(#a);}</style><filter id="a" x="0" y="0" width="181.646" height="102.664" filterUnits="userSpaceOnUse"><feOffset dy="3" input="SourceAlpha"/><feGaussianBlur stdDeviation="3" result="b"/><feFlood flood-opacity="0.161"/><feComposite operator="in" in2="b"/><feComposite in="SourceGraphic"/></filter></defs><g transform="translate(9 6)"><g class="k" transform="matrix(1, 0, 0, 1, -9, -6)"><rect class="a" width="163.646" height="84.664" rx="10" transform="translate(9 6)"/></g><text class="b" transform="translate(21.592 54.82)"><tspan x="0" y="0">3</tspan></text><text class="c" transform="translate(13.637 68.663)"><tspan x="0" y="0">tasks</tspan></text><line class="d" y2="40.912" transform="translate(61.083 32.104)"/><line class="d" x2="148.873" transform="translate(7.671 22.444)"/><rect class="e" width="75.047" height="6.25" rx="3.125" transform="translate(71.595 45.458)"/><rect class="f" width="28.978" height="6.25" rx="3.125" transform="translate(71.595 45.458)"/><text class="g" transform="translate(80.687 62.526)"><tspan x="0" y="0">Sprint deadline</tspan></text><g transform="translate(139.213 31.82)"><line class="h" y2="10.796" transform="translate(0 0)"/><path class="i" d="M1,9C3.308,7.894,3.77,4.108,1,3L9.31,6Z" transform="translate(-1 -2.077)"/></g><g transform="translate(50.002 3.957)"><text class="j" transform="translate(17.067 8.861)"><tspan x="0" y="0">PENDING</tspan></text><g transform="translate(0 0)"><ellipse class="i" cx="6.782" cy="6.782" rx="6.782" ry="6.782" transform="translate(0 0)"/><path class="i" d="M17.9,10.3v3.242h3.2" transform="translate(-10.777 -6.418)"/></g></g></g></svg>