<svg xmlns="http://www.w3.org/2000/svg" xmlns:xlink="http://www.w3.org/1999/xlink" width="181.805" height="103.232" viewBox="0 0 181.805 103.232"><defs><style>.a{fill:#92cc66;}.b,.c,.f,.g,.i{fill:#fff;}.b{font-size:30px;}.b,.c,.g,.i{font-family:QuicksandBold-Regular, Quicksand;letter-spacing:-0.05em;}.c{font-size:12px;}.d,.j{fill:none;}.d{stroke:#80ba54;}.e{fill:#64af2c;}.g{font-size:5px;}.h{font-family:LucidaGrande-Bold, Lucida Grande;font-weight:700;}.i{font-size:8px;}.j{stroke:#fff;stroke-linecap:round;stroke-linejoin:round;stroke-miterlimit:10;}.k{filter:url(#a);}</style><filter id="a" x="0" y="0" width="181.805" height="103.232" filterUnits="userSpaceOnUse"><feOffset dy="3" input="SourceAlpha"/><feGaussianBlur stdDeviation="3" result="b"/><feFlood flood-opacity="0.161"/><feComposite operator="in" in2="b"/><feComposite in="SourceGraphic"/></filter></defs><g transform="translate(9 6)"><g class="k" transform="matrix(1, 0, 0, 1, -9, -6)"><rect class="a" width="163.805" height="85.232" rx="10" transform="translate(9 6)"/></g><text class="b" transform="translate(25.001 55.388)"><tspan x="0" y="0">6</tspan></text><text class="c" transform="translate(15.91 69.231)"><tspan x="0" y="0">tasks</tspan></text><line class="d" y2="40.912" transform="translate(59.379 32.672)"/><line class="d" x2="148.873" transform="translate(7.671 23.012)"/><path class="e" d="M21.166,42.332A21.172,21.172,0,0,1,12.927,1.663,21.172,21.172,0,0,1,29.4,40.669,21.034,21.034,0,0,1,21.166,42.332Zm0-33.977a12.772,12.772,0,1,0,4.987,1.007A12.731,12.731,0,0,0,21.166,8.355Z" transform="translate(69.098 31.252)"/><path class="f" d="M21.143,31.576A21.148,21.148,0,0,1,0,11.4H8.37A12.812,12.812,0,1,0,32.948,5.424c-.144-.341-.305-.68-.478-1.007L39.578,0a21.3,21.3,0,0,1,1.068,2.172A21.149,21.149,0,0,1,36.11,25.377a21.1,21.1,0,0,1-14.967,6.2Z" transform="translate(100.675 31.274) rotate(90)"/><text class="g" transform="translate(116.484 66.367)"><tspan x="0" y="0">60</tspan><tspan class="h" y="0">%</tspan><tspan y="0"></tspan><tspan x="0" y="4">Developing</tspan></text><g transform="translate(39.207 3.807)"><text class="i" transform="translate(18.359 9.58)"><tspan x="0" y="0">DEVELOPING</tspan></text><path class="j" d="M15.49,7.42H14.027a5.39,5.39,0,0,0-.621-1.463L14.47,4.892a.751.751,0,0,0,0-1.02l-.843-.843a.751.751,0,0,0-1.02,0L11.544,4.094a5.39,5.39,0,0,0-1.463-.621V2.01a.7.7,0,0,0-.71-.71h-1.2a.7.7,0,0,0-.71.71V3.517A5.39,5.39,0,0,0,6,4.138L4.892,3.029a.751.751,0,0,0-1.02,0l-.843.843a.751.751,0,0,0,0,1.02L4.094,5.956A5.39,5.39,0,0,0,3.473,7.42H2.01a.7.7,0,0,0-.71.71v1.2a.7.7,0,0,0,.71.71H3.517A5.39,5.39,0,0,0,4.138,11.5L3.074,12.563a.751.751,0,0,0,0,1.02l.8.887a.751.751,0,0,0,1.02,0l1.064-1.064a5.39,5.39,0,0,0,1.463.621v1.508a.7.7,0,0,0,.71.71h1.2a.7.7,0,0,0,.71-.71V14.027a5.39,5.39,0,0,0,1.463-.621l1.064,1.064a.751.751,0,0,0,1.02,0l.843-.843a.751.751,0,0,0,0-1.02l-1.064-1.064a5.39,5.39,0,0,0,.621-1.463H15.49a.7.7,0,0,0,.71-.71v-1.2A.711.711,0,0,0,15.49,7.42ZM8.75,11.544A2.794,2.794,0,1,1,11.544,8.75,2.782,2.782,0,0,1,8.75,11.544Z" transform="translate(-1.3 -1.3)"/></g></g></svg>