<svg xmlns="http://www.w3.org/2000/svg" xmlns:xlink="http://www.w3.org/1999/xlink" width="181.805" height="103.232" viewBox="0 0 181.805 103.232"><defs><style>.a{fill:#ffbe2c;}.b,.c,.e,.h,.i{fill:#fff;}.b{font-size:28px;}.b,.c,.e,.i{font-family:QuicksandBold-Regular, Quicksand;letter-spacing:-0.05em;}.c{font-size:12px;}.d{fill:#efab14;}.e{font-size:5px;}.f{font-family:LucidaGrande-Bold, Lucida Grande;font-weight:700;}.g,.j{fill:none;}.g{stroke:#efab14;}.i{font-size:8px;}.j{stroke:#fff;stroke-linecap:round;stroke-linejoin:round;stroke-miterlimit:10;}.k{filter:url(#a);}</style><filter id="a" x="0" y="0" width="181.805" height="103.232" filterUnits="userSpaceOnUse"><feOffset dy="3" input="SourceAlpha"/><feGaussianBlur stdDeviation="3" result="b"/><feFlood flood-opacity="0.161"/><feComposite operator="in" in2="b"/><feComposite in="SourceGraphic"/></filter></defs><g transform="translate(9 6)"><g class="k" transform="matrix(1, 0, 0, 1, -9, -6)"><rect class="a" width="163.805" height="85.232" rx="14" transform="translate(9 6)"/></g><text class="b" transform="translate(26.138 53.388)"><tspan x="0" y="0">1</tspan></text><text class="c" transform="translate(17.047 69.231)"><tspan x="0" y="0">task</tspan></text><path class="d" d="M21.166,42.332A21.172,21.172,0,0,1,12.927,1.663,21.172,21.172,0,0,1,29.4,40.669,21.034,21.034,0,0,1,21.166,42.332Zm0-33.977a12.772,12.772,0,1,0,4.987,1.007A12.731,12.731,0,0,0,21.166,8.355Z" transform="translate(111.431 31.252) rotate(90)"/><text class="e" transform="translate(116.484 66.367)"><tspan x="0" y="0">25</tspan><tspan class="f" y="0">%</tspan><tspan y="0"></tspan><tspan x="0" y="4">Improving</tspan></text><line class="g" y2="40.912" transform="translate(61.652 32.672)"/><line class="g" x2="148.873" transform="translate(9.944 23.012)"/><path class="h" d="M12.727,21.024a12.724,12.724,0,0,0-1.006-4.844,12.778,12.778,0,0,0-2.745-4.072A12.761,12.761,0,0,0,4.9,9.362,12.719,12.719,0,0,0,0,8.355V0A21.03,21.03,0,0,1,8.156,1.663,21.09,21.09,0,0,1,14.884,6.2a21.088,21.088,0,0,1,4.536,6.728,21.025,21.025,0,0,1,1.663,8.1Z" transform="translate(90.348 31.252)"/><g transform="translate(42.617 3.409)"><text class="i" transform="translate(19.319 8.841)"><tspan x="0" y="0">IMPROVING</tspan></text><g transform="translate(0 0)"><path class="j" d="M15.405,5.37,8.424,1.2,1.345,5.176,1.2,13.321l6.981,4.121,7.078-3.976Z" transform="translate(-1.2 -1.2)"/><ellipse class="j" cx="3.733" cy="3.733" rx="3.733" ry="3.733" transform="translate(3.394 4.412)"/></g></g></g></svg>