<svg xmlns="http://www.w3.org/2000/svg" xmlns:xlink="http://www.w3.org/1999/xlink" width="336.821" height="214.553" viewBox="0 0 336.821 214.553"><defs><style>.a,.r{fill:#0fb4ff;}.b,.e,.g,.n,.o,.y{fill:#fff;}.c,.d,.f,.p,.t,.u,.v,.x{fill:none;}.c,.t,.u,.v{stroke:#006ec6;}.c,.p,.v{stroke-width:3px;}.c{opacity:0.183;}.d,.e,.p{stroke:#fff;}.d,.e{stroke-width:2px;}.g,.i,.k,.m{font-size:5px;}.g,.h,.i,.j,.k,.l,.m,.n,.o,.r,.s{font-family:QuicksandBold-Regular, Quicksand;letter-spacing:-0.05em;}.h,.i,.s{fill:#006ec6;}.h,.j,.l,.n,.r{font-size:7px;}.j,.k{fill:rgba(0,110,198,0.33);}.l,.m{fill:rgba(0,110,198,0.27);}.o{font-size:4px;}.p,.u,.v{stroke-linecap:round;stroke-linejoin:round;}.p,.t,.u,.v{stroke-miterlimit:10;}.q{fill:rgba(255,255,255,0.82);}.s{font-size:6px;}.t,.u{stroke-width:1.5px;}.w,.y{stroke:none;}.z{filter:url(#g);}.aa{filter:url(#e);}.ab{filter:url(#c);}.ac{filter:url(#a);}</style><filter id="a" x="0" y="0" width="336.821" height="214.553" filterUnits="userSpaceOnUse"><feOffset dy="3" input="SourceAlpha"/><feGaussianBlur stdDeviation="3" result="b"/><feFlood flood-opacity="0.161"/><feComposite operator="in" in2="b"/><feComposite in="SourceGraphic"/></filter><filter id="c" x="267.283" y="8.886" width="29.729" height="29.729" filterUnits="userSpaceOnUse"><feOffset dy="3" input="SourceAlpha"/><feGaussianBlur stdDeviation="3" result="d"/><feFlood flood-opacity="0.161"/><feComposite operator="in" in2="d"/><feComposite in="SourceGraphic"/></filter><filter id="e" x="282.922" y="8.886" width="29.729" height="29.729" filterUnits="userSpaceOnUse"><feOffset dy="3" input="SourceAlpha"/><feGaussianBlur stdDeviation="3" result="f"/><feFlood flood-opacity="0.161"/><feComposite operator="in" in2="f"/><feComposite in="SourceGraphic"/></filter><filter id="g" x="298.561" y="8.886" width="29.729" height="29.729" filterUnits="userSpaceOnUse"><feOffset dy="3" input="SourceAlpha"/><feGaussianBlur stdDeviation="3" result="h"/><feFlood flood-opacity="0.161"/><feComposite operator="in" in2="h"/><feComposite in="SourceGraphic"/></filter></defs><g transform="translate(9 6)"><g class="ac" transform="matrix(1, 0, 0, 1, -9, -6)"><path class="a" d="M11,0H307.821a11,11,0,0,1,11,11V196.553a0,0,0,0,1,0,0H0a0,0,0,0,1,0,0V11A11,11,0,0,1,11,0Z" transform="translate(9 6)"/></g><g class="ab" transform="matrix(1, 0, 0, 1, -9, -6)"><rect class="b" width="11.729" height="11.729" rx="5.865" transform="translate(276.28 14.89)"/></g><line class="c" x2="296.429" transform="translate(13.684 29.323)"/><g transform="translate(14.573 6.753)"><g class="d" transform="translate(0 1.777)"><rect class="w" width="16.35" height="13.506" rx="5"/><rect class="x" x="1" y="1" width="14.35" height="11.506" rx="4"/></g><g class="e" transform="translate(0 1.777)"><path class="w" d="M3.91,0h8.53a3.91,3.91,0,0,1,3.91,3.91v0a0,0,0,0,1,0,0H0a0,0,0,0,1,0,0v0A3.91,3.91,0,0,1,3.91,0Z"/><path class="x" d="M2.528,1H13.822A1.528,1.528,0,0,1,15.35,2.528v0a.382.382,0,0,1-.382.382H1.382A.382.382,0,0,1,1,2.528v0A1.528,1.528,0,0,1,2.528,1Z"/></g><circle class="a" cx="1.599" cy="1.599" r="1.599" transform="translate(2.133 2.133)"/><rect class="b" width="1.777" height="4.265" rx="0.889" transform="translate(2.843 0)"/><circle class="a" cx="1.599" cy="1.599" r="1.599" transform="translate(11.018 2.133)"/><rect class="b" width="1.777" height="4.265" rx="0.889" transform="translate(11.729 0)"/><g transform="translate(2.346 7.412)"><g class="f"><path class="w" d="M0,0H11.546V5.205H0Z"/><path class="y" d="M 2.000001907348633 2.000003337860107 L 2.000001907348633 3.205103397369385 L 9.545921325683594 3.205103397369385 L 9.545921325683594 2.000003337860107 L 2.000001907348633 2.000003337860107 M 1.9073486328125e-06 3.337860107421875e-06 L 11.54592132568359 3.337860107421875e-06 L 11.54592132568359 5.205103397369385 L 1.9073486328125e-06 5.205103397369385 L 1.9073486328125e-06 3.337860107421875e-06 Z"/></g><line class="d" x2="11.206" transform="translate(0.17 2.603)"/><line class="d" y2="4.621" transform="translate(2.453 0.23)"/><line class="d" y2="4.621" transform="translate(4.679 0.23)"/><line class="d" y2="4.621" transform="translate(6.906 0.23)"/><line class="d" y2="4.621" transform="translate(9.133 0.23)"/></g></g><text class="g" transform="translate(34.832 16.44)"><tspan x="0" y="0">CALENDAR</tspan></text><text class="h" transform="translate(28.079 63.291)"><tspan x="0" y="0">Su</tspan></text><text class="h" transform="translate(70.73 63.291)"><tspan x="0" y="0">Mo</tspan></text><text class="i" transform="translate(113.382 62.291)"><tspan x="0" y="0">Tu</tspan></text><text class="h" transform="translate(156.034 63.291)"><tspan x="0" y="0">We</tspan></text><text class="i" transform="translate(198.685 62.291)"><tspan x="0" y="0">Th</tspan></text><text class="h" transform="translate(241.337 63.291)"><tspan x="0" y="0">Fr</tspan></text><text class="j" transform="translate(28.079 89.592)"><tspan x="0" y="0">28</tspan></text><text class="k" transform="translate(70.73 88.592)"><tspan x="0" y="0">29</tspan></text><text class="j" transform="translate(113.382 89.592)"><tspan x="0" y="0">30</tspan></text><text class="j" transform="translate(156.034 89.592)"><tspan x="0" y="0">31</tspan></text><text class="l" transform="translate(155.678 174.185)"><tspan x="0" y="0">28</tspan></text><text class="m" transform="translate(198.33 173.185)"><tspan x="0" y="0">29</tspan></text><text class="l" transform="translate(240.981 174.185)"><tspan x="0" y="0">30</tspan></text><text class="n" transform="translate(28.079 132.244)"><tspan x="0" y="0">11</tspan></text><text class="n" transform="translate(70.73 132.244)"><tspan x="0" y="0">12</tspan></text><text class="n" transform="translate(113.382 132.244)"><tspan x="0" y="0">13</tspan></text><text class="g" transform="translate(156.034 131.244)"><tspan x="0" y="0">14</tspan></text><text class="n" transform="translate(198.685 132.244)"><tspan x="0" y="0">15</tspan></text><text class="n" transform="translate(241.337 132.244)"><tspan x="0" y="0">16</tspan></text><text class="n" transform="translate(28.079 153.57)"><tspan x="0" y="0">18</tspan></text><text class="n" transform="translate(70.73 153.57)"><tspan x="0" y="0">19</tspan></text><text class="n" transform="translate(113.382 153.57)"><tspan x="0" y="0">20</tspan></text><text class="n" transform="translate(156.034 153.57)"><tspan x="0" y="0">21</tspan></text><text class="n" transform="translate(198.685 153.57)"><tspan x="0" y="0">22</tspan></text><text class="n" transform="translate(241.337 153.57)"><tspan x="0" y="0">23</tspan></text><text class="n" transform="translate(28.079 174.896)"><tspan x="0" y="0">25</tspan></text><text class="g" transform="translate(70.73 173.896)"><tspan x="0" y="0">26</tspan></text><text class="g" transform="translate(113.382 173.896)"><tspan x="0" y="0">27</tspan></text><text class="n" transform="translate(156.034 174.896)"><tspan x="0" y="0">28</tspan></text><text class="o" transform="translate(199.041 87.592)"><tspan x="0" y="0">1</tspan></text><text class="g" transform="translate(241.693 88.592)"><tspan x="0" y="0">2</tspan></text><text class="n" transform="translate(131.865 44.453)"><tspan x="0" y="0">February 2018</tspan></text><path class="p" d="M4.424,7.6,1.2,4.424,4.424,1.2" transform="translate(26.879 38.431)"/><text class="i" transform="translate(70.73 110.629)"><tspan x="0" y="0">5</tspan></text><text class="h" transform="translate(113.382 111.629)"><tspan x="0" y="0">6</tspan></text><text class="i" transform="translate(156.034 110.629)"><tspan x="0" y="0">7</tspan></text><text class="h" transform="translate(198.685 111.629)"><tspan x="0" y="0">8</tspan></text><text class="h" transform="translate(241.337 111.629)"><tspan x="0" y="0">9</tspan></text><rect class="q" width="18.127" height="17.061" rx="8.53" transform="translate(192.288 101.653)"/><text class="r" transform="translate(199.041 111.629)"><tspan x="0" y="0">8</tspan></text><text class="s" transform="translate(28.079 111.629)"><tspan x="0" y="0">4</tspan></text><g class="aa" transform="matrix(1, 0, 0, 1, -9, -6)"><rect class="b" width="11.729" height="11.729" rx="5.865" transform="translate(291.92 14.89)"/></g><g class="z" transform="matrix(1, 0, 0, 1, -9, -6)"><rect class="b" width="11.729" height="11.729" rx="5.865" transform="translate(307.56 14.89)"/></g><path class="p" d="M3.224,6.4,0,3.224,3.224,0" transform="translate(292.188 46.028) rotate(180)"/><g transform="translate(270.127 11.018)"><path class="t" d="M5.725,7.189H.962A.47.47,0,0,1,.5,6.727V2.746a.573.573,0,0,1,.107-.32L2.384.542A.529.529,0,0,1,2.7.4H5.725a.47.47,0,0,1,.462.462V6.727A.47.47,0,0,1,5.725,7.189Z" transform="translate(-0.5 -0.4)"/><path class="u" d="M2,3.777H3.777V2" transform="translate(-1.467 -1.431)"/><line class="u" x1="3.199" transform="translate(1.599 5.545)"/><line class="u" x1="3.199" transform="translate(1.599 4.478)"/></g><line class="v" x1="4.976" transform="translate(286.299 14.786)"/><text class="h" transform="translate(283.989 63.291)"><tspan x="0" y="0">Sa</tspan></text><text class="l" transform="translate(283.633 174.185)"><tspan x="0" y="0">31</tspan></text><text class="n" transform="translate(283.989 132.244)"><tspan x="0" y="0">17</tspan></text><text class="n" transform="translate(283.989 153.57)"><tspan x="0" y="0">24</tspan></text><text class="g" transform="translate(284.344 88.592)"><tspan x="0" y="0">3</tspan></text><text class="h" transform="translate(283.989 111.629)"><tspan x="0" y="0">10</tspan></text></g></svg>