<svg xmlns="http://www.w3.org/2000/svg" xmlns:xlink="http://www.w3.org/1999/xlink" width="181.805" height="103.232" viewBox="0 0 181.805 103.232"><defs><style>.a{fill:#c1c1c1;}.b,.f{fill:none;}.b{stroke:#b2b2b2;}.c,.d,.e{fill:#e5e5e5;font-family:QuicksandBold-Regular, Quicksand;letter-spacing:-0.05em;}.c{font-size:30px;}.d{font-size:12px;}.e{font-size:8px;}.f{stroke:#e5e5e5;stroke-linecap:round;stroke-linejoin:round;stroke-miterlimit:10;}.g{filter:url(#a);}</style><filter id="a" x="0" y="0" width="181.805" height="103.232" filterUnits="userSpaceOnUse"><feOffset dy="3" input="SourceAlpha"/><feGaussianBlur stdDeviation="3" result="b"/><feFlood flood-opacity="0.161"/><feComposite operator="in" in2="b"/><feComposite in="SourceGraphic"/></filter></defs><g transform="translate(9 6)"><g transform="translate(0 0)"><g class="g" transform="matrix(1, 0, 0, 1, -9, -6)"><rect class="a" width="163.805" height="85.232" rx="10" transform="translate(9 6)"/></g><line class="b" y2="40.912" transform="translate(62.788 32.672)"/><line class="b" x2="148.873" transform="translate(7.671 23.013)"/><text class="c" transform="translate(22.16 53.684)"><tspan x="0" y="0">3</tspan></text><text class="d" transform="translate(14.205 67.526)"><tspan x="0" y="0">tasks</tspan></text><g transform="translate(46.026 3.409)"><text class="e" transform="translate(20.456 8.841)"><tspan x="0" y="0">BACKLOG</tspan></text><g transform="translate(0 0)"><g transform="translate(0 0)"><path class="f" d="M16.542,8.871A7.68,7.68,0,1,1,8.823,1.2,7.659,7.659,0,0,1,16.542,8.871Z" transform="translate(-1.2 -1.2)"/></g><path class="f" d="M13.836,16.175,10.7,13.088,13.836,10" transform="translate(-6.117 -5.754)"/><path class="f" d="M20.688,16.175,17.6,13.088,20.688,10" transform="translate(-9.688 -5.754)"/></g></g></g></g></svg>