<svg xmlns="http://www.w3.org/2000/svg" xmlns:xlink="http://www.w3.org/1999/xlink" width="181.805" height="103.232" viewBox="0 0 181.805 103.232"><defs><style>.a{fill:#f01458;}.b,.c,.e,.f,.i{fill:#fff;}.c{font-size:5px;}.c,.e,.f,.i{font-family:QuicksandBold-Regular, Quicksand;letter-spacing:-0.05em;}.d{font-family:LucidaGrande-Bold, Lucida Grande;font-weight:700;}.e{font-size:28px;}.f{font-size:12px;}.g,.j{fill:none;}.g{stroke:#c6004c;}.h{fill:#c6004c;}.i{font-size:8px;}.j{stroke:#fff;stroke-linecap:round;stroke-linejoin:round;stroke-miterlimit:10;}.k{filter:url(#a);}</style><filter id="a" x="0" y="0" width="181.805" height="103.232" filterUnits="userSpaceOnUse"><feOffset dy="3" input="SourceAlpha"/><feGaussianBlur stdDeviation="3" result="b"/><feFlood flood-opacity="0.161"/><feComposite operator="in" in2="b"/><feComposite in="SourceGraphic"/></filter></defs><g transform="translate(9 6)"><g transform="translate(0 0)"><g class="k" transform="matrix(1, 0, 0, 1, -9, -6)"><rect class="a" width="163.805" height="85.232" rx="10" transform="translate(9 6)"/></g><path class="b" d="M21.166,42.332A21.172,21.172,0,0,1,12.927,1.663,21.172,21.172,0,0,1,29.4,40.669,21.034,21.034,0,0,1,21.166,42.332Zm0-33.977a12.772,12.772,0,1,0,4.987,1.007A12.731,12.731,0,0,0,21.166,8.355Z" transform="translate(114.84 31.252) rotate(90)"/><text class="c" transform="translate(119.894 66.367)"><tspan x="0" y="0">95</tspan><tspan class="d" y="0">%</tspan><tspan y="0"></tspan><tspan x="0" y="4">Completed</tspan></text><text class="e" transform="translate(26.706 53.388)"><tspan x="0" y="0">1</tspan></text><text class="f" transform="translate(15.342 69.231)"><tspan x="0" y="0">tasks</tspan></text><line class="g" y2="40.912" transform="translate(62.788 32.672)"/><line class="g" x2="148.873" transform="translate(7.671 23.013)"/><path class="h" d="M0,8.355V0A21.1,21.1,0,0,1,5.741.81L3.57,8.883A12.766,12.766,0,0,0,0,8.355Z" transform="translate(93.756 31.252)"/><g transform="translate(47.73 3.864)"><text class="i" transform="translate(19.433 8.387)"><tspan x="0" y="0">EXPIRING</tspan></text><g transform="translate(0 0)"><ellipse class="j" cx="7.444" cy="7.444" rx="7.444" ry="7.444" transform="translate(0 0)"/><line class="j" y2="6.133" transform="translate(7.444 2.949)"/><ellipse class="b" cx="0.983" cy="0.983" rx="0.983" ry="0.983" transform="translate(6.461 11.048)"/></g></g></g></g></svg>