<svg xmlns="http://www.w3.org/2000/svg" xmlns:xlink="http://www.w3.org/1999/xlink" width="625.5" height="360.611" viewBox="0 0 625.5 360.611"><defs><style>.a,.m{fill:#fff;}.b,.r{fill:#006ec6;}.c,.d,.f,.h,.j,.l,.q,.s{fill:none;}.c,.l,.q,.s{stroke:#006ec6;}.c{stroke-width:2px;}.d{stroke:#ebebeb;}.d,.h,.j,.l,.q{stroke-width:3px;}.e{opacity:0.231;}.f{stroke:#707070;}.g{fill:#69e2e6;}.h{stroke:#69e2e6;}.i,.p{fill:#707070;}.i{font-size:9px;font-family:QuicksandBook-Regular, Quicksand;}.i,.n,.p,.r{letter-spacing:-0.05em;}.j{stroke:#b11212;}.k{fill:#b11212;}.m{opacity:0.15;}.n{fill:#bababa;font-size:11px;}.n,.p,.r{font-family:QuicksandBold-Regular, Quicksand;}.o{fill:#ecf2f7;}.p,.r{font-size:13px;}.q,.s{stroke-linecap:round;stroke-linejoin:round;stroke-miterlimit:10;}.t{filter:url(#e);}.u{filter:url(#c);}.v{filter:url(#a);}</style><filter id="a" x="0" y="0" width="625.5" height="360.611" filterUnits="userSpaceOnUse"><feOffset dy="3" input="SourceAlpha"/><feGaussianBlur stdDeviation="3" result="b"/><feFlood flood-opacity="0.161"/><feComposite operator="in" in2="b"/><feComposite in="SourceGraphic"/></filter><filter id="c" x="550.999" y="89.379" width="19" height="213.294" filterUnits="userSpaceOnUse"><feOffset dy="3" input="SourceAlpha"/><feGaussianBlur stdDeviation="3" result="d"/><feFlood flood-color="#fff" flood-opacity="0.161"/><feComposite operator="in" in2="d"/><feComposite in="SourceGraphic"/></filter><filter id="e" x="374.523" y="13.545" width="208.309" height="40.35" filterUnits="userSpaceOnUse"><feOffset dy="3" input="SourceAlpha"/><feGaussianBlur stdDeviation="3" result="f"/><feFlood flood-opacity="0.161"/><feComposite operator="in" in2="f"/><feComposite in="SourceGraphic"/></filter></defs><g transform="translate(-668 -252.308)"><g transform="translate(677 258.308)"><g class="v" transform="matrix(1, 0, 0, 1, -9, -6)"><path class="a" d="M11,0H596.5a11,11,0,0,1,11,11V342.611a0,0,0,0,1,0,0H0a0,0,0,0,1,0,0V11A11,11,0,0,1,11,0Z" transform="translate(9 6)"/></g><rect class="b" width="19.969" height="19.969" rx="7" transform="translate(573.637 14.222)"/><path class="a" d="M4.435,10.08V6.854H1.21a1.21,1.21,0,0,1,0-2.419H4.435V1.21a1.21,1.21,0,0,1,2.419,0V4.435H10.08a1.21,1.21,0,1,1,0,2.419H6.854V10.08a1.21,1.21,0,1,1-2.419,0Z" transform="translate(577.976 18.963)"/><line class="c" x2="579.732" transform="translate(13.884 51.133)"/><path class="d" d="M375.5,461.229V656.5H859.914" transform="translate(-308.524 -372.078)"/><g class="e" transform="translate(67.284 89.151)"><line class="f" x2="484.215" transform="translate(0 167.59)"/><line class="f" x2="484.215" transform="translate(0 55.863)"/><line class="f" x2="484.215" transform="translate(0 111.727)"/><line class="f" x2="484.215"/><line class="f" x2="484.215" transform="translate(0 139.659)"/><line class="f" x2="484.215" transform="translate(0 27.932)"/><line class="f" x2="484.215" transform="translate(0 83.795)"/><g class="u" transform="matrix(1, 0, 0, 1, -76.28, -95.15)"><line class="f" y2="195.294" transform="translate(560.5 95.38)"/></g><line class="f" y2="195.294" transform="translate(194.215 0.228)"/><line class="f" y2="195.294" transform="translate(96.953 0.228)"/><line class="f" y2="195.294" transform="translate(291.477 0.228)"/><line class="f" y2="195.294" transform="translate(387.846 0.228)"/></g><g transform="translate(64.424 86.616)"><circle class="g" cx="2.539" cy="2.539" r="2.539"/><circle class="g" cx="2.539" cy="2.539" r="2.539" transform="translate(97.761 35.549)"/><circle class="g" cx="2.539" cy="2.539" r="2.539" transform="translate(194.887 81.891)"/><circle class="g" cx="2.539" cy="2.539" r="2.539" transform="translate(292.013 113.631)"/><circle class="g" cx="2.539" cy="2.539" r="2.539" transform="translate(388.505 156.164)"/></g><path class="h" d="M388.1,486.963l100.246,36.591L581.8,568.912,683.049,602.3l93.767,41.844,95.434,39.3" transform="translate(-321.072 -398.466)"/><text class="i" transform="translate(44.699 92.012)"><tspan x="0" y="0">35</tspan></text><text class="i" transform="translate(43.344 121.134)"><tspan x="0" y="0">30</tspan></text><text class="i" transform="translate(44.699 148.901)"><tspan x="0" y="0">25</tspan></text><text class="i" transform="translate(43.344 176.669)"><tspan x="0" y="0">20</tspan></text><text class="i" transform="translate(48.085 204.436)"><tspan x="0" y="0">15</tspan></text><text class="i" transform="translate(46.731 232.204)"><tspan x="0" y="0">10</tspan></text><text class="i" transform="translate(52.149 259.972)"><tspan x="0" y="0">5</tspan></text><text class="i" transform="translate(50.794 284.353)"><tspan x="0" y="0">0</tspan></text><text class="i" transform="translate(58.921 296.543)"><tspan x="0" y="0">5 feb</tspan></text><text class="i" transform="translate(153.737 296.543)"><tspan x="0" y="0">6 feb</tspan></text><text class="i" transform="translate(251.263 296.543)"><tspan x="0" y="0">7 feb</tspan></text><text class="i" transform="translate(345.401 296.543)"><tspan x="0" y="0">8 feb</tspan></text><text class="i" transform="translate(445.635 296.543)"><tspan x="0" y="0">9 feb</tspan></text><text class="i" transform="translate(539.097 296.543)"><tspan x="0" y="0">10 feb</tspan></text><path class="j" d="M388.1,486.963l94.959,47.885L585.92,561.97l95.041,45.215,97.268,33.943,94.021,42.312" transform="translate(-321.072 -398.466)"/><circle class="k" cx="2.539" cy="2.539" r="2.539" transform="translate(64.66 86.948)"/><circle class="k" cx="2.539" cy="2.539" r="2.539" transform="translate(160.153 133.679)"/><circle class="k" cx="2.539" cy="2.539" r="2.539" transform="translate(261.742 160.092)"/><circle class="k" cx="2.539" cy="2.539" r="2.539" transform="translate(357.235 206.146)"/><circle class="k" cx="2.539" cy="2.539" r="2.539" transform="translate(454.083 239.331)"/><circle class="k" cx="2.539" cy="2.539" r="2.539" transform="translate(548.222 281.999)"/><circle class="a" cx="2.539" cy="2.539" r="2.539" transform="translate(548.151 282.138)"/><line class="l" x2="483.726" y2="194.887" transform="translate(67.281 89.473)"/><g transform="translate(64.339 86.293)"><circle class="b" cx="2.806" cy="2.806" r="2.806"/><circle class="b" cx="2.806" cy="2.806" r="2.806" transform="translate(97.316 39.283)"/><circle class="b" cx="2.806" cy="2.806" r="2.806" transform="translate(194.633 77.932)"/><circle class="b" cx="2.806" cy="2.806" r="2.806" transform="translate(292.023 118.485)"/><circle class="b" cx="2.806" cy="2.806" r="2.806" transform="translate(387.509 156.572)"/><circle class="b" cx="2.806" cy="2.806" r="2.806" transform="translate(483.142 195.441)"/></g><rect class="m" width="607.5" height="32.508" transform="translate(0 310.184)"/><circle class="b" cx="5.388" cy="5.388" r="5.388" transform="translate(133.521 321.137)"/><circle class="g" cx="5.388" cy="5.388" r="5.388" transform="translate(229.913 321.137)"/><circle class="k" cx="5.388" cy="5.388" r="5.388" transform="translate(377.556 321.137)"/><text class="n" transform="translate(149.686 328.538)"><tspan x="0" y="0">Sprint</tspan></text><text class="n" transform="translate(246.079 328.538)"><tspan x="0" y="0">Carolina Vargas</tspan></text><text class="n" transform="translate(393.721 328.538)"><tspan x="0" y="0">Andrés Contreras</tspan></text><g class="t" transform="matrix(1, 0, 0, 1, -9, -6)"><rect class="o" width="190.309" height="22.349" rx="11.175" transform="translate(383.52 19.55)"/></g><text class="p" transform="translate(401.614 28.963)"><tspan x="0" y="0">DESIGN DEPARTMENT</tspan></text><path class="q" d="M3.947,7.834,0,3.948,3.947,0" transform="translate(547.733 27.224) rotate(-90)"/></g><text class="r" transform="translate(743.371 288.625)"><tspan x="0" y="0">BURNDOWN</tspan></text><path class="s" d="M15.176,6.343A18.171,18.171,0,0,1,12.5,11.82C13.84,6.477,11.168.8,11.168.8c0,4.408-8.949,8.816-9.951,14.359-1.4,5.61,1.469,9.283,4.274,11.42a11.481,11.481,0,0,1-.8-4.207c0-3.473,2.2-7.68,3.807-9.884a12.391,12.391,0,0,1,1.336,7.346,10.988,10.988,0,0,0,3.54-4.141C16.511,22.505,12.5,27.18,9.9,28.85,27.865,22.505,15.176,6.343,15.176,6.343Z" transform="translate(717.549 267.205)"/></g></svg>