<svg xmlns="http://www.w3.org/2000/svg" xmlns:xlink="http://www.w3.org/1999/xlink" width="462.166" height="509.721" viewBox="0 0 462.166 509.721"><defs><style>.a,.o{fill:#fff;}.b,.d,.f,.n,.r{fill:none;}.b{stroke:#bfbfbf;}.b,.d{stroke-width:2px;}.c,.e,.i{fill:#707070;}.c{font-size:13px;letter-spacing:-0.05em;}.c,.i,.o{font-family:QuicksandBold-Regular, Quicksand;}.d{stroke:#707070;}.f{stroke:#0fb4ff;stroke-width:3px;}.f,.n{stroke-linecap:round;stroke-linejoin:round;stroke-miterlimit:10;}.g{fill:#ecf2f7;}.h{fill:#c7c7c7;}.i{font-size:9px;}.i,.o{letter-spacing:-0.1em;}.j{fill:#f01458;}.k{fill:#efab14;}.l{fill:#80ba54;}.m{fill:#0fb4ff;}.n{stroke:#fff;}.o{font-size:7px;}.p{fill:#ebebeb;}.q{stroke:none;}.s{filter:url(#a);}</style><filter id="a" x="0" y="0" width="462.166" height="509.721" filterUnits="userSpaceOnUse"><feOffset dy="3" input="SourceAlpha"/><feGaussianBlur stdDeviation="3" result="b"/><feFlood flood-opacity="0.161"/><feComposite operator="in" in2="b"/><feComposite in="SourceGraphic"/></filter></defs><g transform="translate(-170 -168)"><g class="s" transform="matrix(1, 0, 0, 1, 170, 168)"><rect class="a" width="444.166" height="491.721" rx="11" transform="translate(9 6)"/></g><line class="b" x2="390.922" transform="translate(208.074 231.097)"/><text class="c" transform="translate(249.774 209.221)"><tspan x="0" y="0">TO DO LIST</tspan></text><g transform="translate(211.227 192.215)"><g class="d" transform="translate(0 5.254)"><rect class="q" width="17.514" height="21.718" rx="3"/><rect class="r" x="1" y="1" width="15.514" height="19.718" rx="2"/></g><rect class="e" width="8.632" height="1.401" rx="0.701" transform="translate(5.605 10.158)"/><rect class="e" width="1.401" height="1.401" rx="0.701" transform="translate(3.503 10.158)"/><rect class="e" width="1.401" height="1.401" rx="0.701" transform="translate(3.503 13.661)"/><rect class="e" width="1.401" height="1.401" rx="0.701" transform="translate(3.503 17.164)"/><rect class="e" width="1.401" height="1.401" rx="0.701" transform="translate(3.503 20.667)"/><rect class="e" width="8.632" height="1.401" rx="0.701" transform="translate(5.605 20.667)"/><rect class="e" width="7.481" height="1.401" rx="0.701" transform="translate(5.605 13.661)"/><rect class="e" width="6.33" height="1.401" rx="0.701" transform="translate(5.605 17.164)"/><rect class="e" width="9.108" height="4.203" rx="2" transform="translate(4.203 4.554)"/><rect class="e" width="4.904" height="4.904" rx="2.452" transform="translate(11.209 0) rotate(90)"/></g><path class="f" d="M7.554,13.81,1.2,7.554,7.554,1.2" transform="translate(558.213 198.371)"/><path class="f" d="M6.354,12.61,0,6.354,6.354,0" transform="translate(596.593 212.182) rotate(180)"/><g transform="translate(208.424 250.363)"><rect class="g" width="390.572" height="26.61" transform="translate(0 0)"/><rect class="h" width="3.713" height="26.61" transform="translate(0 0)"/><g transform="translate(10.52 5.569)"><circle class="h" cx="1.547" cy="1.547" r="1.547"/><circle class="h" cx="1.547" cy="1.547" r="1.547" transform="translate(0 6.188)"/><circle class="h" cx="1.547" cy="1.547" r="1.547" transform="translate(0 12.377)"/><circle class="h" cx="1.547" cy="1.547" r="1.547" transform="translate(6.188)"/><circle class="h" cx="1.547" cy="1.547" r="1.547" transform="translate(6.188 6.188)"/><circle class="h" cx="1.547" cy="1.547" r="1.547" transform="translate(6.188 12.377)"/></g><rect class="h" width="10.509" height="10.509" rx="3" transform="translate(30.825 7.706)"/></g><g transform="translate(208.424 293.098)"><rect class="g" width="390.572" height="26.61" transform="translate(0 0)"/><rect class="h" width="3.713" height="26.61" transform="translate(0 0)"/><g transform="translate(10.52 5.569)"><circle class="h" cx="1.547" cy="1.547" r="1.547"/><circle class="h" cx="1.547" cy="1.547" r="1.547" transform="translate(0 6.188)"/><circle class="h" cx="1.547" cy="1.547" r="1.547" transform="translate(0 12.377)"/><circle class="h" cx="1.547" cy="1.547" r="1.547" transform="translate(6.188)"/><circle class="h" cx="1.547" cy="1.547" r="1.547" transform="translate(6.188 6.188)"/><circle class="h" cx="1.547" cy="1.547" r="1.547" transform="translate(6.188 12.377)"/></g><rect class="h" width="10.509" height="10.509" rx="3" transform="translate(30.825 7.706)"/></g><g transform="translate(208.424 335.833)"><rect class="g" width="390.572" height="26.61" transform="translate(0 0)"/><rect class="h" width="3.713" height="26.61" transform="translate(0 0)"/><g transform="translate(10.52 5.569)"><circle class="h" cx="1.547" cy="1.547" r="1.547"/><circle class="h" cx="1.547" cy="1.547" r="1.547" transform="translate(0 6.188)"/><circle class="h" cx="1.547" cy="1.547" r="1.547" transform="translate(0 12.377)"/><circle class="h" cx="1.547" cy="1.547" r="1.547" transform="translate(6.188)"/><circle class="h" cx="1.547" cy="1.547" r="1.547" transform="translate(6.188 6.188)"/><circle class="h" cx="1.547" cy="1.547" r="1.547" transform="translate(6.188 12.377)"/></g><rect class="h" width="10.509" height="10.509" rx="3" transform="translate(30.825 7.706)"/></g><g transform="translate(208.424 378.568)"><rect class="g" width="390.572" height="26.61" transform="translate(0 0)"/><rect class="h" width="3.713" height="26.61" transform="translate(0 0)"/><g transform="translate(10.52 5.569)"><circle class="h" cx="1.547" cy="1.547" r="1.547"/><circle class="h" cx="1.547" cy="1.547" r="1.547" transform="translate(0 6.188)"/><circle class="h" cx="1.547" cy="1.547" r="1.547" transform="translate(0 12.377)"/><circle class="h" cx="1.547" cy="1.547" r="1.547" transform="translate(6.188)"/><circle class="h" cx="1.547" cy="1.547" r="1.547" transform="translate(6.188 6.188)"/><circle class="h" cx="1.547" cy="1.547" r="1.547" transform="translate(6.188 12.377)"/></g><rect class="h" width="10.509" height="10.509" rx="3" transform="translate(30.825 7.706)"/></g><g transform="translate(208.424 421.304)"><rect class="g" width="390.572" height="26.61" transform="translate(0 0)"/><rect class="h" width="3.713" height="26.61" transform="translate(0 0)"/><g transform="translate(10.52 5.569)"><circle class="h" cx="1.547" cy="1.547" r="1.547"/><circle class="h" cx="1.547" cy="1.547" r="1.547" transform="translate(0 6.188)"/><circle class="h" cx="1.547" cy="1.547" r="1.547" transform="translate(0 12.377)"/><circle class="h" cx="1.547" cy="1.547" r="1.547" transform="translate(6.188)"/><circle class="h" cx="1.547" cy="1.547" r="1.547" transform="translate(6.188 6.188)"/><circle class="h" cx="1.547" cy="1.547" r="1.547" transform="translate(6.188 12.377)"/></g><rect class="h" width="10.509" height="10.509" rx="3" transform="translate(30.825 7.706)"/></g><g transform="translate(208.424 464.039)"><rect class="g" width="390.572" height="26.61" transform="translate(0 0)"/><rect class="h" width="3.713" height="26.61" transform="translate(0 0)"/><g transform="translate(10.52 5.569)"><circle class="h" cx="1.547" cy="1.547" r="1.547"/><circle class="h" cx="1.547" cy="1.547" r="1.547" transform="translate(0 6.188)"/><circle class="h" cx="1.547" cy="1.547" r="1.547" transform="translate(0 12.377)"/><circle class="h" cx="1.547" cy="1.547" r="1.547" transform="translate(6.188)"/><circle class="h" cx="1.547" cy="1.547" r="1.547" transform="translate(6.188 6.188)"/><circle class="h" cx="1.547" cy="1.547" r="1.547" transform="translate(6.188 12.377)"/></g><rect class="h" width="10.509" height="10.509" rx="3" transform="translate(30.825 7.706)"/></g><g transform="translate(208.424 506.774)"><rect class="g" width="390.572" height="26.61" transform="translate(0 0)"/><rect class="h" width="3.713" height="26.61" transform="translate(0 0)"/><g transform="translate(10.52 5.569)"><circle class="h" cx="1.547" cy="1.547" r="1.547"/><circle class="h" cx="1.547" cy="1.547" r="1.547" transform="translate(0 6.188)"/><circle class="h" cx="1.547" cy="1.547" r="1.547" transform="translate(0 12.377)"/><circle class="h" cx="1.547" cy="1.547" r="1.547" transform="translate(6.188)"/><circle class="h" cx="1.547" cy="1.547" r="1.547" transform="translate(6.188 6.188)"/><circle class="h" cx="1.547" cy="1.547" r="1.547" transform="translate(6.188 12.377)"/></g><rect class="h" width="10.509" height="10.509" rx="3" transform="translate(30.825 7.706)"/></g><g transform="translate(208.424 549.51)"><rect class="g" width="390.572" height="26.61" transform="translate(0 0)"/><rect class="h" width="3.713" height="26.61" transform="translate(0 0)"/><g transform="translate(10.52 5.569)"><circle class="h" cx="1.547" cy="1.547" r="1.547"/><circle class="h" cx="1.547" cy="1.547" r="1.547" transform="translate(0 6.188)"/><circle class="h" cx="1.547" cy="1.547" r="1.547" transform="translate(0 12.377)"/><circle class="h" cx="1.547" cy="1.547" r="1.547" transform="translate(6.188)"/><circle class="h" cx="1.547" cy="1.547" r="1.547" transform="translate(6.188 6.188)"/><circle class="h" cx="1.547" cy="1.547" r="1.547" transform="translate(6.188 12.377)"/></g><rect class="h" width="10.509" height="10.509" rx="3" transform="translate(30.825 7.706)"/></g><text class="i" transform="translate(261.668 267.171)"><tspan x="0" y="0">Create a new moon for the earth</tspan></text><text class="i" transform="translate(261.668 437.411)"><tspan x="0" y="0">Give wings to the cats</tspan></text><text class="i" transform="translate(261.668 309.206)"><tspan x="0" y="0">Build a coffee shop in the new moon</tspan></text><text class="i" transform="translate(261.668 351.24)"><tspan x="0" y="0">Write a song for the moon</tspan></text><text class="i" transform="translate(261.668 480.146)"><tspan x="0" y="0">Create rainbow cookies</tspan></text><text class="i" transform="translate(261.668 523.582)"><tspan x="0" y="0">Catch rainbow colors</tspan></text><text class="i" transform="translate(261.668 564.916)"><tspan x="0" y="0">Find the end of the rainbow</tspan></text><text class="i" transform="translate(261.668 394.676)"><tspan x="0" y="0">Take cats to the moon</tspan></text><path class="j" d="M9.2,14.712a4,4,0,0,1-4-4v-1.3L0,8.008,5.2,6.061V4a4,4,0,0,1,4-4H52.343a4,4,0,0,1,4,4v6.712a4,4,0,0,1-4,4Z" transform="translate(411.295 258.069)"/><path class="k" d="M9.2,14.712a4,4,0,0,1-4-4v-1.3L0,8.008,5.2,6.061V4a4,4,0,0,1,4-4H61.45a4,4,0,0,1,4,4v6.712a4,4,0,0,1-4,4Z" transform="translate(426.007 300.104)"/><path class="l" d="M9.2,14.712a4,4,0,0,1-4-4v-1.3L0,8.008,5.2,6.061V4a4,4,0,0,1,4-4H64.954a4,4,0,0,1,4,4v6.712a4,4,0,0,1-4,4Z" transform="translate(386.774 342.139)"/><path class="l" d="M9.2,14.712a4,4,0,0,1-4-4v-1.3L0,8.008,5.2,6.061V4a4,4,0,0,1,4-4H64.954a4,4,0,0,1,4,4v6.712a4,4,0,0,1-4,4Z" transform="translate(365.057 384.173)"/><path class="l" d="M9.2,14.712a4,4,0,0,1-4-4v-1.3L0,8.008,5.2,6.061V4a4,4,0,0,1,4-4H64.954a4,4,0,0,1,4,4v6.712a4,4,0,0,1-4,4Z" transform="translate(360.854 427.609)"/><path class="l" d="M9.2,14.712a4,4,0,0,1-4-4v-1.3L0,8.008,5.2,6.061V4a4,4,0,0,1,4-4H64.954a4,4,0,0,1,4,4v6.712a4,4,0,0,1-4,4Z" transform="translate(372.063 470.344)"/><path class="m" d="M9.2,14.712a4,4,0,0,1-4-4v-1.3L0,8.008,5.2,6.061V4a4,4,0,0,1,4-4H55.846a4,4,0,0,1,4,4v6.712a4,4,0,0,1-4,4Z" transform="translate(372.063 513.78)"/><path class="m" d="M9.2,14.712a4,4,0,0,1-4-4v-1.3L0,8.008,5.2,6.061V4a4,4,0,0,1,4-4H55.846a4,4,0,0,1,4,4v6.712a4,4,0,0,1-4,4Z" transform="translate(389.577 555.114)"/><g transform="translate(422.82 261.451)"><ellipse class="n" cx="3.554" cy="3.554" rx="3.554" ry="3.554" transform="translate(0 0)"/><line class="n" y2="2.928" transform="translate(3.554 1.408)"/><circle class="a" cx="0.469" cy="0.469" r="0.469" transform="translate(3.085 5.275)"/></g><text class="o" transform="translate(434.01 266.572)"><tspan x="0" y="0">Expiring</tspan></text><text class="o" transform="translate(449.423 308.606)"><tspan x="0" y="0">Improving</tspan></text><text class="o" transform="translate(411.592 350.642)"><tspan x="0" y="0">Developing</tspan></text><text class="o" transform="translate(389.874 392.676)"><tspan x="0" y="0">Developing</tspan></text><text class="o" transform="translate(385.67 436.112)"><tspan x="0" y="0">Developing</tspan></text><text class="o" transform="translate(396.88 478.847)"><tspan x="0" y="0">Developing</tspan></text><text class="o" transform="translate(396.88 522.283)"><tspan x="0" y="0">Pending</tspan></text><text class="o" transform="translate(414.394 563.617)"><tspan x="0" y="0">Pending</tspan></text><path class="n" d="M8.2,3.253,4.757,1.2,1.272,3.158,1.2,7.169,4.638,9.2,8.124,7.24Z" transform="translate(438.771 302.115)"/><ellipse class="n" cx="1.838" cy="1.838" rx="1.838" ry="1.838" transform="translate(441.642 305.487)"/><path class="n" d="M7.753,4.083H7.087a2.451,2.451,0,0,0-.282-.665l.484-.484a.342.342,0,0,0,0-.464l-.383-.383a.342.342,0,0,0-.464,0l-.484.484a2.451,2.451,0,0,0-.665-.282V1.623A.319.319,0,0,0,4.97,1.3H4.426a.319.319,0,0,0-.323.323v.686a2.451,2.451,0,0,0-.665.282l-.5-.5a.342.342,0,0,0-.464,0l-.383.383a.342.342,0,0,0,0,.464l.484.484a2.451,2.451,0,0,0-.282.665H1.623a.319.319,0,0,0-.323.323V4.95a.319.319,0,0,0,.323.323h.686a2.451,2.451,0,0,0,.282.665l-.484.484a.342.342,0,0,0,0,.464l.363.4a.342.342,0,0,0,.464,0l.484-.484a2.451,2.451,0,0,0,.665.282v.686a.319.319,0,0,0,.323.323H4.95a.319.319,0,0,0,.323-.323V7.087a2.451,2.451,0,0,0,.665-.282l.484.484a.342.342,0,0,0,.464,0l.383-.383a.342.342,0,0,0,0-.464l-.484-.484a2.451,2.451,0,0,0,.282-.665h.686a.319.319,0,0,0,.323-.323V4.426A.323.323,0,0,0,7.753,4.083ZM4.688,5.958a1.27,1.27,0,1,1,1.27-1.27A1.265,1.265,0,0,1,4.688,5.958Z" transform="translate(398.576 344.342)"/><path class="n" d="M7.753,4.083H7.087a2.451,2.451,0,0,0-.282-.665l.484-.484a.342.342,0,0,0,0-.464l-.383-.383a.342.342,0,0,0-.464,0l-.484.484a2.451,2.451,0,0,0-.665-.282V1.623A.319.319,0,0,0,4.97,1.3H4.426a.319.319,0,0,0-.323.323v.686a2.451,2.451,0,0,0-.665.282l-.5-.5a.342.342,0,0,0-.464,0l-.383.383a.342.342,0,0,0,0,.464l.484.484a2.451,2.451,0,0,0-.282.665H1.623a.319.319,0,0,0-.323.323V4.95a.319.319,0,0,0,.323.323h.686a2.451,2.451,0,0,0,.282.665l-.484.484a.342.342,0,0,0,0,.464l.363.4a.342.342,0,0,0,.464,0l.484-.484a2.451,2.451,0,0,0,.665.282v.686a.319.319,0,0,0,.323.323H4.95a.319.319,0,0,0,.323-.323V7.087a2.451,2.451,0,0,0,.665-.282l.484.484a.342.342,0,0,0,.464,0l.383-.383a.342.342,0,0,0,0-.464l-.484-.484a2.451,2.451,0,0,0,.282-.665h.686a.319.319,0,0,0,.323-.323V4.426A.323.323,0,0,0,7.753,4.083ZM4.688,5.958a1.27,1.27,0,1,1,1.27-1.27A1.265,1.265,0,0,1,4.688,5.958Z" transform="translate(376.858 386.376)"/><path class="n" d="M7.753,4.083H7.087a2.451,2.451,0,0,0-.282-.665l.484-.484a.342.342,0,0,0,0-.464l-.383-.383a.342.342,0,0,0-.464,0l-.484.484a2.451,2.451,0,0,0-.665-.282V1.623A.319.319,0,0,0,4.97,1.3H4.426a.319.319,0,0,0-.323.323v.686a2.451,2.451,0,0,0-.665.282l-.5-.5a.342.342,0,0,0-.464,0l-.383.383a.342.342,0,0,0,0,.464l.484.484a2.451,2.451,0,0,0-.282.665H1.623a.319.319,0,0,0-.323.323V4.95a.319.319,0,0,0,.323.323h.686a2.451,2.451,0,0,0,.282.665l-.484.484a.342.342,0,0,0,0,.464l.363.4a.342.342,0,0,0,.464,0l.484-.484a2.451,2.451,0,0,0,.665.282v.686a.319.319,0,0,0,.323.323H4.95a.319.319,0,0,0,.323-.323V7.087a2.451,2.451,0,0,0,.665-.282l.484.484a.342.342,0,0,0,.464,0l.383-.383a.342.342,0,0,0,0-.464l-.484-.484a2.451,2.451,0,0,0,.282-.665h.686a.319.319,0,0,0,.323-.323V4.426A.323.323,0,0,0,7.753,4.083ZM4.688,5.958a1.27,1.27,0,1,1,1.27-1.27A1.265,1.265,0,0,1,4.688,5.958Z" transform="translate(372.655 429.812)"/><path class="n" d="M7.753,4.083H7.087a2.451,2.451,0,0,0-.282-.665l.484-.484a.342.342,0,0,0,0-.464l-.383-.383a.342.342,0,0,0-.464,0l-.484.484a2.451,2.451,0,0,0-.665-.282V1.623A.319.319,0,0,0,4.97,1.3H4.426a.319.319,0,0,0-.323.323v.686a2.451,2.451,0,0,0-.665.282l-.5-.5a.342.342,0,0,0-.464,0l-.383.383a.342.342,0,0,0,0,.464l.484.484a2.451,2.451,0,0,0-.282.665H1.623a.319.319,0,0,0-.323.323V4.95a.319.319,0,0,0,.323.323h.686a2.451,2.451,0,0,0,.282.665l-.484.484a.342.342,0,0,0,0,.464l.363.4a.342.342,0,0,0,.464,0l.484-.484a2.451,2.451,0,0,0,.665.282v.686a.319.319,0,0,0,.323.323H4.95a.319.319,0,0,0,.323-.323V7.087a2.451,2.451,0,0,0,.665-.282l.484.484a.342.342,0,0,0,.464,0l.383-.383a.342.342,0,0,0,0-.464l-.484-.484a2.451,2.451,0,0,0,.282-.665h.686a.319.319,0,0,0,.323-.323V4.426A.323.323,0,0,0,7.753,4.083ZM4.688,5.958a1.27,1.27,0,1,1,1.27-1.27A1.265,1.265,0,0,1,4.688,5.958Z" transform="translate(383.864 472.547)"/><g transform="translate(384.294 516.582)"><ellipse class="n" cx="4.133" cy="4.133" rx="4.133" ry="4.133" transform="translate(0 0)"/><path class="n" d="M17.9,10.3v1.976h1.95" transform="translate(-13.559 -7.934)"/></g><g transform="translate(401.809 557.916)"><ellipse class="n" cx="4.133" cy="4.133" rx="4.133" ry="4.133" transform="translate(0 0)"/><path class="n" d="M17.9,10.3v1.976h1.95" transform="translate(-13.559 -7.934)"/></g><rect class="p" width="108.589" height="26.622" rx="13.311" transform="translate(353.443 606.957)"/><text class="c" transform="translate(379.365 623.963)"><tspan x="0" y="0">Add Item</tspan></text></g></svg>