<svg xmlns="http://www.w3.org/2000/svg" xmlns:xlink="http://www.w3.org/1999/xlink" width="182.636" height="256.149" viewBox="0 0 182.636 256.149"><defs><style>.a{fill:url(#a);}.b{fill:url(#b);}.c{fill:#006ec6;}.d{fill:url(#c);}.e{fill:url(#d);}.f{fill:url(#e);}.g{fill:url(#f);}.h{fill:url(#g);}.i{fill:#34d1ff;}.j{fill:url(#h);}.k{fill:url(#i);}.l{fill:url(#j);}.m{fill:url(#k);}.n{fill:url(#l);}</style><linearGradient id="a" x1="0.5" y1="1" x2="0.5" gradientUnits="objectBoundingBox"><stop offset="0.105" stop-color="#00a8ff"/><stop offset="1" stop-color="#34d1ff"/></linearGradient><linearGradient id="b" x1="0.5" y1="0.837" x2="0.5" y2="-0.345" gradientUnits="objectBoundingBox"><stop offset="0.013" stop-color="#00a8ff"/><stop offset="1" stop-color="#34d1ff"/></linearGradient><linearGradient id="c" x1="0.5" y1="0.123" x2="0.5" y2="0.697" gradientUnits="objectBoundingBox"><stop offset="0.016" stop-color="#006ec6"/><stop offset="0.284" stop-color="#0078d0"/><stop offset="0.752" stop-color="#0095ed"/><stop offset="1" stop-color="#00a8ff"/></linearGradient><linearGradient id="d" y1="0.5" x2="1" y2="0.5" gradientUnits="objectBoundingBox"><stop offset="0" stop-color="#34d1ff"/><stop offset="0.31" stop-color="#30ceff"/><stop offset="0.564" stop-color="#26c6ff"/><stop offset="0.798" stop-color="#15b8ff"/><stop offset="1" stop-color="#00a8ff"/></linearGradient><linearGradient id="e" x1="0.5" y1="1" x2="0.5" gradientUnits="objectBoundingBox"><stop offset="0.105" stop-color="#00a8ff"/><stop offset="1" stop-color="#006ec6"/></linearGradient><linearGradient id="f" x1="0.5" x2="0.5" y2="1" gradientUnits="objectBoundingBox"><stop offset="0.11" stop-color="#00a8ff"/><stop offset="0.335" stop-color="#00a3fa"/><stop offset="0.578" stop-color="#0096ed"/><stop offset="0.83" stop-color="#0080d8"/><stop offset="1" stop-color="#006ec6"/></linearGradient><linearGradient id="g" x1="130.553" y1="-86.537" x2="130.553" y2="-85.87" xlink:href="#f"/><linearGradient id="h" x1="0.5" y1="0.971" x2="0.5" y2="0.029" gradientUnits="objectBoundingBox"><stop offset="0.016" stop-color="#006ec6"/><stop offset="0.283" stop-color="#0078d0"/><stop offset="0.751" stop-color="#0095ed"/><stop offset="0.998" stop-color="#00a8ff"/></linearGradient><linearGradient id="i" y1="0.5" x2="1" y2="0.5" gradientUnits="objectBoundingBox"><stop offset="0.016" stop-color="#00a8ff"/><stop offset="0.354" stop-color="#17baff"/><stop offset="0.743" stop-color="#2ccbff"/><stop offset="1" stop-color="#34d1ff"/></linearGradient><linearGradient id="j" x1="0.5" y1="0.209" x2="0.5" y2="1.484" gradientUnits="objectBoundingBox"><stop offset="0.013" stop-color="#00a8ff"/><stop offset="0.352" stop-color="#17baff"/><stop offset="0.742" stop-color="#2ccbff"/><stop offset="1" stop-color="#34d1ff"/></linearGradient><linearGradient id="k" x1="5.754" y1="-44.856" x2="5.754" y2="-45.856" xlink:href="#a"/><linearGradient id="l" x1="-15.668" y1="-131.656" x2="-15.668" y2="-130.989" xlink:href="#f"/></defs><g transform="translate(0 0)"><path class="a" d="M253.3,200.558l0,0L180.233,127.5v36.529l54.794,54.794-18.271,18.271,18.265,18.265L253.3,237.08Z" transform="translate(-70.722 -90.83)"/><path class="b" d="M143.184,189.209,197.989,244l-18.265,18.265-36.53-36.529Z" transform="translate(-88.507 -61.206)"/><path class="c" d="M161.457,176.88v36.529l-18.265-18.265Z" transform="translate(-88.502 -67.125)"/><rect class="d" width="25.822" height="77.741" transform="translate(36.403 73.23) rotate(-135)"/><path class="c" d="M198.469,115.133v36.518L180.21,133.393Z" transform="translate(-70.733 -96.764)"/><path class="e" d="M173.29,194.655l-18.259,18.259-36.478-36.478-.049-36.61Z" transform="translate(-100.353 -84.911)"/><path class="f" d="M149.169,139.861l36.521,0L149.169,176.38,130.91,158.12Z" transform="translate(-94.399 -84.896)"/><path class="g" d="M204.414,250.464l-36.521,0,36.521-36.521,18.259,18.259Z" transform="translate(-76.645 -49.332)"/><path class="h" d="M241.484,213.381l0-36.521-36.521,36.521,18.259,18.259Z" transform="translate(-58.85 -67.134)"/><path class="i" d="M192.072,102.809l18.259,18.259-18.259,18.259-36.541-36.541Z" transform="translate(-82.58 -102.691)"/><path class="c" d="M180.463,213.483V176.954l18.265,18.265Z" transform="translate(-70.612 -67.089)"/><rect class="j" width="25.822" height="77.741" transform="translate(146.403 182.919) rotate(45)"/><path class="c" d="M143.449,275.226V238.707l18.259,18.259Z" transform="translate(-88.38 -37.446)"/><path class="k" d="M180.475,207.565l18.259-18.259,36.478,36.478.049,36.61Z" transform="translate(-70.606 -61.16)"/><path class="i" d="M161.7,287.557,143.439,269.3,161.7,251.039l36.541,36.541Z" transform="translate(-88.384 -31.526)"/><path class="l" d="M173.843,139.856l36.529,36.529v36.529L155.578,158.12Z" transform="translate(-82.557 -84.897)"/><path class="m" d="M106.24,219.371l0,0L179.3,292.433V255.9L124.509,201.11l18.271-18.271-18.265-18.265L106.24,182.849Z" transform="translate(-106.24 -73.032)"/><path class="n" d="M106.243,182.833l0,36.521,36.521-36.521L124.5,164.574Z" transform="translate(-106.24 -73.032)"/></g></svg>