<svg xmlns="http://www.w3.org/2000/svg" xmlns:xlink="http://www.w3.org/1999/xlink" width="276.212" height="50.159" viewBox="0 0 276.212 50.159"><defs><style>.a{fill:url(#a);}.b{fill:url(#b);}.c{fill:#00a8ff;}.d{fill:url(#c);}.e{fill:url(#d);}.f{fill:url(#e);}.g{fill:url(#f);}.h{fill:url(#g);}.i{fill:url(#h);}.j{fill:url(#i);}.k{fill:#006ec6;}.l{fill:url(#j);}.m{fill:url(#k);}.n{fill:url(#l);}</style><linearGradient id="a" x1="0.5" y1="1" x2="0.5" gradientUnits="objectBoundingBox"><stop offset="0" stop-color="#006ec6"/><stop offset="0.11" stop-color="#0084db"/><stop offset="0.244" stop-color="#0098ef"/><stop offset="0.378" stop-color="#00a4fb"/><stop offset="0.514" stop-color="#00a8ff"/><stop offset="0.637" stop-color="#00a3fa"/><stop offset="0.769" stop-color="#0096ee"/><stop offset="0.905" stop-color="#0081d8"/><stop offset="1" stop-color="#006ec6"/></linearGradient><linearGradient id="b" x1="0.803" y1="0.501" x2="-0.759" y2="0.499" gradientUnits="objectBoundingBox"><stop offset="0" stop-color="#00a8ff"/><stop offset="0.263" stop-color="#00a4fb"/><stop offset="0.525" stop-color="#0098ef"/><stop offset="0.786" stop-color="#0084db"/><stop offset="1" stop-color="#006ec6"/></linearGradient><linearGradient id="c" x1="0.5" y1="1" x2="0.5" y2="-0.214" gradientUnits="objectBoundingBox"><stop offset="0" stop-color="#00a8ff"/><stop offset="0.263" stop-color="#00a4fb"/><stop offset="0.525" stop-color="#0098ef"/><stop offset="0.786" stop-color="#0084db"/><stop offset="0.999" stop-color="#006ec6"/></linearGradient><linearGradient id="d" x1="0.088" y1="-0.047" x2="0.888" y2="1.014" gradientUnits="objectBoundingBox"><stop offset="0.016" stop-color="#34d1ff"/><stop offset="0.262" stop-color="#00a8ff"/><stop offset="0.742" stop-color="#00a4fb"/><stop offset="0.8" stop-color="#00a4fa"/><stop offset="0.864" stop-color="#0096ec"/><stop offset="0.985" stop-color="#0072ca"/><stop offset="0.999" stop-color="#006ec6"/></linearGradient><linearGradient id="e" x1="0.68" y1="0.26" x2="0.369" y2="0.675" gradientUnits="objectBoundingBox"><stop offset="0" stop-color="#00a8ff"/><stop offset="0.126" stop-color="#00a3fa"/><stop offset="0.266" stop-color="#0095ed"/><stop offset="0.414" stop-color="#007fd7"/><stop offset="0.505" stop-color="#006ec6"/><stop offset="0.531" stop-color="#0075cd"/><stop offset="0.624" stop-color="#008be3"/><stop offset="0.726" stop-color="#009bf2"/><stop offset="0.841" stop-color="#00a5fc"/><stop offset="1" stop-color="#00a8ff"/></linearGradient><linearGradient id="f" x1="0.849" y1="-0.005" x2="-0.228" y2="1.079" gradientUnits="objectBoundingBox"><stop offset="0" stop-color="#34d1ff"/><stop offset="0.403" stop-color="#00a8ff"/><stop offset="0.495" stop-color="#00a3fa"/><stop offset="0.592" stop-color="#0097ee"/><stop offset="0.69" stop-color="#0082d9"/><stop offset="0.762" stop-color="#006ec6"/></linearGradient><linearGradient id="g" x1="1.136" y1="0.5" x2="-0.068" y2="0.5" gradientUnits="objectBoundingBox"><stop offset="0" stop-color="#34d1ff"/><stop offset="0.344" stop-color="#15b8ff"/><stop offset="0.554" stop-color="#00a8ff"/><stop offset="0.66" stop-color="#00a1f8"/><stop offset="0.811" stop-color="#008ee6"/><stop offset="0.988" stop-color="#0070c8"/><stop offset="1" stop-color="#006ec6"/></linearGradient><linearGradient id="h" x1="0.09" y1="-0.041" x2="0.949" y2="1.093" gradientUnits="objectBoundingBox"><stop offset="0.016" stop-color="#34d1ff"/><stop offset="0.208" stop-color="#00a8ff"/><stop offset="0.736" stop-color="#00a4fb"/><stop offset="0.8" stop-color="#00a4fa"/><stop offset="0.864" stop-color="#0096ec"/><stop offset="0.985" stop-color="#0072ca"/><stop offset="0.999" stop-color="#006ec6"/></linearGradient><linearGradient id="i" x1="1.217" y1="0.575" x2="-0.196" y2="0.36" gradientUnits="objectBoundingBox"><stop offset="0.002" stop-color="#34d1ff"/><stop offset="0.186" stop-color="#19bbff"/><stop offset="0.361" stop-color="#06adff"/><stop offset="0.485" stop-color="#00a8ff"/><stop offset="0.608" stop-color="#00a1f9"/><stop offset="0.772" stop-color="#0090e8"/><stop offset="0.961" stop-color="#0074cc"/><stop offset="1" stop-color="#006ec6"/></linearGradient><linearGradient id="j" x1="1.014" y1="0.503" x2="0.016" y2="0.497" gradientUnits="objectBoundingBox"><stop offset="0.031" stop-color="#34d1ff"/><stop offset="0.143" stop-color="#2dccff"/><stop offset="0.294" stop-color="#1cbeff"/><stop offset="0.466" stop-color="#00a8ff"/><stop offset="0.47" stop-color="#00a8ff"/><stop offset="0.596" stop-color="#00a1f9"/><stop offset="0.766" stop-color="#0090e8"/><stop offset="0.96" stop-color="#0074cc"/><stop offset="1" stop-color="#006ec6"/></linearGradient><linearGradient id="k" x1="0.4" y1="0.557" x2="-0.109" y2="0.85" gradientUnits="objectBoundingBox"><stop offset="0.017" stop-color="#34d1ff" stop-opacity="0"/><stop offset="0.258" stop-color="#34d1ff" stop-opacity="0.4"/><stop offset="0.302" stop-color="#30ceff" stop-opacity="0.439"/><stop offset="0.375" stop-color="#27c7ff" stop-opacity="0.541"/><stop offset="0.468" stop-color="#19bbff" stop-opacity="0.706"/><stop offset="0.577" stop-color="#05acff" stop-opacity="0.937"/><stop offset="0.605" stop-color="#00a8ff"/><stop offset="0.678" stop-color="#00a4fb"/><stop offset="0.75" stop-color="#0098ef"/><stop offset="0.821" stop-color="#0084db"/><stop offset="0.88" stop-color="#006ec6"/></linearGradient><linearGradient id="l" y1="0.5" x2="1" y2="0.5" gradientUnits="objectBoundingBox"><stop offset="0" stop-color="#00a8ff"/><stop offset="0.266" stop-color="#04abff"/><stop offset="0.559" stop-color="#11b5ff"/><stop offset="0.863" stop-color="#27c7ff"/><stop offset="1" stop-color="#34d1ff"/></linearGradient></defs><g transform="translate(0 0)"><g transform="translate(0)"><rect class="a" width="8.18" height="46.348" transform="translate(237.812 0.776)"/><path class="b" d="M608.107,1028.909H597.428V987.782h-8.18v49.307h18.859Z" transform="translate(-412.559 -987.157)"/><rect class="c" width="8.18" height="49.155" transform="translate(197.594 0.776)"/><rect class="d" width="8.18" height="49.155" transform="translate(208.05 0.776)"/><path class="e" d="M643.711,988.046h9.543l28.63,49.156h-9.543Z" transform="translate(-435.665 -987.269)"/><path class="f" d="M731.611,988.046h-9.543l-28.63,49.156h9.543Z" transform="translate(-456.762 -987.269)"/><path class="g" d="M541.681,987.782H526.73v49.307h14.951a22.768,22.768,0,0,0,22.768-22.767v-3.772A22.768,22.768,0,0,0,541.681,987.782Zm14.588,26.583a14.544,14.544,0,0,1-14.544,14.544H534.91V995.986h6.815a14.544,14.544,0,0,1,14.544,14.544Z" transform="translate(-386.035 -987.157)"/><path class="h" d="M495.524,1037.119h8.634l-18.632-49.534h-8.635l-18.632,49.534h8.634l3.59-9.543h21.451ZM473.561,1019.4l7.649-20.334,7.648,20.334Z" transform="translate(-356.986 -987.074)"/><path class="i" d="M695.806,988.046h9.543l28.63,49.383h-9.543Z" transform="translate(-457.766 -987.269)"/><path class="j" d="M442.135,987.782v30.448a10.679,10.679,0,0,1-21.359,0V987.782H412.6v30.448a18.86,18.86,0,0,0,18.86,18.86h0a18.859,18.859,0,0,0,18.859-18.86V987.782Z" transform="translate(-337.613 -987.157)"/><path class="k" d="M376.373,1029.795a23.089,23.089,0,0,0,6.306-15.882v-2.954a23.177,23.177,0,1,0-46.353,0v2.954a23.18,23.18,0,0,0,29.2,22.381,1.039,1.039,0,0,0,.207-.021,7.1,7.1,0,0,1,2.1-.317h.919a7.2,7.2,0,0,1,3.867,1.134H382.9A15.535,15.535,0,0,0,376.373,1029.795ZM344.5,1013.913v-2.93a15,15,0,0,1,29.993,0v2.93a15,15,0,0,1-29.993,0Z" transform="translate(-305.255 -987.157)"/><path class="l" d="M376.373,1029.795a23.089,23.089,0,0,0,6.306-15.882v-2.954a23.177,23.177,0,1,0-46.353,0v2.954a23.18,23.18,0,0,0,29.2,22.381,1.039,1.039,0,0,0,.207-.021,7.1,7.1,0,0,1,2.1-.317h.919a7.2,7.2,0,0,1,3.867,1.134H382.9A15.535,15.535,0,0,0,376.373,1029.795ZM344.5,1013.913v-2.93a15,15,0,0,1,29.993,0v2.93a15,15,0,0,1-29.993,0Z" transform="translate(-305.255 -987.157)"/><path class="m" d="M397.972,1030.4a23.091,23.091,0,0,0,6.306-15.882v-2.954a23.181,23.181,0,0,0-17.041-22.349v8.689a15,15,0,0,1,8.861,13.683v2.931a15,15,0,0,1-8.861,13.684v8.69a.533.533,0,0,0,.1-.014,7.09,7.09,0,0,1,2.1-.317h.919a7.2,7.2,0,0,1,3.867,1.134H404.5A15.534,15.534,0,0,0,397.972,1030.4Z" transform="translate(-326.854 -987.767)"/><path class="n" d="M381.929,1065.672a8.573,8.573,0,0,1,7.2.973h10.52a16.8,16.8,0,0,0-23.859-7.113Z" transform="translate(-321.997 -1016.566)"/><path class="c" d="M307.708,1019.049c-4.475-3.324-11.168-3.278-16.451-7.6a13.129,13.129,0,0,1-5.35-10.631,13.278,13.278,0,0,1,4.632-10.626c10.412-7.868,28.176-1.363,28.176,8.634-.455,0-8.679,1.4-8.634,1.364-.455-7.271-14.543-8.18-15.654-.1-1.161,6.921,8.837,7.829,15.938,10.945,1.77.825,5.624,2.792,7.42,6.87,4.566,12.736-6.795,18.644-15.353,18.644-10.332.333-20.072-5.908-20.072-17.269l9.089-.455c.909,6.816,5.453,9.543,10.906,9.543C310.081,1028.823,310.535,1021.1,307.708,1019.049Z" transform="translate(-282.359 -986.697)"/></g></g></svg>