<svg xmlns="http://www.w3.org/2000/svg" xmlns:xlink="http://www.w3.org/1999/xlink" width="76.5" height="100.059" viewBox="0 0 76.5 100.059"><defs><style>.a{fill:#27c7ff;stroke:#fff;stroke-linecap:round;stroke-linejoin:round;}.b{filter:url(#ai);}.c{filter:url(#ag);}.d{filter:url(#ae);}.e{filter:url(#ac);}.f{filter:url(#aa);}.g{filter:url(#y);}.h{filter:url(#w);}.i{filter:url(#u);}.j{filter:url(#s);}.k{filter:url(#q);}.l{filter:url(#o);}.m{filter:url(#m);}.n{filter:url(#k);}.o{filter:url(#i);}.p{filter:url(#g);}.q{filter:url(#e);}.r{filter:url(#c);}.s{filter:url(#a);}</style><filter id="a" x="34.478" y="11.751" width="42.002" height="59.254" filterUnits="userSpaceOnUse"><feOffset dy="3" input="SourceAlpha"/><feGaussianBlur stdDeviation="3" result="b"/><feFlood flood-opacity="0.161"/><feComposite operator="in" in2="b"/><feComposite in="SourceGraphic"/></filter><filter id="c" x="17.214" y="40.507" width="36.254" height="42.001" filterUnits="userSpaceOnUse"><feOffset dy="3" input="SourceAlpha"/><feGaussianBlur stdDeviation="3" result="d"/><feFlood flood-opacity="0.161"/><feComposite operator="in" in2="d"/><feComposite in="SourceGraphic"/></filter><filter id="e" x="17.219" y="34.762" width="24.75" height="30.501" filterUnits="userSpaceOnUse"><feOffset dy="3" input="SourceAlpha"/><feGaussianBlur stdDeviation="3" result="f"/><feFlood flood-opacity="0.161"/><feComposite operator="in" in2="f"/><feComposite in="SourceGraphic"/></filter><filter id="g" x="5.505" y="0" width="42.469" height="42.47" filterUnits="userSpaceOnUse"><feOffset dy="3" input="SourceAlpha"/><feGaussianBlur stdDeviation="3" result="h"/><feFlood flood-opacity="0.161"/><feComposite operator="in" in2="h"/><feComposite in="SourceGraphic"/></filter><filter id="i" x="34.467" y="5.99" width="24.749" height="30.497" filterUnits="userSpaceOnUse"><feOffset dy="3" input="SourceAlpha"/><feGaussianBlur stdDeviation="3" result="j"/><feFlood flood-opacity="0.161"/><feComposite operator="in" in2="j"/><feComposite in="SourceGraphic"/></filter><filter id="k" x="5.714" y="17.496" width="36.249" height="42.011" filterUnits="userSpaceOnUse"><feOffset dy="3" input="SourceAlpha"/><feGaussianBlur stdDeviation="3" result="l"/><feFlood flood-opacity="0.161"/><feComposite operator="in" in2="l"/><feComposite in="SourceGraphic"/></filter><filter id="m" x="11.495" y="17.512" width="36.247" height="30.498" filterUnits="userSpaceOnUse"><feOffset dy="3" input="SourceAlpha"/><feGaussianBlur stdDeviation="3" result="n"/><feFlood flood-opacity="0.161"/><feComposite operator="in" in2="n"/><feComposite in="SourceGraphic"/></filter><filter id="o" x="28.728" y="52.033" width="36.247" height="30.498" filterUnits="userSpaceOnUse"><feOffset dy="3" input="SourceAlpha"/><feGaussianBlur stdDeviation="3" result="p"/><feFlood flood-opacity="0.161"/><feComposite operator="in" in2="p"/><feComposite in="SourceGraphic"/></filter><filter id="q" x="46.002" y="34.752" width="30.498" height="36.247" filterUnits="userSpaceOnUse"><feOffset dy="3" input="SourceAlpha"/><feGaussianBlur stdDeviation="3" result="r"/><feFlood flood-opacity="0.161"/><feComposite operator="in" in2="r"/><feComposite in="SourceGraphic"/></filter><filter id="s" x="22.968" y="0.237" width="36.253" height="30.504" filterUnits="userSpaceOnUse"><feOffset dy="3" input="SourceAlpha"/><feGaussianBlur stdDeviation="3" result="t"/><feFlood flood-opacity="0.161"/><feComposite operator="in" in2="t"/><feComposite in="SourceGraphic"/></filter><filter id="u" x="34.585" y="34.796" width="24.75" height="30.501" filterUnits="userSpaceOnUse"><feOffset dy="3" input="SourceAlpha"/><feGaussianBlur stdDeviation="3" result="v"/><feFlood flood-opacity="0.161"/><feComposite operator="in" in2="v"/><feComposite in="SourceGraphic"/></filter><filter id="w" x="28.579" y="57.589" width="42.469" height="42.47" filterUnits="userSpaceOnUse"><feOffset dy="3" input="SourceAlpha"/><feGaussianBlur stdDeviation="3" result="x"/><feFlood flood-opacity="0.161"/><feComposite operator="in" in2="x"/><feComposite in="SourceGraphic"/></filter><filter id="y" x="17.338" y="63.571" width="24.749" height="30.497" filterUnits="userSpaceOnUse"><feOffset dy="3" input="SourceAlpha"/><feGaussianBlur stdDeviation="3" result="z"/><feFlood flood-opacity="0.161"/><feComposite operator="in" in2="z"/><feComposite in="SourceGraphic"/></filter><filter id="aa" x="34.59" y="40.552" width="36.249" height="42.01" filterUnits="userSpaceOnUse"><feOffset dy="3" input="SourceAlpha"/><feGaussianBlur stdDeviation="3" result="ab"/><feFlood flood-opacity="0.161"/><feComposite operator="in" in2="ab"/><feComposite in="SourceGraphic"/></filter><filter id="ac" x="17.333" y="69.316" width="36.253" height="30.504" filterUnits="userSpaceOnUse"><feOffset dy="3" input="SourceAlpha"/><feGaussianBlur stdDeviation="3" result="ad"/><feFlood flood-opacity="0.161"/><feComposite operator="in" in2="ad"/><feComposite in="SourceGraphic"/></filter><filter id="ae" x="22.989" y="17.51" width="36.251" height="42.001" filterUnits="userSpaceOnUse"><feOffset dy="3" input="SourceAlpha"/><feGaussianBlur stdDeviation="3" result="af"/><feFlood flood-opacity="0.161"/><feComposite operator="in" in2="af"/><feComposite in="SourceGraphic"/></filter><filter id="ag" x="0" y="29.028" width="42.002" height="59.254" filterUnits="userSpaceOnUse"><feOffset dy="3" input="SourceAlpha"/><feGaussianBlur stdDeviation="3" result="ah"/><feFlood flood-opacity="0.161"/><feComposite operator="in" in2="ah"/><feComposite in="SourceGraphic"/></filter><filter id="ai" x="0" y="29.028" width="30.498" height="36.246" filterUnits="userSpaceOnUse"><feOffset dy="3" input="SourceAlpha"/><feGaussianBlur stdDeviation="3" result="aj"/><feFlood flood-opacity="0.161"/><feComposite operator="in" in2="aj"/><feComposite in="SourceGraphic"/></filter></defs><g transform="translate(9.5 6.707)"><g class="s" transform="matrix(1, 0, 0, 1, -9.5, -6.71)"><path class="a" d="M763.363,290.472h0l-23-23v11.5l17.251,17.251-5.752,5.752,5.75,5.75,5.754-5.754Z" transform="translate(-696.38 -249.22)"/></g><g class="r" transform="matrix(1, 0, 0, 1, -9.5, -6.71)"><path class="a" d="M720.085,301.242l17.254,17.251-5.75,5.75-11.5-11.5Z" transform="translate(-693.37 -254.24)"/></g><g class="q" transform="matrix(1, 0, 0, 1, -9.5, -6.71)"><path class="a" d="M725.84,294.5V306l-5.75-5.75Z" transform="translate(-693.37 -253.23)"/></g><g class="p" transform="matrix(1, 0, 0, 1, -9.5, -6.71)"><rect class="a" width="8.13" height="24.475" transform="translate(20.96 29.76) rotate(-135)"/></g><g class="o" transform="matrix(1, 0, 0, 1, -9.5, -6.71)"><path class="a" d="M746.1,260.7v11.5l-5.749-5.749Z" transform="translate(-696.38 -248.21)"/></g><g class="n" transform="matrix(1, 0, 0, 1, -9.5, -6.71)"><path class="a" d="M723.828,291.48l-5.749,5.749-11.484-11.484-.015-11.526Z" transform="translate(-691.36 -250.22)"/></g><g class="m" transform="matrix(1, 0, 0, 1, -9.5, -6.71)"><path class="a" d="M719.117,274.236h11.5l-11.5,11.5-5.749-5.749Z" transform="translate(-692.37 -250.22)"/></g><g class="l" transform="matrix(1, 0, 0, 1, -9.5, -6.71)"><path class="a" d="M745.105,326.277h-11.5l11.5-11.5,5.749,5.749Z" transform="translate(-695.38 -256.25)"/></g><g class="k" transform="matrix(1, 0, 0, 1, -9.5, -6.71)"><path class="a" d="M765.392,305.982v-11.5l-11.5,11.5,5.749,5.749Z" transform="translate(-698.39 -253.23)"/></g><g class="j" transform="matrix(1, 0, 0, 1, -9.5, -6.71)"><path class="a" d="M738.346,253.955l5.749,5.749-5.749,5.749-11.5-11.5Z" transform="translate(-694.37 -247.21)"/></g><g class="i" transform="matrix(1, 0, 0, 1, -9.5, -6.71)"><path class="a" d="M740.486,306.036v-11.5l5.75,5.75Z" transform="translate(-696.4 -253.24)"/></g><g class="h" transform="matrix(1, 0, 0, 1, -9.5, -6.71)"><rect class="a" width="8.13" height="24.475" transform="translate(55.59 64.3) rotate(45)"/></g><g class="g" transform="matrix(1, 0, 0, 1, -9.5, -6.71)"><path class="a" d="M720.23,339.827v-11.5l5.749,5.749Z" transform="translate(-693.39 -258.26)"/></g><g class="f" transform="matrix(1, 0, 0, 1, -9.5, -6.71)"><path class="a" d="M740.493,307.044l5.749-5.749,11.484,11.484.016,11.526Z" transform="translate(-696.4 -254.24)"/></g><g class="e" transform="matrix(1, 0, 0, 1, -9.5, -6.71)"><path class="a" d="M725.974,346.576l-5.749-5.749,5.749-5.749,11.5,11.5Z" transform="translate(-693.39 -259.26)"/></g><g class="d" transform="matrix(1, 0, 0, 1, -9.5, -6.71)"><path class="a" d="M732.618,274.234l11.5,11.5v11.5l-17.251-17.251Z" transform="translate(-694.38 -250.22)"/></g><g class="c" transform="matrix(1, 0, 0, 1, -9.5, -6.71)"><path class="a" d="M699.868,305.013h0l23,23v-11.5l-17.251-17.251,5.753-5.752-5.75-5.75-5.754,5.754Z" transform="translate(-690.37 -252.23)"/></g><g class="b" transform="matrix(1, 0, 0, 1, -9.5, -6.71)"><path class="a" d="M699.869,293.509v11.5l11.5-11.5-5.749-5.749Z" transform="translate(-690.37 -252.23)"/></g></g></svg>