<svg xmlns="http://www.w3.org/2000/svg" xmlns:xlink="http://www.w3.org/1999/xlink" width="431.872" height="248.746" viewBox="0 0 431.872 248.746"><defs><style>.a{fill:#27c7ff;}.ae,.b,.q,.u{fill:#fff;}.af,.c,.r,.s,.t{fill:none;}.c{stroke:#dce3e6;stroke-width:4px;}.d{fill:#6f9eb2;}.e,.h{fill:#006ec6;}.f,.m{fill:#ead00c;}.g,.n{fill:#ea8c0c;}.h,.j,.l,.m,.n,.q{font-size:1px;}.ae,.h,.j,.l,.m,.n,.q,.u{font-family:QuicksandBold-Regular, Quicksand;}.i,.j{fill:#0fb4ff;}.k,.l{fill:#6aad3f;}.o{fill:#7bb73d;}.p{fill:#2eb8f7;}.r,.s{stroke:#006ec6;}.af,.r,.s,.t{stroke-miterlimit:10;}.r{stroke-width:1.7px;}.af,.s,.t{stroke-width:2px;}.t{stroke:#6f9eb2;}.af,.t{stroke-linecap:round;stroke-linejoin:round;}.u{font-size:7px;}.ae,.u{letter-spacing:-0.05em;}.ag,.v{fill:#c3c3c3;}.v{opacity:0.337;}.w{fill:#0a4e84;}.x{fill:#48cfff;}.y{fill:#035ba2;}.z{fill:#eebcc5;}.aa{fill:#f7f7fb;}.ab{fill:#3e3577;}.ac{fill:#e7ebf2;}.ad{fill:#cfccdf;}.ae{font-size:23px;}.af{stroke:#fff;}.ag{opacity:0.467;}.ah{fill:#008de5;}.ai{fill:#f9fbfc;}.aj{fill:#efc260;}.ak{fill:#a194ef;}.al{fill:#fff9ff;}.am{filter:url(#o);}.an{filter:url(#m);}.ao{filter:url(#k);}.ap{filter:url(#i);}.aq{filter:url(#g);}.ar{filter:url(#e);}.as{filter:url(#c);}.at{filter:url(#a);}</style><filter id="a" x="0" y="215.668" width="431.872" height="33.077" filterUnits="userSpaceOnUse"><feOffset dy="3" input="SourceAlpha"/><feGaussianBlur stdDeviation="3" result="b"/><feFlood flood-opacity="0.161"/><feComposite operator="in" in2="b"/><feComposite in="SourceGraphic"/></filter><filter id="c" x="95.38" y="204.647" width="24.175" height="24.175" filterUnits="userSpaceOnUse"><feOffset dy="3" input="SourceAlpha"/><feGaussianBlur stdDeviation="3" result="d"/><feFlood flood-opacity="0.161"/><feComposite operator="in" in2="d"/><feComposite in="SourceGraphic"/></filter><filter id="e" x="279.583" y="204.583" width="24.175" height="24.175" filterUnits="userSpaceOnUse"><feOffset dy="3" input="SourceAlpha"/><feGaussianBlur stdDeviation="3" result="f"/><feFlood flood-opacity="0.161"/><feComposite operator="in" in2="f"/><feComposite in="SourceGraphic"/></filter><filter id="g" x="306.082" y="204.583" width="24.175" height="24.175" filterUnits="userSpaceOnUse"><feOffset dy="3" input="SourceAlpha"/><feGaussianBlur stdDeviation="3" result="h"/><feFlood flood-opacity="0.161"/><feComposite operator="in" in2="h"/><feComposite in="SourceGraphic"/></filter><filter id="i" x="151.966" y="204.647" width="24.175" height="24.175" filterUnits="userSpaceOnUse"><feOffset dy="3" input="SourceAlpha"/><feGaussianBlur stdDeviation="3" result="j"/><feFlood flood-opacity="0.161"/><feComposite operator="in" in2="j"/><feComposite in="SourceGraphic"/></filter><filter id="k" x="256.12" y="204.583" width="24.175" height="24.175" filterUnits="userSpaceOnUse"><feOffset dy="3" input="SourceAlpha"/><feGaussianBlur stdDeviation="3" result="l"/><feFlood flood-opacity="0.161"/><feComposite operator="in" in2="l"/><feComposite in="SourceGraphic"/></filter><filter id="m" x="29.557" y="212.39" width="34.562" height="34.562" filterUnits="userSpaceOnUse"><feOffset dy="3" input="SourceAlpha"/><feGaussianBlur stdDeviation="3" result="n"/><feFlood flood-opacity="0.161"/><feComposite operator="in" in2="n"/><feComposite in="SourceGraphic"/></filter><filter id="o" x="379.84" y="212.941" width="34.562" height="34.562" filterUnits="userSpaceOnUse"><feOffset dy="3" input="SourceAlpha"/><feGaussianBlur stdDeviation="3" result="p"/><feFlood flood-opacity="0.161"/><feComposite operator="in" in2="p"/><feComposite in="SourceGraphic"/></filter></defs><g transform="translate(8.873 -0.343)"><rect class="a" width="414" height="237" transform="translate(0 0.343)"/><g transform="translate(0.127 209.488)"><g class="at" transform="matrix(1, 0, 0, 1, -9, -209.15)"><rect class="b" width="413.872" height="15.077" transform="translate(9 221.67)"/></g><g transform="translate(43.221 19.872)"><g transform="translate(0)"><line class="c" y2="3.036"/><line class="c" y2="3.036" transform="translate(84.376)"/><line class="c" y2="3.036" transform="translate(56.251)"/><line class="c" y2="3.036" transform="translate(28.125)"/><line class="c" y2="3.036" transform="translate(112.501)"/><line class="c" y2="3.036" transform="translate(140.626)"/></g><g transform="translate(168.103)"><line class="c" y2="3.036"/><line class="c" y2="3.036" transform="translate(73.147)"/><line class="c" y2="3.036" transform="translate(48.765)"/><line class="c" y2="3.036" transform="translate(24.382)"/><line class="c" y2="3.036" transform="translate(97.53)"/><line class="c" y2="3.036" transform="translate(121.912)"/><line class="c" y2="3.036" transform="translate(146.249)"/><line class="c" y2="3.036" transform="translate(170.54)"/></g></g><path class="d" d="M73.766,3.934H0V0H73.772l0,0L76.04,1.968,73.774,3.932v0h0l0,0Z" transform="translate(307.796 16.142)"/><g transform="translate(93.941 0.063)"><path class="e" d="M10.052,5.473h0A4.526,4.526,0,0,0,1,5.473H1c0,2.662,2.343,6.017,4.526,8.36C7.5,11.863,10.052,8.455,10.052,5.473Z" transform="translate(-1 -1)"/><g class="as" transform="matrix(1, 0, 0, 1, -102.94, -209.21)"><ellipse class="b" cx="3.088" cy="3.088" rx="3.088" ry="3.088" transform="translate(104.38 210.65)"/></g></g><g transform="translate(278.145 0)"><path class="f" d="M10.052,5.473h0A4.526,4.526,0,0,0,1,5.473H1c0,2.662,2.343,6.017,4.526,8.36C7.5,11.863,10.052,8.455,10.052,5.473Z" transform="translate(-1 -1)"/><g class="ar" transform="matrix(1, 0, 0, 1, -287.14, -209.15)"><ellipse class="b" cx="3.088" cy="3.088" rx="3.088" ry="3.088" transform="translate(288.58 210.58)"/></g></g><g transform="translate(304.644 0)"><path class="g" d="M10.052,5.473h0A4.526,4.526,0,0,0,1,5.473H1c0,2.662,2.343,6.017,4.526,8.36C7.5,11.863,10.052,8.455,10.052,5.473Z" transform="translate(-1 -1)"/><g class="aq" transform="matrix(1, 0, 0, 1, -313.64, -209.15)"><ellipse class="b" cx="3.088" cy="3.088" rx="3.088" ry="3.088" transform="translate(315.08 210.58)"/></g></g><text class="h" transform="translate(97.716 3.688)"><tspan x="0" y="0">1</tspan></text><g transform="translate(150.528 0.063)"><path class="i" d="M10.052,5.473h0A4.526,4.526,0,0,0,1,5.473H1c0,2.662,2.343,6.017,4.526,8.36C7.5,11.863,10.052,8.455,10.052,5.473Z" transform="translate(-1 -1)"/><g class="ap" transform="matrix(1, 0, 0, 1, -159.53, -209.21)"><ellipse class="b" cx="3.088" cy="3.088" rx="3.088" ry="3.088" transform="translate(160.97 210.65)"/></g><text class="j" transform="translate(3.499 3.624)"><tspan x="0" y="0">2</tspan></text></g><g transform="translate(254.682)"><path class="k" d="M10.052,5.473h0A4.526,4.526,0,0,0,1,5.473H1c0,2.662,2.343,6.017,4.526,8.36C7.5,11.863,10.052,8.455,10.052,5.473Z" transform="translate(-1 -1)"/><g class="ao" transform="matrix(1, 0, 0, 1, -263.68, -209.15)"><ellipse class="b" cx="3.088" cy="3.088" rx="3.088" ry="3.088" transform="translate(265.12 210.58)"/></g><text class="l" transform="translate(3.403 3.624)"><tspan x="0" y="0">3</tspan></text></g><text class="m" transform="translate(281.547 3.624)"><tspan x="0" y="0">4</tspan></text><text class="n" transform="translate(308.046 3.624)"><tspan x="0" y="0">5</tspan></text><path class="g" d="M90.349,3.934H0V0H90.357l0,0,2.776,1.968L90.359,3.932v0h0l0,0Z" transform="translate(217.258 16.142)"/><path class="f" d="M77.789,3.934H0V0H77.795l0,0,2.39,1.968L77.8,3.932v0h0l0,0Z" transform="translate(204.561 16.142)"/><path class="o" d="M104.873,3.934H0V0H104.881l0,0,2.492,1.968L104.884,3.93v0h0l0,0Z" transform="translate(154.323 16.142)"/><path class="p" d="M56.654,3.934H0V0H56.659l0,0L58.4,1.968,56.66,3.932v0h0l0,0Z" transform="translate(98.406 16.142)"/><path class="e" d="M62.392,3.934H0V0H62.4l0,0,1.917,1.968L62.4,3.932v0h0l0,0Z" transform="translate(36.458 16.142)"/><g class="an" transform="matrix(1, 0, 0, 1, -9, -209.15)"><ellipse class="b" cx="8.281" cy="8.281" rx="8.281" ry="8.281" transform="translate(38.56 218.39)"/></g><text class="q" transform="translate(70.41 25.15)"><tspan x="0" y="0">1</tspan></text><text class="q" transform="translate(98.565 25.15)"><tspan x="0" y="0">2</tspan></text><text class="q" transform="translate(126.72 25.15)"><tspan x="0" y="0">3</tspan></text><text class="q" transform="translate(154.323 25.15)"><tspan x="0" y="0">4</tspan></text><text class="q" transform="translate(182.754 25.15)"><tspan x="0" y="0">5</tspan></text><text class="q" transform="translate(210.081 25.15)"><tspan x="0" y="0">6</tspan></text><text class="q" transform="translate(235.2 25.15)"><tspan x="0" y="0">7</tspan></text><text class="q" transform="translate(259.215 25.15)"><tspan x="0" y="0">8</tspan></text><text class="q" transform="translate(283.506 25.15)"><tspan x="0" y="0">9</tspan></text><text class="q" transform="translate(307.796 25.15)"><tspan x="0" y="0">10</tspan></text><g class="am" transform="matrix(1, 0, 0, 1, -9, -209.15)"><ellipse class="b" cx="8.281" cy="8.281" rx="8.281" ry="8.281" transform="translate(388.84 218.94)"/></g><g transform="translate(34.457 13.589)"><path class="r" d="M20.191,17.9H19.5V15.5h.691a.26.26,0,0,1,.251.274v1.817A.293.293,0,0,1,20.191,17.9Z" transform="translate(-13.528 -10.357)"/><g transform="translate(0 0)"><path class="s" d="M6.063,8.386H.5V.5H6.063a.436.436,0,0,1,.409.446V7.94A.436.436,0,0,1,6.063,8.386Z" transform="translate(-0.5 -0.5)"/><path class="s" d="M.5.5H6.692A.436.436,0,0,1,7.1.946V5.54" transform="translate(-0.5 -0.5)"/></g></g><text class="q" transform="translate(332.363 25.15)"><tspan x="0" y="0">11</tspan></text><text class="q" transform="translate(356.654 25.15)"><tspan x="0" y="0">12</tspan></text><text class="q" transform="translate(380.669 25.15)"><tspan x="0" y="0">13</tspan></text><g transform="translate(383.153 11.177)"><path class="t" d="M10.712,5.8h0A4.857,4.857,0,0,0,1,5.8H1c0,2.857,2.514,6.456,4.856,8.97C7.97,12.655,10.712,9,10.712,5.8Z" transform="translate(-1 -1)"/><ellipse class="t" cx="2.857" cy="2.857" rx="2.857" ry="2.857" transform="translate(2 2)"/></g></g><text class="u" transform="translate(31.251 199.563)"><tspan x="0" y="0">2018-03-10 at 10:00:00</tspan></text><text class="u" transform="translate(359.374 196.636)"><tspan x="0" y="0">Delivery Date</tspan></text><text class="u" transform="translate(329.602 207.544)"><tspan x="0" y="0">2018-03-10 at 10:00:00</tspan></text><g transform="translate(321.716 71.79)"><ellipse class="v" cx="17.383" cy="7.462" rx="17.383" ry="7.462" transform="translate(0 74.161)"/><g transform="translate(1.922)"><path class="w" d="M210.615,404.962c.38.021.55.483.6.861a8.328,8.328,0,0,1,.066,1.434,1.666,1.666,0,0,1-.128.661,1.28,1.28,0,0,1-.787.615,4.915,4.915,0,0,1-1.013.156c-1.928.19-3.82.886-5.751.726a1.871,1.871,0,0,1-.861-.236.783.783,0,0,1-.384-.759c.063-.34.4-.55.7-.718a34.489,34.489,0,0,1,4.165-1.67c.162-.065.894-.728,1.068-.7s-.084.271-.1.446a1.623,1.623,0,0,0,1.141.163,1.516,1.516,0,0,0,.912-.638C210.36,405.125,210.408,404.951,210.615,404.962Z" transform="translate(-194.385 -327.557)"/><path class="w" d="M224.984,411.721a.433.433,0,0,1,.4.213,1.172,1.172,0,0,1,.146.448,10.622,10.622,0,0,1,.156,1.538.857.857,0,0,1-.456.743,4.011,4.011,0,0,0-1.06,1.15,6.878,6.878,0,0,1-4.2,2.556.837.837,0,0,1-.984-.676,1.642,1.642,0,0,1,0-.519,3.026,3.026,0,0,1,.556-1.216c.411-.583,2.728-2.136,3.121-2.569.582-.64.624-1.549,1.452-1.786A.967.967,0,0,1,224.984,411.721Z" transform="translate(-200.123 -329.834)"/><path class="x" d="M211.318,402.586v3.176l.151.09a1.912,1.912,0,0,0,2.42-.392h0l.1-2.874Z" transform="translate(-197.484 -326.736)"/><path class="x" d="M227.4,411.871,227.48,409h-2.017l.043,2.785S225.934,413.065,227.4,411.871Z" transform="translate(-202.37 -328.951)"/><g transform="translate(0 8.708)"><path class="b" d="M194.195,316.141a2.955,2.955,0,0,1-2.433-1.121,5.728,5.728,0,0,1-1.5-4.914c.145-.868,1.269-5.419,9.193-9.806a2.291,2.291,0,1,1,2.22,4.008c-2.578,1.434-6.554,4.509-6.895,6.554a1.065,1.065,0,0,0,.04.562c1.7-.548,5.773-3.281,9.345-6.321a2.291,2.291,0,0,1,2.97,3.489C200.032,314.646,196.273,316.141,194.195,316.141Z" transform="translate(-190.183 -300.014)"/></g><g transform="translate(21.177 40.69)"><path class="y" d="M225.735,389.4c.043,0,.084,0,.126,0a2.617,2.617,0,0,0,2.491-2.739c-.007-.15-.709-15.035-.562-19.6.172-5.342.387-15.415.39-15.516a2.618,2.618,0,0,0-2.562-2.673h-.057a2.618,2.618,0,0,0-2.616,2.563c0,.1-.217,10.145-.389,15.458-.154,4.77.535,19.394.565,20.014A2.618,2.618,0,0,0,225.735,389.4Z" transform="translate(-222.535 -348.872)"/></g><g transform="translate(10.369 4.249)"><path class="z" d="M208.315,298.832a2.291,2.291,0,0,1-1.644-3.887l1.019-1.049a2.291,2.291,0,1,1,3.288,3.191l-1.019,1.049A2.285,2.285,0,0,1,208.315,298.832Z" transform="translate(-206.024 -293.2)"/></g><g transform="translate(11.148 36.343)"><path class="y" d="M211.75,382.761a2.557,2.557,0,0,0,.358-.024,2.618,2.618,0,0,0,2.239-2.949c-.566-4.14-2.009-15.69-1.89-19.38.167-5.17,1.693-15.057,1.709-15.156a2.619,2.619,0,1,0-5.175-.8c-.065.418-1.591,10.3-1.768,15.79-.157,4.884,1.85,19.633,1.936,20.258A2.618,2.618,0,0,0,211.75,382.761Z" transform="translate(-207.215 -342.231)"/></g><path class="y" d="M224.309,341.156l-1.119,10.923-14.18-3.273-.174-9.214S222.57,339.94,224.309,341.156Z" transform="translate(-196.626 -304.977)"/><path class="aa" d="M219.1,307.331s1.88.525,2.055.962-1.224,2.447-2.71,3.541-3.226,11.468-3.226,11.468-.926-12.124-.882-14.966S219.1,307.331,219.1,307.331Z" transform="translate(-198.524 -293.631)"/><g transform="translate(9.49 2.895)"><rect class="ab" width="8.622" height="4.264" transform="matrix(-0.747, 0.664, -0.664, -0.747, 9.277, 3.187)"/><rect class="ac" width="2.955" height="7.313" transform="matrix(0.664, 0.747, -0.747, 0.664, 6.39, 0.924)"/></g><path class="b" d="M212.845,307.355a3.788,3.788,0,0,0-3.351,3.671c-.133,2.79-.709,15.43-.9,19.582a2.39,2.39,0,0,0,1.072,2.108c1.923,1.274,5.87,3.644,8.443,3.527a18.749,18.749,0,0,0,6.065-1.277s.319-22.345-.479-23.462-6.384-5.107-7.66-5.107A9.406,9.406,0,0,0,212.845,307.355Z" transform="translate(-196.542 -293.51)"/><path class="z" d="M209.9,294.576a5.117,5.117,0,1,0,5.426-4.788A5.117,5.117,0,0,0,209.9,294.576Z" transform="translate(-196.992 -287.77)"/><path class="z" d="M213.909,301.169l1.742,5.263h0a3.281,3.281,0,0,0,3.67.38h0a.808.808,0,0,0,.4-.911l-1.3-5.108Z" transform="translate(-198.379 -291.574)"/><path class="z" d="M222.157,297.356a1.558,1.558,0,1,0,1.652-1.457A1.558,1.558,0,0,0,222.157,297.356Z" transform="translate(-201.227 -289.883)"/><rect class="aa" width="13.265" height="7.296" transform="translate(42.318 55.628) rotate(180)"/><path class="aa" d="M220.641,307.508s0-2.193-.39-2.339-1.121-.487-1.121-.487l.293,1.169a4.582,4.582,0,0,1-2.144,1.267l-1.072.146-.488.511-.486-1.632-.341-.975s-.682-.048-.78.2a42.749,42.749,0,0,0,1.023,4.287l1.365.244,1.9-.78Z" transform="translate(-198.447 -292.918)"/><path class="z" d="M216.082,309.408l.732,1.925-.487,1.413-.585-.1-.585-1.559Z" transform="translate(-198.81 -294.55)"/><path class="z" d="M215.2,325.974s-.884-7.863-.786-8.449,1.072-3.167,1.072-3.167l.585.1.043.084.7,3.391Z" transform="translate(-198.549 -296.26)"/><g transform="translate(23.124 17.382)"><path class="b" d="M239.395,342.431a2.291,2.291,0,0,1-2.26-1.935c-1.062-6.74-2.645-14.824-3.353-16.131-.818-1.511-4.811-5-7.386-7a2.291,2.291,0,0,1,2.808-3.62c1.163.9,7.043,5.548,8.608,8.439,1.411,2.607,3.3,14.13,3.849,17.6a2.291,2.291,0,0,1-1.907,2.619A2.227,2.227,0,0,1,239.395,342.431Z" transform="translate(-225.509 -313.264)"/></g><g transform="translate(34.023 43.914)"><path class="z" d="M244.449,359.64a2.293,2.293,0,0,1-1.972-3.456l.744-1.259a2.291,2.291,0,1,1,3.946,2.328l-.743,1.26A2.292,2.292,0,0,1,244.449,359.64Z" transform="translate(-242.16 -353.797)"/></g><path class="w" d="M220.114,292.807a1.266,1.266,0,0,0-.914.454,1.352,1.352,0,0,0-.126.8q.026.541.052,1.083a.249.249,0,0,1-.306.03.622.622,0,0,1-.23-.249,4.128,4.128,0,0,1-.42-1.741c-.027-.3-.2-.562-.137-.862a3.673,3.673,0,0,1,.328-.854,17.232,17.232,0,0,1-7.06.151,1.324,1.324,0,0,1-.721-.3,1.134,1.134,0,0,1-.24-.427,8.21,8.21,0,0,1-.014-2.873,2.008,2.008,0,0,1,1.277-1.144,4.2,4.2,0,0,1,1.756-.125c.372.039,3.922,1.05,6.482,1.789a2.02,2.02,0,0,1,1.112,3.073C220.62,292.1,220.31,292.547,220.114,292.807Z" transform="translate(-197.1 -286.71)"/><path class="w" d="M218.412,298.434a5.325,5.325,0,0,1-.166,1.56,1.8,1.8,0,0,1-.978,1.168,2.343,2.343,0,0,1-.814.13,1.986,1.986,0,0,1-.851-.118c-.533-.236-.8-.84-1.262-1.192a1.606,1.606,0,0,0-1.839-.034,3.59,3.59,0,0,0-1.921-.775.4.4,0,0,0-.255.031.429.429,0,0,0-.145.359,23.849,23.849,0,0,0-.015,2.6,1.693,1.693,0,0,0,.164.764,1.534,1.534,0,0,0,.765.581,9.814,9.814,0,0,0,6.4.016,1.787,1.787,0,0,0,.729-.323,1.87,1.87,0,0,0,.482-1.138l.406-2.321a1.588,1.588,0,0,0,.029-.571C219.079,298.856,218.639,298.656,218.412,298.434Z" transform="translate(-197.076 -290.76)"/></g></g><g transform="translate(66.211 85.334)"><ellipse class="v" cx="17.383" cy="7.462" rx="17.383" ry="7.462" transform="translate(0 67.057)"/><g transform="translate(5.155)"><ellipse class="z" cx="5.9" cy="5.9" rx="5.9" ry="5.9" transform="translate(8.996 1.843)"/><path class="w" d="M430.159,429.119l-.337,2.073s-.052.492.233.648a2.429,2.429,0,0,0,1.555.337,11.577,11.577,0,0,0,2.307-.907s.441-.622.518-.6a5.31,5.31,0,0,0,.6.026s2.955-1.322,3.421-1.97-.207-1.478-.207-1.478-.856-.778-3.5.389A20.768,20.768,0,0,1,430.159,429.119Z" transform="translate(-427.151 -355.702)"/><path class="w" d="M415.4,436.659l-.337,2.074s-.052.492.233.648a2.425,2.425,0,0,0,1.555.338,11.618,11.618,0,0,0,2.307-.907s.441-.622.519-.6a5.159,5.159,0,0,0,.6.026s2.955-1.322,3.422-1.97-.208-1.477-.208-1.477-.855-.778-3.5.389A20.743,20.743,0,0,1,415.4,436.659Z" transform="translate(-402.961 -358.42)"/><path class="z" d="M423.681,330.319l-1.217,5.715h0a3.458,3.458,0,0,0,3.135,2.3h0a.852.852,0,0,0,.849-.615l1.538-5.338Z" transform="translate(-411.817 -320.845)"/><path class="ad" d="M441.747,339.143l-1.759-.179s-2.164-.19-2.9.551-5.185,7.258-5.925,10.813,5.777,5.184,5.777,5.184l2.963-1.185Z" transform="translate(-431.1 -323.954)"/><path class="y" d="M436.672,380.975c-.131-.043-.269-.087-.392-.13-.356-.123-.7-.254-1.016-.392-.391-.159-.747-.333-1.081-.493-.413-.21-3.192-1.271-3.5-1.46,0,0,.037,9.611-.654,18.147-.489,6.028-1.722,11.253-1.911,13.345a12.451,12.451,0,0,0,.087,3.176c.1.015,1.342.152,1.85.16h.021a5.435,5.435,0,0,0,3.539-2.023l.058-.239,3-13.894,1.166-11.331A17.178,17.178,0,0,1,436.672,380.975Z" transform="translate(-425.251 -338.216)"/><path class="b" d="M397.75,351.113a3.706,3.706,0,0,1,.472.834,2.353,2.353,0,0,0-.457.573l-.058.029a5.7,5.7,0,0,0-2.85-2.487c-.116-.044-.225-.08-.327-.116-.015,0-.029-.007-.043-.007a5.592,5.592,0,0,0,.551-.544l.116-.116a3.669,3.669,0,0,1,.675.254A5.308,5.308,0,0,1,397.75,351.113Z" transform="translate(-364.162 -327.68)"/><path class="y" d="M420.261,381.838a11.914,11.914,0,0,1-3.582-.253c-.486-.109-.95-.232-1.392-.377,0,2.067,1.154,9.473,1.292,13.585.007.2.16,4.36.175,4.548.13,1.908.113,18.106.7,18.019,1.226-.189,2.047.54,3.149-.7.487-4.6,2.291-9.984,2.974-15.745.841-7.1.581-14.662,1.29-20.766A9.187,9.187,0,0,1,420.261,381.838Z" transform="translate(-404.107 -338.81)"/><path class="y" d="M420.261,381.838a9.187,9.187,0,0,0,4.605-1.689c-.341,2.94-.625,6.18-.879,9.54-2.537-.386-6.2-2.543-8.605-4.126-.057-1.987-.1-3.623-.1-4.355.442.145.906.268,1.392.377A11.914,11.914,0,0,0,420.261,381.838Z" transform="translate(-404.107 -338.81)"/><path class="b" d="M424.742,349.118a5.457,5.457,0,0,0-2.973-2.781c-.116-.043-.225-.08-.327-.116a9.282,9.282,0,0,0-.913.682c-.145.116-.29.24-.428.363-.16.138-.319.283-.471.428a.454.454,0,0,1-.058.058c-1.023.979-1.965,2.06-2.981,2.988.606-.561-3.051-5.854-3.576-6.476-2.937-3.488-8.732-4.831-13.053-5.3-7.154-.769-4.52,24.274-3.757,25.037a6.4,6.4,0,0,0,1.015.725c.5.307,2.664,2.01,4.431,2.34,3.317.617,7.2.591,10.183-1.774.123-.1.261-.181.385-.283,0-.471-.85-10.432-.8-13.347.556.681,2.376,4.042,2.922,4.852a1.885,1.885,0,0,0,1.441.863,1.845,1.845,0,0,0,1.189-.382C420.108,354.641,422.193,351.954,424.742,349.118Z" transform="translate(-391.074 -323.956)"/><ellipse class="z" cx="1.722" cy="1.722" rx="1.722" ry="1.722" transform="translate(31.814 19.41)"/><path class="b" d="M422.942,338.171l.75-2.3,5.062,1.922.188,2.015Z" transform="translate(-413.077 -322.848)"/><path class="w" d="M419.358,324.286a5.974,5.974,0,0,1,5.9-5.9,5.866,5.866,0,0,1,3,.824c.344.807.411,1.631-.138,1.919.57-.21-.61,5-1.3,4.911l-.424-.181c-.162-.733-.577-1.616-.868.139a1.064,1.064,0,0,0,.05.554c.431,1.062.957,2.823-1.549,2.823C423.76,329.375,419.2,329.057,419.358,324.286Z" transform="translate(-410.361 -316.542)"/><path class="z" d="M419.282,329.89a1.722,1.722,0,1,1,2.159,1.126A1.722,1.722,0,0,1,419.282,329.89Z" transform="translate(-404.392 -319.882)"/><path class="w" d="M423.614,323.423l.287,1.368a.931.931,0,0,0,.171.435.322.322,0,0,0,.421.076,3.011,3.011,0,0,1,.37-2.364,2.483,2.483,0,0,0,.372-.442c.27-.521-.192-1.239.15-1.716.2-.277.577-.334.9-.453a2.352,2.352,0,0,0,1.269-2.879,3.048,3.048,0,0,0-2.645-1.944.67.67,0,0,1-.1.763,1.5,1.5,0,0,1-.7.413,12.9,12.9,0,0,1-3.378.272,10.722,10.722,0,0,0-3.053.591,2.006,2.006,0,0,0-1.1.728c-.207.333-.222.751-.394,1.1-.291.595-.965.894-1.383,1.407a2.69,2.69,0,0,0,.24,3.264A7.816,7.816,0,0,0,417.941,326c.346.162.774.319,1.085.1a1.094,1.094,0,0,0,.323-.474l.847-1.894a3.737,3.737,0,0,1,.565-.981,1.262,1.262,0,0,1,.992-.467,1.833,1.833,0,0,1,.758.29C422.846,322.765,423.284,323.223,423.614,323.423Z" transform="translate(-406.298 -315.503)"/></g></g><text class="ae" transform="translate(159.791 128.491)"><tspan x="0" y="0">MILESTONES</tspan></text><g transform="translate(119.773 102.02)"><path class="af" d="M29.122,14.9h0A14.062,14.062,0,0,0,1,14.9H1c0,8.271,7.279,18.693,14.061,25.972C21.182,34.747,29.122,24.16,29.122,14.9Z" transform="translate(-1 -1)"/><ellipse class="af" cx="8.271" cy="8.271" rx="8.271" ry="8.271" transform="translate(5.79 5.79)"/></g><g transform="translate(359.507 68.734)"><ellipse class="ag" cx="17.608" cy="5.9" rx="17.608" ry="5.9" transform="translate(4.324 86.328)"/><path class="y" d="M453.766,276.06q-.172,1.348-.343,2.695a3.18,3.18,0,0,0,.079,1.641,1.1,1.1,0,0,0,1.331.682,1.562,1.562,0,0,0,.652-.706,14.939,14.939,0,0,0,1.715-3.849c.375-1.481.753-5.1-1.629-4.308C453.935,272.756,453.957,274.565,453.766,276.06Z" transform="translate(-427.541 -185.318)"/><path class="y" d="M437.138,269.159c.405.022.593.513.652.915a8.951,8.951,0,0,1,.091,1.526c-.007.24-.1,2.58-.1,2.58l-.571-.088-.176-1.931a25.2,25.2,0,0,1-4.081,3.072c-.3.115-2.36.942-3.348-.143-.667-.731.528-1.521.846-1.7,1.481-.83,3.952-3.111,4.345-3.2s.88-.979,1.1-1.317C436.01,268.686,436.917,269.146,437.138,269.159Z" transform="translate(-420.275 -184.323)"/><g transform="translate(0 12.297)"><path class="z" d="M421.134,182.894c-.155,0-.309-.006-.463-.02a4.908,4.908,0,0,1-3.718-2.181c-.722-1.047-2.919-4.233,8.505-14.865a2.438,2.438,0,0,1,3.323,3.569c-3.408,3.173-6.558,6.889-7.383,8.629,1.078-.16,3.593-1.7,5.657-3.734,1.023-1.8,3.373-5.11,6.41-4.1a2.438,2.438,0,0,1-.847,4.75,8.843,8.843,0,0,0-1.448,1.982l-.164.3-.244.25C429.852,178.41,425.235,182.894,421.134,182.894Z" transform="translate(-416.299 -165.175)"/></g><g transform="translate(9.009 8.747)"><rect class="y" width="9.176" height="4.538" transform="matrix(-0.747, 0.664, -0.664, -0.747, 9.873, 3.392)"/><rect class="ac" width="3.145" height="7.783" transform="matrix(0.664, 0.747, -0.747, 0.664, 6.801, 0.983)"/></g><path class="ah" d="M447.814,197.021a37.1,37.1,0,0,0-1.984-6.509s3.3-10.982,2.915-11.643c-.732-1.264-6.245-6.059-7.6-6.188a10.007,10.007,0,0,0-3.479.691l-4.664,4.722a4.873,4.873,0,0,0-1.229,4.727l2.425,8.012-1.764,8.982s-.764-.465,5.853.474,8.629,2.2,8.629,2.2l.9-5.466" transform="translate(-420.941 -155.151)"/><path class="z" d="M447.977,231.108s.268-13.324.513-17.572-.494-3.8-2.269-5.555c0,0-9.413,1.579-11.277-1.608,0,0-1.351-3.226-2.068,5.278a112.682,112.682,0,0,0,.394,17.652s2.295,21.974,1.856,22.545-2.69,1.933-3.041,2.548-.044.878.834.7a14.063,14.063,0,0,0,4.27-2.767c.351-.57.65-1.168.676-3.414.3-3.222,1.562-8.171,1.237-12.722a28.349,28.349,0,0,1,.973-8.375c.233-1.8.74-16.649.74-16.649l-2.224-.031s3.186,17.173,3.691,20.814,5.954,21,5.954,21-1.032,6.278-.43,6.88,2.064-2.752,2.236-3.784.086-4.987.086-4.987Z" transform="translate(-421.045 -165.194)"/><path class="z" d="M436.154,160.483a5.445,5.445,0,1,0,6.233-4.521A5.445,5.445,0,0,0,436.154,160.483Z" transform="translate(-422.302 -150.062)"/><path class="z" d="M439.758,167.1l1.312,5.753h0a3.491,3.491,0,0,0,3.848.775h0a.859.859,0,0,0,.517-.924l-.857-5.542Z" transform="translate(-423.416 -153.463)"/><path class="z" d="M443.556,172.771c.03.011.066.031.1.044.076.032.15.063.235.107.024.012.049.026.075.04.1.055.215.119.331.188l.041.024.045.026.019.013c.133.082.273.173.417.27l.13.087q.216.148.445.314l.166.122.006,0c.112.083.225.168.34.255l.259.2.1.077.249.2q.138.11.276.222l.09.074.121.1c.169.139.337.279.5.421l.133.114c.224.193.447.386.662.579h0c-.6.541-1.4.987-1.861,1.368A7.146,7.146,0,0,1,442.1,179.7a3.639,3.639,0,0,1-1.534-.224,3.372,3.372,0,0,1-1.8-2.03,6.911,6.911,0,0,1-.286-2.764c0-.01,0-.02,0-.03l1.269-1.285a10.007,10.007,0,0,1,3.479-.691,1.231,1.231,0,0,1,.27.07C443.516,172.758,443.536,172.763,443.556,172.771Z" transform="translate(-423.02 -155.151)"/><path class="y" d="M434.082,198.494s1.668,3.412,6.713,3.051,4.849-3.369,4.849-3.369,4.022,1.2,3.849,11.864-.522,17.714-.522,17.714-5.648,6.585-16.566.31c0,0-1.351-19.831-1.351-22.9S432,201.748,434.082,198.494Z" transform="translate(-420.775 -162.89)"/><path class="ai" d="M451.8,188.552l-9.928,3.536,1.5,10.064,13.872-5.168Z" transform="translate(-424.059 -159.97)"/><path class="aj" d="M453.083,188.978l-9.928,3.536,1.5,10.064,13.871-5.168Z" transform="translate(-424.447 -160.099)"/><g transform="translate(23.353 22.882)"><path class="z" d="M452.794,205.26a2.438,2.438,0,0,1-1.693-4.192c1.913-1.847,5.282-5.442,6.177-7.227.662-1.318-2.6-5.854-6.575-9.157a2.438,2.438,0,1,1,3.115-3.753,41.026,41.026,0,0,1,4.733,4.751c3.426,4.116,4.465,7.6,3.087,10.345-1.56,3.111-6.584,8-7.151,8.55A2.43,2.43,0,0,1,452.794,205.26Z" transform="translate(-449.821 -180.369)"/></g><path class="ah" d="M442.47,155.962a5.444,5.444,0,0,0-6.113,3.96,5.441,5.441,0,0,0,6.565-.635,5.431,5.431,0,0,0,3.982,3.322c.033-.136.065-.273.088-.414A5.445,5.445,0,0,0,442.47,155.962Z" transform="translate(-422.384 -150.062)"/><path class="ah" d="M442.675,150.768a3.85,3.85,0,1,0,4.407-3.2A3.85,3.85,0,0,0,442.675,150.768Z" transform="translate(-424.286 -147.522)"/><path class="z" d="M448.27,164.055a1.658,1.658,0,1,0,1.9-1.377A1.658,1.658,0,0,0,448.27,164.055Z" transform="translate(-425.992 -152.114)"/><path class="y" d="M448.034,207.719l3.977,6.407-1.937,3.521-6.528-3.4Z" transform="translate(-424.565 -165.785)"/><path class="ai" d="M448.918,166.631a.447.447,0,1,0,.512-.371A.448.448,0,0,0,448.918,166.631Z" transform="translate(-426.193 -153.205)"/><path class="ai" d="M439.779,173.452a.448.448,0,1,0,.513-.371A.447.447,0,0,0,439.779,173.452Z" transform="translate(-423.42 -155.274)"/><path class="ai" d="M438.242,175.237a.448.448,0,1,0,.513-.371A.447.447,0,0,0,438.242,175.237Z" transform="translate(-422.954 -155.816)"/><path class="ai" d="M437.745,178.392a.448.448,0,1,0,.512-.371A.448.448,0,0,0,437.745,178.392Z" transform="translate(-422.803 -156.773)"/><path class="ai" d="M439.612,180.261a.448.448,0,1,0,.513-.372A.448.448,0,0,0,439.612,180.261Z" transform="translate(-423.37 -157.34)"/><path class="ai" d="M442.477,179.513a.448.448,0,1,0,.512-.371A.448.448,0,0,0,442.477,179.513Z" transform="translate(-424.239 -157.113)"/><path class="ai" d="M444.677,177.977a.448.448,0,1,0,.513-.371A.448.448,0,0,0,444.677,177.977Z" transform="translate(-424.907 -156.647)"/><path class="ai" d="M446.5,176.067a.448.448,0,1,0,.512-.371A.448.448,0,0,0,446.5,176.067Z" transform="translate(-425.461 -156.068)"/><path class="ai" d="M447.086,174.7a.448.448,0,1,0,.513-.371A.448.448,0,0,0,447.086,174.7Z" transform="translate(-425.637 -155.652)"/></g><text class="u" transform="translate(31.108 188.657)"><tspan x="0" y="0">Start Date</tspan></text><g transform="translate(37.339 76.467)"><ellipse class="ag" cx="17.608" cy="5.9" rx="17.608" ry="5.9" transform="translate(0 79.003)"/><g transform="translate(2.031)"><path class="ab" d="M299.4,435.229l-.412,3.612a26.771,26.771,0,0,1,4.274,1.364,1.4,1.4,0,0,1,.756,1.556v.006l-7.863.046s-1.234-.366-1.143-.96a14.47,14.47,0,0,1,.777-2.149l.274-4.069Z" transform="translate(-280.951 -354.536)"/><path class="z" d="M295.911,438.7l.274-4.069,3.338.594-.412,3.612a26.771,26.771,0,0,1,4.274,1.364c.014.007.027.017.041.024a2.5,2.5,0,0,1-1.984.715,36.093,36.093,0,0,1-6.006-1.078C295.657,439.281,295.911,438.7,295.911,438.7Z" transform="translate(-281.072 -354.536)"/><g transform="translate(6.195 76.744)"><path class="ab" d="M290.678,434.318a1,1,0,0,1,.484,1.033c-.143.519-.842,1.073-1.581,1.71-1.646,1.417-4.28,2.679-4.937,2.377-1.1-.5-.366-2.377-.275-2.789S289.672,433.176,290.678,434.318Z" transform="translate(-284.046 -431.118)"/><path class="z" d="M287.825,430.368,287.5,433.7s1.829-.549,1.966-.32.183.96-1.279,1.966-3.384,1.417-3.612,1.005a60.379,60.379,0,0,1-.046-6.4Z" transform="translate(-284.164 -429.956)"/></g><g transform="translate(1.265 15.903)"><path class="ad" d="M285.295,360.234c-2.9,0-6.4-2.319-8.033-12.262l-.039-.24a2.151,2.151,0,0,1,4.189-.98c.017.067.052.247.1.521,1.013,6.166,2.766,8.816,3.975,8.643,3.2-.42,6.008-4.208,6.822-5.633a2.151,2.151,0,0,1,3.743,2.121c-.161.285-4.013,6.99-10,7.779A5.726,5.726,0,0,1,285.295,360.234Z" transform="translate(-277.172 -345.122)"/></g><g transform="translate(4.495 39.618)"><path class="y" d="M287.123,416.251l1.422-18.637L289,381.071a3.332,3.332,0,0,0-3.738-2.853c-1.82.245-3.81,4.666-3.565,6.486l1.474,12.91.489,18.4C283.458,417.844,286.936,417.952,287.123,416.251Z" transform="translate(-281.675 -378.19)"/></g><g transform="translate(12.937 41.292)"><path class="y" d="M299.077,420.934l1.928-19.852.071-14.608c-.3-1.812-4.2-6.237-6.009-5.936s-1.763,2.409-1.462,4.22l1.781,16.8-.049,18.984Z" transform="translate(-293.447 -380.524)"/></g><path class="y" d="M297.641,376.685c.226,4.9,0,9.48,0,9.48l-12.065-1.829-3.9-.767s-.358-7.228.132-8.343l7.817-1.433C291.993,373.359,296.109,374.825,297.641,376.685Z" transform="translate(-277.144 -337.307)"/><path class="z" d="M295.268,332.373a5.97,5.97,0,1,1-7.264-4.3A5.97,5.97,0,0,1,295.268,332.373Z" transform="translate(-277.7 -324.343)"/><path class="b" d="M280.1,352.449s-2.791-5.969-.057-7.857a15.187,15.187,0,0,1,4.665.475s7.018,3.373,10.656,5.048c2.874,1.322.423,8.266.552,14.043.027,1.215,1.081,2.149,1.081,3.475v2.928s-8.387,1.429-11.278.463c-2.837-.948-5.42-2.255-5.022-3.648s2.189-6.567,1.393-8.358A61.864,61.864,0,0,1,280.1,352.449Z" transform="translate(-276.379 -329.057)"/><path class="z" d="M304.411,348.975a2.078,2.078,0,1,1-2.078-2.078A2.078,2.078,0,0,1,304.411,348.975Z" transform="translate(-282.435 -329.721)"/><path class="z" d="M287.943,338.7l-.894,6.407,4.623,1.277,1.188-5.747Z" transform="translate(-278.7 -327.404)"/><g transform="translate(17.396 6.86)"><path class="ab" d="M318.212,338.108l-9.561-5.476a.844.844,0,0,0-.587-.1c-.271.062-.525.148-.525.384l-.014,8.887.841.5c-.275.133-8.668,4.218-8.681,4.228l-.02.343a.413.413,0,0,0,.206.359c1.429.828,9.8,5.665,9.8,5.665a.889.889,0,0,0,.89,0l7.954-4.6a.271.271,0,0,0,.134-.232l.014-9.187A.89.89,0,0,0,318.212,338.108Z" transform="translate(-299.664 -332.513)"/><g transform="translate(7.829 0.122)"><path class="ak" d="M321.465,348.083l-10.862-6.2-.022-8.867a.333.333,0,0,1,.5-.29l10.016,5.737a.7.7,0,0,1,.354.608Z" transform="translate(-310.581 -332.684)"/><path class="al" d="M311.2,333.464l9.944,5.707.021,8.348L311.2,341.8Z" transform="translate(-310.757 -332.905)"/></g><g transform="translate(0.008 9.26)"><path class="ak" d="M318.374,351.685l-10.855-6.26-7.677,4.437a.333.333,0,0,0,0,.576l9.994,5.775a.7.7,0,0,0,.7,0Z" transform="translate(-299.675 -345.425)"/></g><path class="al" d="M311.086,354.9l-3.725-2.151-2.128,1.311,3.723,2.151Z" transform="translate(-301.239 -338.237)"/></g><g transform="translate(15.051 20.733)"><path class="z" d="M304.532,367c-2.9,0-6.4-2.319-8.034-12.264l-.041-.247a2.121,2.121,0,0,1,1.575-2.573,2.18,2.18,0,0,1,2.616,1.6c.017.067.052.246.1.519,1.013,6.167,2.793,8.818,3.975,8.645,3.823-.5,6.791-5.578,6.82-5.629a2.152,2.152,0,0,1,3.746,2.119c-.161.285-4.015,6.99-10,7.777A5.7,5.7,0,0,1,304.532,367Z" transform="translate(-296.394 -351.857)"/></g><path class="z" d="M320.649,356.467a2.078,2.078,0,1,1-2.078-2.078A2.078,2.078,0,0,1,320.649,356.467Z" transform="translate(-287.028 -331.84)"/><path class="z" d="M292.347,348.055c-2.588-1.227-5.034-2.4-5.633-2.689a2.135,2.135,0,0,0-1.278,1.769c0,1.289,1.612,2.333,3.6,2.333A3.988,3.988,0,0,0,292.347,348.055Z" transform="translate(-278.244 -329.288)"/><path class="w" d="M292.931,331.087a5.97,5.97,0,1,1-7.264-4.3A5.97,5.97,0,0,1,292.931,331.087Z" transform="translate(-277.039 -323.98)"/><path class="w" d="M283.779,326.147a4.252,4.252,0,1,1-5.173-3.064A4.252,4.252,0,0,1,283.779,326.147Z" transform="translate(-275.408 -322.948)"/><path class="z" d="M297.781,336.663a1.856,1.856,0,1,1-2.258-1.338A1.855,1.855,0,0,1,297.781,336.663Z" transform="translate(-280.702 -326.432)"/></g></g></g></svg>