<svg xmlns="http://www.w3.org/2000/svg" xmlns:xlink="http://www.w3.org/1999/xlink" width="357.455" height="317.273" viewBox="0 0 357.455 317.273"><defs><style>.a,.c,.j,.m{fill:#fff;}.b{fill:#006ec6;}.c,.h,.j,.p{font-size:7px;}.c,.g,.h,.j,.m,.r,.s{font-family:QuicksandBold-Regular, Quicksand;}.c{letter-spacing:0.02em;}.d{fill:#eff4f5;}.e,.k,.n{fill:none;}.e,.f,.k{stroke:#fff;}.f,.o{fill:rgba(0,0,0,0);}.g,.h{fill:#829198;}.g,.m{font-size:8px;}.i{fill:#0fb4ff;}.k,.n{stroke-width:3px;}.l{fill:#a4cb5b;}.m{letter-spacing:-0.02em;}.n{stroke:#eff4f5;}.p,.q,.r,.s{fill:#5d5d5d;}.p,.q{font-family:QuicksandBook-Regular, Quicksand;}.q,.r{font-size:4px;}.s{font-size:5px;}.t{filter:url(#c);}.u{filter:url(#a);}</style><filter id="a" x="0" y="0" width="357.455" height="317.273" filterUnits="userSpaceOnUse"><feOffset dy="3" input="SourceAlpha"/><feGaussianBlur stdDeviation="3" result="b"/><feFlood flood-opacity="0.161"/><feComposite operator="in" in2="b"/><feComposite in="SourceGraphic"/></filter><filter id="c" x="275.173" y="271.23" width="67.792" height="35.147" filterUnits="userSpaceOnUse"><feOffset dy="3" input="SourceAlpha"/><feGaussianBlur stdDeviation="3" result="d"/><feFlood flood-opacity="0.161"/><feComposite operator="in" in2="d"/><feComposite in="SourceGraphic"/></filter></defs><g transform="translate(-24 -93.546)"><g transform="translate(33 99.546)"><g transform="translate(0)"><g class="u" transform="matrix(1, 0, 0, 1, -9, -6)"><rect class="a" width="339.455" height="299.273" rx="19" transform="translate(9 6)"/></g><path class="b" d="M15,0H324.455a15,15,0,0,1,15,15V33.3a0,0,0,0,1,0,0H0a0,0,0,0,1,0,0V15A15,15,0,0,1,15,0Z"/><path class="a" d="M2.687,5.887V3.711H.512a.512.512,0,1,1,0-1.023H2.687V.512a.512.512,0,1,1,1.024,0V2.687H5.887a.512.512,0,0,1,0,1.023H3.712V5.887a.512.512,0,0,1-1.024,0Z" transform="translate(324.974 5.923) rotate(45)"/><text class="c" transform="translate(32.863 18.145)"><tspan x="0" y="0">16202 - Requiers new task for delivery the next week </tspan></text><g transform="translate(10.954 42.941)"><rect class="d" width="92.309" height="137.532"/><line class="e" x2="80.727" transform="translate(11.758 55.491)"/><line class="f" x2="80.727" transform="translate(11.758 82.341)"/><line class="f" x2="80.727" transform="translate(11.758 109.266)"/></g><text class="g" transform="translate(55.301 144.463)"><tspan x="-21.608" y="0">Comments</tspan></text><text class="h" transform="translate(50.729 168.439)"><tspan x="-23.993" y="0">Sprint related</tspan></text><rect class="i" width="92.66" height="27.605" transform="translate(10.954 42.503)"/><text class="j" transform="translate(55.637 59.334)"><tspan x="-6.626" y="0">Info</tspan></text><path class="k" d="M5024.36-350.625l4.228,2.856,6.776-8.387" transform="translate(-4727.12 408.23)"/><g class="t" transform="matrix(1, 0, 0, 1, -9, -6)"><rect class="l" width="49.792" height="17.147" rx="8.574" transform="translate(284.17 277.23)"/></g><text class="m" transform="translate(290.071 282.111)"><tspan x="0" y="0">Close</tspan></text><line class="n" x2="318.115" transform="translate(11.173 260.056)"/><text class="g" transform="translate(54.234 88.377)"><tspan x="-24.46" y="0">Adjustments</tspan></text><text class="g" transform="translate(55.559 116.42)"><tspan x="-16.804" y="0">Timeline</tspan></text><g transform="translate(12.707 10.516)"><g transform="translate(0 0)"><g transform="translate(1.93)"><path class="o" d="M11.344,14.813H.876A.876.876,0,0,1,0,13.937V.876A.876.876,0,0,1,.876,0h6.3l5.047,4.951v8.983a.876.876,0,0,1-.877.879Z"/><path class="a" d="M11.344,13.937h0V5.321L6.816.876H.876V13.936H11.344m0,.876H.877A.877.877,0,0,1,0,13.937V.876A.877.877,0,0,1,.877,0h6.3l5.047,4.953v8.984A.877.877,0,0,1,11.344,14.813Z" transform="translate(0 0)"/></g><path class="b" d="M-234.967,339.593a29.705,29.705,0,0,0-2.207,2.454s-.493.8.243,1.139,2.21,1.136,2.21,1.136.054,1.938.791,2.45,1.38,0,2.349-1.365,1.775-2.5,1.775-2.5.076-1.374-1.221-1.293-1.508.327-2.213-.519S-234.518,339.275-234.967,339.593Z" transform="translate(237.906 -338.397)"/><path class="a" d="M10.982,9.3a1.683,1.683,0,0,0-.594-.989c-.495-.495-1.584-1.286-2.276-1.88a10.419,10.419,0,0,1-.891-.792L8.31,4.354a1.5,1.5,0,0,0-.2-1.88c-.495-.394-.891-.394-2.474-.3h-.1a.346.346,0,0,1-.2-.1S4.254.792,3.957.495A1.418,1.418,0,0,0,2.869,0,1.589,1.589,0,0,0,1.781.495L.3,2.276a2.081,2.081,0,0,0-.4,1.089,1.517,1.517,0,0,0,.6.989c.1,0,1.088.594,1.485.792.2.1.3.2.495.3a.514.514,0,0,1,.2.394,3.045,3.045,0,0,0,.594,1.88,1.488,1.488,0,0,0,2.177.2L6.531,6.629C7.025,7.023,8.905,8.509,9.9,9.3a1.407,1.407,0,0,0,.594.2h.594ZM7.322,3.76,4.649,7.125h0c-.2.2-.394.1-.594-.1A2.177,2.177,0,0,1,3.661,5.74a1.2,1.2,0,0,0-.693-1.187l-1.683-.99a.423.423,0,0,1-.1-.693L2.572,1.286a.494.494,0,0,1,.792,0c.394.495.891.989,1.286,1.485s1.88.187,1.88.187.891-.187.891.407C7.421,3.562,7.421,3.661,7.322,3.76Z" transform="translate(0.106 0.741)"/></g></g><text class="p" transform="translate(119.622 125.756)"><tspan x="0" y="5">Lorem Ipsum is simply dummy text of the printing and </tspan><tspan x="0" y="13">typesetting industry. Lorem Ipsum has been the industry’s </tspan><tspan x="0" y="21">standard dummy text ever since the 1500s, when an </tspan><tspan x="0" y="29">unknown printer took a galley of type and scrambled it to </tspan><tspan x="0" y="37">make a type specimen book. It has survived not only five </tspan><tspan x="0" y="45">centuries, but also the leap into electronic typesetting.</tspan></text><text class="q" transform="translate(115.678 54.581)"><tspan x="0" y="0">Lorem Ipsum</tspan></text><text class="q" transform="translate(115.678 78.681)"><tspan x="0" y="0">Lorem Ipsum</tspan></text><text class="q" transform="translate(115.678 102.78)"><tspan x="0" y="0">Lorem Ipsum</tspan></text><text class="q" transform="translate(187.539 54.581)"><tspan x="0" y="0">Lorem Ipsum</tspan></text><text class="q" transform="translate(187.539 78.681)"><tspan x="0" y="0">Lorem Ipsum</tspan></text><text class="q" transform="translate(187.539 102.78)"><tspan x="0" y="0">Lorem Ipsum</tspan></text><text class="q" transform="translate(249.321 54.581)"><tspan x="0" y="0">Lorem Ipsum</tspan></text><text class="q" transform="translate(249.321 78.681)"><tspan x="0" y="0">Lorem Ipsum</tspan></text><text class="r" transform="translate(119.622 118.24)"><tspan x="0" y="0">Description</tspan></text><text class="s" transform="translate(119.622 94.14)"><tspan x="0" y="0">Points Recorded</tspan></text><text class="s" transform="translate(119.622 70.041)"><tspan x="0" y="0">Assigned to</tspan></text><text class="s" transform="translate(119.622 45.941)"><tspan x="0" y="0">Status</tspan></text><text class="s" transform="translate(185.348 94.14)"><tspan x="0" y="0">Product</tspan></text><text class="s" transform="translate(185.348 70.041)"><tspan x="0" y="0">Delivery Date</tspan></text><text class="s" transform="translate(185.348 45.941)"><tspan x="0" y="0">Creation Date</tspan></text><text class="s" transform="translate(251.074 70.041)"><tspan x="0" y="0">Points Assigned</tspan></text><text class="s" transform="translate(251.074 45.941)"><tspan x="0" y="0">Creator</tspan></text></g></g></g></svg>